<?xml version="1.0" encoding="UTF-8" standalone="no"?><svg xmlns="http://www.w3.org/2000/svg" xmlns:xlink="http://www.w3.org/1999/xlink" clip-rule="evenodd" stroke-miterlimit="4.00" viewBox="0 0 1024 768"><desc>SVG generated by Keynote</desc><defs></defs><g transform="matrix(1.00, 0.00, -0.00, -1.00, 0.0, 768.0)"><path d="M 0.0 768.0 L 1024.0 768.0 L 1024.0 0.0 L 0.0 0.0 Z M 0.0 768.0 " fill="#212121"></path><path d="M 0.0 0.0 L 960.0 0.0 " fill="none" stroke="#A6AAA9" stroke-width="2.00" transform="matrix(1.00, 0.00, 0.00, -1.00, 32.0, 689.8)"></path><text xml:space="preserve" font-family="DINAlternate-Bold" font-weight="bold" font-size="24.0" fill="#838686" transform="matrix(1.00, 0.00, -0.00, -1.00, 36.0, 705.0)">A</text><text xml:space="preserve" font-family="DINAlternate-Bold" font-weight="bold" font-size="24.0" fill="#838686" transform="matrix(1.00, 0.00, -0.00, -1.00, 51.4, 705.0)">U</text><text xml:space="preserve" font-family="DINAlternate-Bold" font-weight="bold" font-size="24.0" fill="#838686" transform="matrix(1.00, 0.00, -0.00, -1.00, 67.7, 705.0)">S</text><text xml:space="preserve" font-family="DINAlternate-Bold" font-weight="bold" font-size="24.0" fill="#838686" transform="matrix(1.00, 0.00, -0.00, -1.00, 82.7, 705.0)">O</text><text xml:space="preserve" font-family="DINAlternate-Bold" font-weight="bold" font-size="24.0" fill="#838686" transform="matrix(1.00, 0.00, -0.00, -1.00, 98.5, 705.0)">M</text><text xml:space="preserve" font-family="DINCondensed-Bold" font-weight="bold" font-size="48.0" fill="#34A4DA" transform="matrix(1.00, 0.00, -0.00, -1.00, 36.0, 608.0)">C</text><text xml:space="preserve" font-family="DINCondensed-Bold" font-weight="bold" font-size="48.0" fill="#34A4DA" transform="matrix(1.00, 0.00, -0.00, -1.00, 55.5, 608.0)">U</text><text xml:space="preserve" font-family="DINCondensed-Bold" font-weight="bold" font-size="48.0" fill="#34A4DA" transform="matrix(1.00, 0.00, -0.00, -1.00, 76.0, 608.0)">R</text><text xml:space="preserve" font-family="DINCondensed-Bold" font-weight="bold" font-size="48.0" fill="#34A4DA" transform="matrix(1.00, 0.00, -0.00, -1.00, 96.4, 608.0)">R</text><text xml:space="preserve" font-family="DINCondensed-Bold" font-weight="bold" font-size="48.0" fill="#34A4DA" transform="matrix(1.00, 0.00, -0.00, -1.00, 116.9, 608.0)">E</text><text xml:space="preserve" font-family="DINCondensed-Bold" font-weight="bold" font-size="48.0" fill="#34A4DA" transform="matrix(1.00, 0.00, -0.00, -1.00, 134.6, 608.0)">N</text><text xml:space="preserve" font-family="DINCondensed-Bold" font-weight="bold" font-size="48.0" fill="#34A4DA" transform="matrix(1.00, 0.00, -0.00, -1.00, 156.0, 608.0)">T</text><text xml:space="preserve" font-family="DINCondensed-Bold" font-weight="bold" font-size="48.0" fill="#34A4DA" transform="matrix(1.00, 0.00, -0.00, -1.00, 171.9, 608.0)"> </text><text xml:space="preserve" font-family="DINCondensed-Bold" font-weight="bold" font-size="48.0" fill="#34A4DA" transform="matrix(1.00, 0.00, -0.00, -1.00, 180.8, 608.0)">P</text><text xml:space="preserve" font-family="DINCondensed-Bold" font-weight="bold" font-size="48.0" fill="#34A4DA" transform="matrix(1.00, 0.00, -0.00, -1.00, 200.4, 608.0)">R</text><text xml:space="preserve" font-family="DINCondensed-Bold" font-weight="bold" font-size="48.0" fill="#34A4DA" transform="matrix(1.00, 0.00, -0.00, -1.00, 220.8, 608.0)">O</text><text xml:space="preserve" font-family="DINCondensed-Bold" font-weight="bold" font-size="48.0" fill="#34A4DA" transform="matrix(1.00, 0.00, -0.00, -1.00, 241.2, 608.0)">D</text><text xml:space="preserve" font-family="DINCondensed-Bold" font-weight="bold" font-size="48.0" fill="#34A4DA" transform="matrix(1.00, 0.00, -0.00, -1.00, 261.7, 608.0)">U</text><text xml:space="preserve" font-family="DINCondensed-Bold" font-weight="bold" font-size="48.0" fill="#34A4DA" transform="matrix(1.00, 0.00, -0.00, -1.00, 282.1, 608.0)">C</text><text xml:space="preserve" font-family="DINCondensed-Bold" font-weight="bold" font-size="48.0" fill="#34A4DA" transform="matrix(1.00, 0.00, -0.00, -1.00, 301.7, 608.0)">T</text><text xml:space="preserve" font-family="DINCondensed-Bold" font-weight="bold" font-size="48.0" fill="#34A4DA" transform="matrix(1.00, 0.00, -0.00, -1.00, 317.6, 608.0)">S</text><text xml:space="preserve" font-family="LucidaGrande" font-size="33.9" fill="#34A4DA" transform="matrix(1.00, 0.00, -0.00, -1.00, 36.0, 513.2)">▸</text><text xml:space="preserve" font-family="AvenirNext-Medium" font-size="32.3" fill="#FEFFFE" transform="matrix(1.00, 0.00, -0.00, -1.00, 69.0, 516.0)">D</text><text xml:space="preserve" font-family="AvenirNext-Medium" font-size="32.3" fill="#FEFFFE" transform="matrix(1.00, 0.00, -0.00, -1.00, 93.6, 516.0)">e</text><text xml:space="preserve" font-family="AvenirNext-Medium" font-size="32.3" fill="#FEFFFE" transform="matrix(1.00, 0.00, -0.00, -1.00, 112.1, 516.0)">s</text><text xml:space="preserve" font-family="AvenirNext-Medium" font-size="32.3" fill="#FEFFFE" transform="matrix(1.00, 0.00, -0.00, -1.00, 126.4, 516.0)">i</text><text xml:space="preserve" font-family="AvenirNext-Medium" font-size="32.3" fill="#FEFFFE" transform="matrix(1.00, 0.00, -0.00, -1.00, 134.8, 516.0)">g</text><text xml:space="preserve" font-family="AvenirNext-Medium" font-size="32.3" fill="#FEFFFE" transform="matrix(1.00, 0.00, -0.00, -1.00, 155.2, 516.0)">n</text><text xml:space="preserve" font-family="AvenirNext-Medium" font-size="32.3" fill="#FEFFFE" transform="matrix(1.00, 0.00, -0.00, -1.00, 174.0, 516.0)">s</text><text xml:space="preserve" font-family="AvenirNext-Medium" font-size="32.3" fill="#FEFFFE" transform="matrix(1.00, 0.00, -0.00, -1.00, 188.3, 516.0)">:</text><text xml:space="preserve" font-family="AvenirNext-Medium" font-size="32.3" fill="#FEFFFE" transform="matrix(1.00, 0.00, -0.00, -1.00, 198.0, 516.0)"> </text><text xml:space="preserve" font-family="AvenirNext-Medium" font-size="32.3" fill="#FEFFFE" transform="matrix(1.00, 0.00, -0.00, -1.00, 206.1, 516.0)"> </text><text xml:space="preserve" font-family="LucidaGrande" font-size="33.9" fill="#34A4DA" transform="matrix(1.00, 0.00, -0.00, -1.00, 71.0, 442.6)">▸</text><text xml:space="preserve" font-family="AvenirNext-Medium" font-size="32.3" fill="#FEFFFE" transform="matrix(1.00, 0.00, -0.00, -1.00, 104.0, 445.0)">E</text><text xml:space="preserve" font-family="AvenirNext-Medium" font-size="32.3" fill="#FEFFFE" transform="matrix(1.00, 0.00, -0.00, -1.00, 123.4, 445.0)">x</text><text xml:space="preserve" font-family="AvenirNext-Medium" font-size="32.3" fill="#FEFFFE" transform="matrix(1.00, 0.00, -0.00, -1.00, 139.9, 445.0)">t</text><text xml:space="preserve" font-family="AvenirNext-Medium" font-size="32.3" fill="#FEFFFE" transform="matrix(1.00, 0.00, -0.00, -1.00, 150.5, 445.0)">e</text><text xml:space="preserve" font-family="AvenirNext-Medium" font-size="32.3" fill="#FEFFFE" transform="matrix(1.00, 0.00, -0.00, -1.00, 169.1, 445.0)">n</text><text xml:space="preserve" font-family="AvenirNext-Medium" font-size="32.3" fill="#FEFFFE" transform="matrix(1.00, 0.00, -0.00, -1.00, 187.9, 445.0)">s</text><text xml:space="preserve" font-family="AvenirNext-Medium" font-size="32.3" fill="#FEFFFE" transform="matrix(1.00, 0.00, -0.00, -1.00, 202.2, 445.0)">i</text><text xml:space="preserve" font-family="AvenirNext-Medium" font-size="32.3" fill="#FEFFFE" transform="matrix(1.00, 0.00, -0.00, -1.00, 210.6, 445.0)">o</text><text xml:space="preserve" font-family="AvenirNext-Medium" font-size="32.3" fill="#FEFFFE" transform="matrix(1.00, 0.00, -0.00, -1.00, 230.3, 445.0)">n</text><text xml:space="preserve" font-family="AvenirNext-Medium" font-size="32.3" fill="#FEFFFE" transform="matrix(1.00, 0.00, -0.00, -1.00, 249.1, 445.0)">s</text><text xml:space="preserve" font-family="AvenirNext-Medium" font-size="32.3" fill="#FEFFFE" transform="matrix(1.00, 0.00, -0.00, -1.00, 263.4, 445.0)"> </text><text xml:space="preserve" font-family="LucidaGrande" font-size="33.9" fill="#34A4DA" transform="matrix(1.00, 0.00, -0.00, -1.00, 71.0, 372.0)">▸</text><text xml:space="preserve" font-family="AvenirNext-Medium" font-size="32.3" fill="#FEFFFE" transform="matrix(1.00, 0.00, -0.00, -1.00, 104.0, 375.0)">S</text><text xml:space="preserve" font-family="AvenirNext-Medium" font-size="32.3" fill="#FEFFFE" transform="matrix(1.00, 0.00, -0.00, -1.00, 122.4, 375.0)">i</text><text xml:space="preserve" font-family="AvenirNext-Medium" font-size="32.3" fill="#FEFFFE" transform="matrix(1.00, 0.00, -0.00, -1.00, 130.7, 375.0)">n</text><text xml:space="preserve" font-family="AvenirNext-Medium" font-size="32.3" fill="#FEFFFE" transform="matrix(1.00, 0.00, -0.00, -1.00, 149.5, 375.0)">g</text><text xml:space="preserve" font-family="AvenirNext-Medium" font-size="32.3" fill="#FEFFFE" transform="matrix(1.00, 0.00, -0.00, -1.00, 170.0, 375.0)">l</text><text xml:space="preserve" font-family="AvenirNext-Medium" font-size="32.3" fill="#FEFFFE" transform="matrix(1.00, 0.00, -0.00, -1.00, 178.4, 375.0)">e</text><text xml:space="preserve" font-family="AvenirNext-Medium" font-size="32.3" fill="#FEFFFE" transform="matrix(1.00, 0.00, -0.00, -1.00, 196.9, 375.0)"> </text><text xml:space="preserve" font-family="AvenirNext-Medium" font-size="32.3" fill="#FEFFFE" transform="matrix(1.00, 0.00, -0.00, -1.00, 204.9, 375.0)">p</text><text xml:space="preserve" font-family="AvenirNext-Medium" font-size="32.3" fill="#FEFFFE" transform="matrix(1.00, 0.00, -0.00, -1.00, 225.4, 375.0)">u</text><text xml:space="preserve" font-family="AvenirNext-Medium" font-size="32.3" fill="#FEFFFE" transform="matrix(1.00, 0.00, -0.00, -1.00, 244.2, 375.0)">r</text><text xml:space="preserve" font-family="AvenirNext-Medium" font-size="32.3" fill="#FEFFFE" transform="matrix(1.00, 0.00, -0.00, -1.00, 255.9, 375.0)">p</text><text xml:space="preserve" font-family="AvenirNext-Medium" font-size="32.3" fill="#FEFFFE" transform="matrix(1.00, 0.00, -0.00, -1.00, 276.4, 375.0)">o</text><text xml:space="preserve" font-family="AvenirNext-Medium" font-size="32.3" fill="#FEFFFE" transform="matrix(1.00, 0.00, -0.00, -1.00, 296.1, 375.0)">s</text><text xml:space="preserve" font-family="AvenirNext-Medium" font-size="32.3" fill="#FEFFFE" transform="matrix(1.00, 0.00, -0.00, -1.00, 310.4, 375.0)">e</text><text xml:space="preserve" font-family="AvenirNext-Medium" font-size="32.3" fill="#FEFFFE" transform="matrix(1.00, 0.00, -0.00, -1.00, 328.9, 375.0)"> </text><text xml:space="preserve" font-family="LucidaGrande" font-size="33.9" fill="#34A4DA" transform="matrix(1.00, 0.00, -0.00, -1.00, 71.0, 301.4)">▸</text><text xml:space="preserve" font-family="AvenirNext-Medium" font-size="32.3" fill="#FEFFFE" transform="matrix(1.00, 0.00, -0.00, -1.00, 104.0, 304.0)">W</text><text xml:space="preserve" font-family="AvenirNext-Medium" font-size="32.3" fill="#FEFFFE" transform="matrix(1.00, 0.00, -0.00, -1.00, 135.9, 304.0)">i</text><text xml:space="preserve" font-family="AvenirNext-Medium" font-size="32.3" fill="#FEFFFE" transform="matrix(1.00, 0.00, -0.00, -1.00, 144.3, 304.0)">r</text><text xml:space="preserve" font-family="AvenirNext-Medium" font-size="32.3" fill="#FEFFFE" transform="matrix(1.00, 0.00, -0.00, -1.00, 155.4, 304.0)">e</text><text xml:space="preserve" font-family="AvenirNext-Medium" font-size="32.3" fill="#FEFFFE" transform="matrix(1.00, 0.00, -0.00, -1.00, 173.9, 304.0)">d</text><text xml:space="preserve" font-family="AvenirNext-Medium" font-size="32.3" fill="#FEFFFE" transform="matrix(1.00, 0.00, -0.00, -1.00, 194.4, 304.0)"> </text><text xml:space="preserve" font-family="AvenirNext-Medium" font-size="32.3" fill="#FEFFFE" transform="matrix(1.00, 0.00, -0.00, -1.00, 202.5, 304.0)">p</text><text xml:space="preserve" font-family="AvenirNext-Medium" font-size="32.3" fill="#FEFFFE" transform="matrix(1.00, 0.00, -0.00, -1.00, 223.0, 304.0)">r</text><text xml:space="preserve" font-family="AvenirNext-Medium" font-size="32.3" fill="#FEFFFE" transform="matrix(1.00, 0.00, -0.00, -1.00, 234.1, 304.0)">o</text><text xml:space="preserve" font-family="AvenirNext-Medium" font-size="32.3" fill="#FEFFFE" transform="matrix(1.00, 0.00, -0.00, -1.00, 253.8, 304.0)">d</text><text xml:space="preserve" font-family="AvenirNext-Medium" font-size="32.3" fill="#FEFFFE" transform="matrix(1.00, 0.00, -0.00, -1.00, 274.3, 304.0)">u</text><text xml:space="preserve" font-family="AvenirNext-Medium" font-size="32.3" fill="#FEFFFE" transform="matrix(1.00, 0.00, -0.00, -1.00, 293.1, 304.0)">c</text><text xml:space="preserve" font-family="AvenirNext-Medium" font-size="32.3" fill="#FEFFFE" transform="matrix(1.00, 0.00, -0.00, -1.00, 309.0, 304.0)">t</text><text xml:space="preserve" font-family="AvenirNext-Medium" font-size="32.3" fill="#FEFFFE" transform="matrix(1.00, 0.00, -0.00, -1.00, 319.7, 304.0)">s</text><text xml:space="preserve" font-family="AvenirNext-Medium" font-size="32.3" fill="#FEFFFE" transform="matrix(1.00, 0.00, -0.00, -1.00, 334.0, 304.0)"> </text><text xml:space="preserve" font-family="LucidaGrande" font-size="33.9" fill="#34A4DA" transform="matrix(1.00, 0.00, -0.00, -1.00, 36.0, 230.8)">▸</text><text xml:space="preserve" font-family="AvenirNext-Medium" font-size="32.3" fill="#FEFFFE" transform="matrix(1.00, 0.00, -0.00, -1.00, 69.0, 233.0)">P</text><text xml:space="preserve" font-family="AvenirNext-Medium" font-size="32.3" fill="#FEFFFE" transform="matrix(1.00, 0.00, -0.00, -1.00, 86.7, 233.0)">r</text><text xml:space="preserve" font-family="AvenirNext-Medium" font-size="32.3" fill="#FEFFFE" transform="matrix(1.00, 0.00, -0.00, -1.00, 97.8, 233.0)">o</text><text xml:space="preserve" font-family="AvenirNext-Medium" font-size="32.3" fill="#FEFFFE" transform="matrix(1.00, 0.00, -0.00, -1.00, 117.5, 233.0)">d</text><text xml:space="preserve" font-family="AvenirNext-Medium" font-size="32.3" fill="#FEFFFE" transform="matrix(1.00, 0.00, -0.00, -1.00, 138.1, 233.0)">u</text><text xml:space="preserve" font-family="AvenirNext-Medium" font-size="32.3" fill="#FEFFFE" transform="matrix(1.00, 0.00, -0.00, -1.00, 156.9, 233.0)">c</text><text xml:space="preserve" font-family="AvenirNext-Medium" font-size="32.3" fill="#FEFFFE" transform="matrix(1.00, 0.00, -0.00, -1.00, 172.8, 233.0)">t</text><text xml:space="preserve" font-family="AvenirNext-Medium" font-size="32.3" fill="#FEFFFE" transform="matrix(1.00, 0.00, -0.00, -1.00, 183.4, 233.0)">s</text><text xml:space="preserve" font-family="AvenirNext-Medium" font-size="32.3" fill="#FEFFFE" transform="matrix(1.00, 0.00, -0.00, -1.00, 197.8, 233.0)">:</text><text xml:space="preserve" font-family="AvenirNext-Medium" font-size="32.3" fill="#FEFFFE" transform="matrix(1.00, 0.00, -0.00, -1.00, 207.5, 233.0)"> </text><text xml:space="preserve" font-family="LucidaGrande" font-size="33.9" fill="#34A4DA" transform="matrix(1.00, 0.00, -0.00, -1.00, 71.0, 160.2)">▸</text><text xml:space="preserve" font-family="AvenirNext-Medium" font-size="32.3" fill="#FEFFFE" transform="matrix(1.00, 0.00, -0.00, -1.00, 104.0, 163.0)">W</text><text xml:space="preserve" font-family="AvenirNext-Medium" font-size="32.3" fill="#FEFFFE" transform="matrix(1.00, 0.00, -0.00, -1.00, 135.9, 163.0)">i</text><text xml:space="preserve" font-family="AvenirNext-Medium" font-size="32.3" fill="#FEFFFE" transform="matrix(1.00, 0.00, -0.00, -1.00, 144.3, 163.0)">n</text><text xml:space="preserve" font-family="AvenirNext-Medium" font-size="32.3" fill="#FEFFFE" transform="matrix(1.00, 0.00, -0.00, -1.00, 163.1, 163.0)">B</text><text xml:space="preserve" font-family="AvenirNext-Medium" font-size="32.3" fill="#FEFFFE" transform="matrix(1.00, 0.00, -0.00, -1.00, 183.8, 163.0)">o</text><text xml:space="preserve" font-family="AvenirNext-Medium" font-size="32.3" fill="#FEFFFE" transform="matrix(1.00, 0.00, -0.00, -1.00, 203.5, 163.0)">t</text><text xml:space="preserve" font-family="AvenirNext-Medium" font-size="32.3" fill="#FEFFFE" transform="matrix(1.00, 0.00, -0.00, -1.00, 214.1, 163.0)"> </text><text xml:space="preserve" font-family="LucidaGrande" font-size="33.9" fill="#34A4DA" transform="matrix(1.00, 0.00, -0.00, -1.00, 71.0, 89.6)">▸</text><text xml:space="preserve" font-family="AvenirNext-Medium" font-size="32.3" fill="#FEFFFE" transform="matrix(1.00, 0.00, -0.00, -1.00, 104.0, 92.0)">G</text><text xml:space="preserve" font-family="AvenirNext-Medium" font-size="32.3" fill="#FEFFFE" transform="matrix(1.00, 0.00, -0.00, -1.00, 129.1, 92.0)">e</text><text xml:space="preserve" font-family="AvenirNext-Medium" font-size="32.3" fill="#FEFFFE" transform="matrix(1.00, 0.00, -0.00, -1.00, 147.6, 92.0)">k</text><text xml:space="preserve" font-family="AvenirNext-Medium" font-size="32.3" fill="#FEFFFE" transform="matrix(1.00, 0.00, -0.00, -1.00, 164.7, 92.0)">k</text><text xml:space="preserve" font-family="AvenirNext-Medium" font-size="32.3" fill="#FEFFFE" transform="matrix(1.00, 0.00, -0.00, -1.00, 181.0, 92.0)">o</text><text xml:space="preserve" font-family="AvenirNext-Medium" font-size="32.3" fill="#FEFFFE" transform="matrix(1.00, 0.00, -0.00, -1.00, 200.7, 92.0)"> </text><text xml:space="preserve" font-family="AvenirNext-Medium" font-size="32.3" fill="#FEFFFE" transform="matrix(1.00, 0.00, -0.00, -1.00, 208.8, 92.0)">F</text><text xml:space="preserve" font-family="AvenirNext-Medium" font-size="32.3" fill="#FEFFFE" transform="matrix(1.00, 0.00, -0.00, -1.00, 225.6, 92.0)">a</text><text xml:space="preserve" font-family="AvenirNext-Medium" font-size="32.3" fill="#FEFFFE" transform="matrix(1.00, 0.00, -0.00, -1.00, 243.1, 92.0)">c</text><text xml:space="preserve" font-family="AvenirNext-Medium" font-size="32.3" fill="#FEFFFE" transform="matrix(1.00, 0.00, -0.00, -1.00, 259.1, 92.0)">a</text><text xml:space="preserve" font-family="AvenirNext-Medium" font-size="32.3" fill="#FEFFFE" transform="matrix(1.00, 0.00, -0.00, -1.00, 276.6, 92.0)">d</text><text xml:space="preserve" font-family="AvenirNext-Medium" font-size="32.3" fill="#FEFFFE" transform="matrix(1.00, 0.00, -0.00, -1.00, 297.1, 92.0)">e</text><image xlink:href="../../530E9AF0-43D7-4833-AF5F-F344C0C97C42/assets/545E40E0C163CE7F6FF15AD7D02EE66B.png" width="443.00" height="332.00" transform="matrix(0.54, 0.00, -0.00, -0.54, 790.0, 168.0)"></image></g></svg>