<?xml version="1.0" encoding="UTF-8" standalone="no"?><svg xmlns="http://www.w3.org/2000/svg" xmlns:xlink="http://www.w3.org/1999/xlink" clip-rule="evenodd" stroke-miterlimit="4.00" viewBox="0 0 277 123"><desc>SVG generated by Keynote</desc><defs></defs><g transform="matrix(1.00, 0.00, -0.00, -1.00, 0.0, 123.0)"><g><clipPath id="clip-199"><path d="M 0.4 0.9 L 122.3 0.9 L 122.3 122.8 L 0.4 122.8 Z M 0.4 0.9 "></path></clipPath><g clip-path="url(#clip-199)"><path d="M 1.4 121.8 L 121.3 121.8 L 121.3 1.9 L 1.4 1.9 Z M 1.4 121.8 " fill="#34A4DA"></path></g></g><g><clipPath id="clip-200"><path d="M -1.6 1.9 L 124.3 1.9 L 124.3 121.8 L -1.6 121.8 Z M -1.6 1.9 "></path></clipPath><g clip-path="url(#clip-200)"><text xml:space="preserve" font-family="DINCondensed-Bold" font-weight="bold" font-size="28.0" fill="#FFFFFF" transform="matrix(1.00, 0.00, -0.00, -1.00, 24.0, 69.0)">W</text><text xml:space="preserve" font-family="DINCondensed-Bold" font-weight="bold" font-size="28.0" fill="#FFFFFF" transform="matrix(1.00, 0.00, -0.00, -1.00, 40.6, 69.0)">I</text><text xml:space="preserve" font-family="DINCondensed-Bold" font-weight="bold" font-size="28.0" fill="#FFFFFF" transform="matrix(1.00, 0.00, -0.00, -1.00, 46.3, 69.0)">N</text><text xml:space="preserve" font-family="DINCondensed-Bold" font-weight="bold" font-size="28.0" fill="#FFFFFF" transform="matrix(1.00, 0.00, -0.00, -1.00, 58.7, 69.0)">D</text><text xml:space="preserve" font-family="DINCondensed-Bold" font-weight="bold" font-size="28.0" fill="#FFFFFF" transform="matrix(1.00, 0.00, -0.00, -1.00, 70.7, 69.0)">O</text><text xml:space="preserve" font-family="DINCondensed-Bold" font-weight="bold" font-size="28.0" fill="#FFFFFF" transform="matrix(1.00, 0.00, -0.00, -1.00, 82.3, 69.0)">W</text><text xml:space="preserve" font-family="DINCondensed-Bold" font-weight="bold" font-size="28.0" fill="#FFFFFF" transform="matrix(1.00, 0.00, -0.00, -1.00, 98.9, 69.0)"> </text><text xml:space="preserve" font-family="DINCondensed-Bold" font-weight="bold" font-size="28.0" fill="#FFFFFF" transform="matrix(1.00, 0.00, -0.00, -1.00, 18.0, 41.0)">C</text><text xml:space="preserve" font-family="DINCondensed-Bold" font-weight="bold" font-size="28.0" fill="#FFFFFF" transform="matrix(1.00, 0.00, -0.00, -1.00, 29.4, 41.0)">L</text><text xml:space="preserve" font-family="DINCondensed-Bold" font-weight="bold" font-size="28.0" fill="#FFFFFF" transform="matrix(1.00, 0.00, -0.00, -1.00, 39.8, 41.0)">E</text><text xml:space="preserve" font-family="DINCondensed-Bold" font-weight="bold" font-size="28.0" fill="#FFFFFF" transform="matrix(1.00, 0.00, -0.00, -1.00, 50.1, 41.0)">A</text><text xml:space="preserve" font-family="DINCondensed-Bold" font-weight="bold" font-size="28.0" fill="#FFFFFF" transform="matrix(1.00, 0.00, -0.00, -1.00, 61.5, 41.0)">N</text><text xml:space="preserve" font-family="DINCondensed-Bold" font-weight="bold" font-size="28.0" fill="#FFFFFF" transform="matrix(1.00, 0.00, -0.00, -1.00, 73.9, 41.0)">I</text><text xml:space="preserve" font-family="DINCondensed-Bold" font-weight="bold" font-size="28.0" fill="#FFFFFF" transform="matrix(1.00, 0.00, -0.00, -1.00, 79.7, 41.0)">N</text><text xml:space="preserve" font-family="DINCondensed-Bold" font-weight="bold" font-size="28.0" fill="#FFFFFF" transform="matrix(1.00, 0.00, -0.00, -1.00, 92.1, 41.0)">G</text></g></g><g><clipPath id="clip-201"><path d="M 257.6 104.2 C 281.0 80.8 281.0 42.9 257.6 19.4 C 234.2 -4.0 196.2 -4.0 172.8 19.4 C 149.4 42.9 149.4 80.8 172.8 104.2 C 196.2 127.6 234.2 127.6 257.6 104.2 Z M 257.6 104.2 "></path></clipPath><g clip-path="url(#clip-201)"><g><clipPath id="clip-202"><path d="M 154.3 0.9 L 276.1 0.9 L 276.1 122.8 L 154.3 122.8 Z M 154.3 0.9 "></path></clipPath><g clip-path="url(#clip-202)"><image xlink:href="../../3FB1384B-AF7D-403E-9052-01D9E7CFA740/assets/A5964C14CBB6E4C1993E6E7CF3004B8E.jpeg" width="266.00" height="266.00" transform="matrix(0.63, 0.00, -0.00, -0.63, 155.3, 121.8)"></image><path d="M 155.3 121.8 L 275.1 121.8 L 275.1 1.9 L 155.3 1.9 Z M 155.3 121.8 " fill="#34A4DA" fill-opacity="0.80"></path></g></g></g></g><g><clipPath id="clip-203"><path d="M 185.7 63.8 L 213.3 63.8 L 213.3 91.3 L 185.7 91.3 Z M 185.7 63.8 "></path></clipPath><g clip-path="url(#clip-203)"><path d="M 186.7 90.3 L 212.3 90.3 L 212.3 64.8 L 186.7 64.8 Z M 186.7 90.3 " fill="#FEFFFE"></path></g></g><g><clipPath id="clip-204"><path d="M 218.2 63.8 L 245.8 63.8 L 245.8 91.3 L 218.2 91.3 Z M 218.2 63.8 "></path></clipPath><g clip-path="url(#clip-204)"><path d="M 219.2 90.3 L 244.8 90.3 L 244.8 64.8 L 219.2 64.8 Z M 219.2 90.3 " fill="#FEFFFE"></path></g></g><g><clipPath id="clip-205"><path d="M 185.7 21.0 L 213.3 21.0 L 213.3 59.8 L 185.7 59.8 Z M 185.7 21.0 "></path></clipPath><g clip-path="url(#clip-205)"><path d="M 186.7 58.8 L 212.3 58.8 L 212.3 33.2 L 186.7 33.2 Z M 186.7 58.8 " fill="#FEFFFE"></path><image xlink:href="../../516FCB26-46EA-49F9-939D-9F5997279282/assets/49567CE60124C953FAEEC9D4FDD4BC50.png" width="107.00" height="47.00" transform="matrix(0.24, 0.00, -0.00, -0.24, 186.7, 33.2)"></image></g></g><g><clipPath id="clip-206"><path d="M 218.2 21.0 L 245.8 21.0 L 245.8 59.8 L 218.2 59.8 Z M 218.2 21.0 "></path></clipPath><g clip-path="url(#clip-206)"><path d="M 219.2 58.8 L 244.8 58.8 L 244.8 33.2 L 219.2 33.2 Z M 219.2 58.8 " fill="#FEFFFE"></path><image xlink:href="../../516FCB26-46EA-49F9-939D-9F5997279282/assets/49567CE60124C953FAEEC9D4FDD4BC50.png" width="107.00" height="47.00" transform="matrix(0.24, 0.00, -0.00, -0.24, 219.2, 33.2)"></image></g></g></g></svg>