<?xml version="1.0" encoding="UTF-8" standalone="no"?><svg xmlns="http://www.w3.org/2000/svg" xmlns:xlink="http://www.w3.org/1999/xlink" clip-rule="evenodd" stroke-miterlimit="4.00" viewBox="0 0 276 123"><desc>SVG generated by Keynote</desc><defs></defs><g transform="matrix(1.00, 0.00, -0.00, -1.00, 0.0, 123.0)"><g><clipPath id="clip-179"><path d="M 0.4 0.5 L 122.3 0.5 L 122.3 122.4 L 0.4 122.4 Z M 0.4 0.5 "></path></clipPath><g clip-path="url(#clip-179)"><path d="M 1.4 121.4 L 121.3 121.4 L 121.3 1.5 L 1.4 1.5 Z M 1.4 121.4 " fill="#FDCA55"></path></g></g><g><clipPath id="clip-180"><path d="M -1.6 1.5 L 124.3 1.5 L 124.3 121.4 L -1.6 121.4 Z M -1.6 1.5 "></path></clipPath><g clip-path="url(#clip-180)"><text xml:space="preserve" font-family="DINCondensed-Bold" font-weight="bold" font-size="28.0" fill="#316835" transform="matrix(1.00, 0.00, -0.00, -1.00, 14.0, 69.0)">R</text><text xml:space="preserve" font-family="DINCondensed-Bold" font-weight="bold" font-size="28.0" fill="#316835" transform="matrix(1.00, 0.00, -0.00, -1.00, 25.9, 69.0)">O</text><text xml:space="preserve" font-family="DINCondensed-Bold" font-weight="bold" font-size="28.0" fill="#316835" transform="matrix(1.00, 0.00, -0.00, -1.00, 37.9, 69.0)">O</text><text xml:space="preserve" font-family="DINCondensed-Bold" font-weight="bold" font-size="28.0" fill="#316835" transform="matrix(1.00, 0.00, -0.00, -1.00, 49.8, 69.0)">F</text><text xml:space="preserve" font-family="DINCondensed-Bold" font-weight="bold" font-size="28.0" fill="#316835" transform="matrix(1.00, 0.00, -0.00, -1.00, 60.1, 69.0)"> </text><text xml:space="preserve" font-family="DINCondensed-Bold" font-weight="bold" font-size="28.0" fill="#316835" transform="matrix(1.00, 0.00, -0.00, -1.00, 65.4, 69.0)">L</text><text xml:space="preserve" font-family="DINCondensed-Bold" font-weight="bold" font-size="28.0" fill="#316835" transform="matrix(1.00, 0.00, -0.00, -1.00, 75.7, 69.0)">E</text><text xml:space="preserve" font-family="DINCondensed-Bold" font-weight="bold" font-size="28.0" fill="#316835" transform="matrix(1.00, 0.00, -0.00, -1.00, 86.1, 69.0)">A</text><text xml:space="preserve" font-family="DINCondensed-Bold" font-weight="bold" font-size="28.0" fill="#316835" transform="matrix(1.00, 0.00, -0.00, -1.00, 97.5, 69.0)">F</text><text xml:space="preserve" font-family="DINCondensed-Bold" font-weight="bold" font-size="28.0" fill="#316835" transform="matrix(1.00, 0.00, -0.00, -1.00, 107.8, 69.0)"> </text><text xml:space="preserve" font-family="DINCondensed-Bold" font-weight="bold" font-size="28.0" fill="#316835" transform="matrix(1.00, 0.00, -0.00, -1.00, 21.0, 41.0)">B</text><text xml:space="preserve" font-family="DINCondensed-Bold" font-weight="bold" font-size="28.0" fill="#316835" transform="matrix(1.00, 0.00, -0.00, -1.00, 32.9, 41.0)">L</text><text xml:space="preserve" font-family="DINCondensed-Bold" font-weight="bold" font-size="28.0" fill="#316835" transform="matrix(1.00, 0.00, -0.00, -1.00, 43.3, 41.0)">O</text><text xml:space="preserve" font-family="DINCondensed-Bold" font-weight="bold" font-size="28.0" fill="#316835" transform="matrix(1.00, 0.00, -0.00, -1.00, 54.9, 41.0)">W</text><text xml:space="preserve" font-family="DINCondensed-Bold" font-weight="bold" font-size="28.0" fill="#316835" transform="matrix(1.00, 0.00, -0.00, -1.00, 71.5, 41.0)">I</text><text xml:space="preserve" font-family="DINCondensed-Bold" font-weight="bold" font-size="28.0" fill="#316835" transform="matrix(1.00, 0.00, -0.00, -1.00, 77.2, 41.0)">N</text><text xml:space="preserve" font-family="DINCondensed-Bold" font-weight="bold" font-size="28.0" fill="#316835" transform="matrix(1.00, 0.00, -0.00, -1.00, 89.6, 41.0)">G</text></g></g><g><clipPath id="clip-181"><path d="M 155.3 1.5 L 275.1 1.5 L 275.1 121.4 L 155.3 121.4 Z M 155.3 1.5 "></path></clipPath><g clip-path="url(#clip-181)"><image xlink:href="../../1A39E620-F723-42E6-8D22-809D56208EDC/assets/2D74059928C26FAE817E5950B016DFDE.png" width="120.00" height="120.00" transform="matrix(1.00, 0.00, -0.00, -1.00, 155.0, 121.0)"></image></g></g></g></svg>