<?xml version="1.0" encoding="UTF-8" standalone="no"?><svg xmlns="http://www.w3.org/2000/svg" xmlns:xlink="http://www.w3.org/1999/xlink" clip-rule="evenodd" stroke-miterlimit="4.00" viewBox="0 0 204 23"><desc>SVG generated by Keynote</desc><defs></defs><g transform="matrix(1.00, 0.00, -0.00, -1.00, 0.0, 23.0)"><path d="M 11.5 21.9 L 192.7 21.9 C 192.7 21.9 192.7 21.9 192.7 21.9 C 198.3 21.9 202.8 17.4 202.8 11.8 C 202.8 11.8 202.8 11.8 202.8 11.8 C 202.8 11.8 202.8 11.8 202.8 11.8 C 202.8 6.2 198.3 1.7 192.7 1.7 C 192.7 1.7 192.7 1.7 192.7 1.7 L 11.5 1.7 C 11.5 1.7 11.5 1.7 11.5 1.7 C 5.9 1.7 1.4 6.2 1.4 11.8 C 1.4 11.8 1.4 11.8 1.4 11.8 C 1.4 11.8 1.4 11.8 1.4 11.8 C 1.4 17.4 5.9 21.9 11.5 21.9 C 11.5 21.9 11.5 21.9 11.5 21.9 Z M 11.5 21.9 " fill="#34A4DA"></path></g></svg>