<?xml version="1.0" encoding="UTF-8" standalone="no"?><svg xmlns="http://www.w3.org/2000/svg" xmlns:xlink="http://www.w3.org/1999/xlink" clip-rule="evenodd" stroke-miterlimit="4.00" viewBox="0 0 164 35"><desc>SVG generated by Keynote</desc><defs></defs><g transform="matrix(1.00, 0.00, -0.00, -1.00, 0.0, 35.0)"><text xml:space="preserve" font-family="DINCondensed-Bold" font-weight="bold" font-size="43.0" fill="#FEFFFE" transform="matrix(1.00, 0.00, -0.00, -1.00, 0.0, 3.0)">3</text><text xml:space="preserve" font-family="DINCondensed-Bold" font-weight="bold" font-size="43.0" fill="#FEFFFE" transform="matrix(1.00, 0.00, -0.00, -1.00, 16.0, 3.0)">7</text><text xml:space="preserve" font-family="DINCondensed-Bold" font-weight="bold" font-size="43.0" fill="#FEFFFE" transform="matrix(1.00, 0.00, -0.00, -1.00, 32.0, 3.0)">%</text><text xml:space="preserve" font-family="DINCondensed-Bold" font-weight="bold" font-size="43.0" fill="#FEFFFE" transform="matrix(1.00, 0.00, -0.00, -1.00, 47.1, 3.0)"> </text><text xml:space="preserve" font-family="DINCondensed-Bold" font-weight="bold" font-size="43.0" fill="#FEFFFE" transform="matrix(1.00, 0.00, -0.00, -1.00, 55.1, 3.0)">C</text><text xml:space="preserve" font-family="DINCondensed-Bold" font-weight="bold" font-size="43.0" fill="#FEFFFE" transform="matrix(1.00, 0.00, -0.00, -1.00, 72.6, 3.0)">l</text><text xml:space="preserve" font-family="DINCondensed-Bold" font-weight="bold" font-size="43.0" fill="#FEFFFE" transform="matrix(1.00, 0.00, -0.00, -1.00, 80.6, 3.0)">e</text><text xml:space="preserve" font-family="DINCondensed-Bold" font-weight="bold" font-size="43.0" fill="#FEFFFE" transform="matrix(1.00, 0.00, -0.00, -1.00, 96.5, 3.0)">a</text><text xml:space="preserve" font-family="DINCondensed-Bold" font-weight="bold" font-size="43.0" fill="#FEFFFE" transform="matrix(1.00, 0.00, -0.00, -1.00, 112.4, 3.0)">n</text><text xml:space="preserve" font-family="DINCondensed-Bold" font-weight="bold" font-size="43.0" fill="#FEFFFE" transform="matrix(1.00, 0.00, -0.00, -1.00, 129.2, 3.0)">e</text><text xml:space="preserve" font-family="DINCondensed-Bold" font-weight="bold" font-size="43.0" fill="#FEFFFE" transform="matrix(1.00, 0.00, -0.00, -1.00, 145.1, 3.0)">d</text></g></svg>