<?xml version="1.0" encoding="UTF-8" standalone="no"?><svg xmlns="http://www.w3.org/2000/svg" xmlns:xlink="http://www.w3.org/1999/xlink" clip-rule="evenodd" stroke-miterlimit="4.00" viewBox="0 0 50 50"><desc>SVG generated by Keynote</desc><defs></defs><g transform="matrix(1.00, 0.00, -0.00, -1.00, 0.0, 50.0)"><g><clipPath id="clip-929"><path d="M 41.8 42.0 C 51.0 32.8 51.0 17.9 41.8 8.7 C 32.6 -0.5 17.7 -0.5 8.5 8.7 C -0.7 17.9 -0.7 32.8 8.5 42.0 C 17.7 51.3 32.6 51.3 41.8 42.0 Z M 41.8 42.0 "></path></clipPath><g clip-path="url(#clip-929)"><g><clipPath id="clip-930"><path d="M 0.6 0.8 L 49.7 0.8 L 49.7 50.0 L 0.6 50.0 Z M 0.6 0.8 "></path></clipPath><g clip-path="url(#clip-930)"><image xlink:href="../../6C88DD7B-33DB-4837-8E97-88E0ACD41ED0/assets/3CCD150ECDE4CFFF17181453120CE8CF.jpeg" width="266.00" height="266.00" transform="matrix(0.63, 0.00, -0.00, -0.63, 1.6, 49.0)"></image><path d="M 1.6 49.0 L 48.7 49.0 L 48.7 1.8 L 1.6 1.8 Z M 1.6 49.0 " fill="#34A4DA" fill-opacity="0.80"></path></g></g></g></g><g><clipPath id="clip-931"><path d="M 12.9 25.5 L 25.0 25.5 L 25.0 37.6 L 12.9 37.6 Z M 12.9 25.5 "></path></clipPath><g clip-path="url(#clip-931)"><path d="M 13.9 36.6 L 24.0 36.6 L 24.0 26.5 L 13.9 26.5 Z M 13.9 36.6 " fill="#FEFFFE"></path></g></g><g><clipPath id="clip-932"><path d="M 25.7 25.5 L 37.8 25.5 L 37.8 37.6 L 25.7 37.6 Z M 25.7 25.5 "></path></clipPath><g clip-path="url(#clip-932)"><path d="M 26.7 36.6 L 36.8 36.6 L 36.8 26.5 L 26.7 26.5 Z M 26.7 36.6 " fill="#FEFFFE"></path></g></g><g><clipPath id="clip-933"><path d="M 12.9 8.1 L 25.0 8.1 L 25.0 25.2 L 12.9 25.2 Z M 12.9 8.1 "></path></clipPath><g clip-path="url(#clip-933)"><path d="M 13.9 24.2 L 24.0 24.2 L 24.0 14.1 L 13.9 14.1 Z M 13.9 24.2 " fill="#FEFFFE"></path><image xlink:href="../../A50C2F81-FBA8-4BF5-A081-DAD34535F45C/assets/5046158709B93F757A3A6E2296505AAE.png" width="42.00" height="21.00" transform="matrix(0.24, 0.00, -0.00, -0.24, 13.9, 14.1)"></image></g></g><g><clipPath id="clip-934"><path d="M 25.7 8.1 L 37.8 8.1 L 37.8 25.2 L 25.7 25.2 Z M 25.7 8.1 "></path></clipPath><g clip-path="url(#clip-934)"><path d="M 26.7 24.2 L 36.8 24.2 L 36.8 14.1 L 26.7 14.1 Z M 26.7 24.2 " fill="#FEFFFE"></path><image xlink:href="../../A50C2F81-FBA8-4BF5-A081-DAD34535F45C/assets/5046158709B93F757A3A6E2296505AAE.png" width="42.00" height="21.00" transform="matrix(0.24, 0.00, -0.00, -0.24, 26.7, 14.1)"></image></g></g></g></svg>