<?xml version="1.0" encoding="UTF-8" standalone="no"?><svg xmlns="http://www.w3.org/2000/svg" xmlns:xlink="http://www.w3.org/1999/xlink" clip-rule="evenodd" stroke-miterlimit="4.00" viewBox="0 0 79 80"><desc>SVG generated by Keynote</desc><defs></defs><g transform="matrix(1.00, 0.00, -0.00, -1.00, 0.0, 80.0)"><path d="M 1.1 78.4 L 77.8 78.4 L 77.8 1.6 L 1.1 1.6 Z M 1.1 78.4 " fill="#3F969A"></path><g><clipPath id="clip-455"><path d="M 0.3 1.6 L 78.6 1.6 L 78.6 78.4 L 0.3 78.4 Z M 0.3 1.6 "></path></clipPath><g clip-path="url(#clip-455)"><text xml:space="preserve" font-family="DINCondensed-Bold" font-weight="bold" font-size="19.0" fill="#FFFFFF" transform="matrix(1.00, 0.00, -0.00, -1.00, 25.0, 46.0)">K</text><text xml:space="preserve" font-family="DINCondensed-Bold" font-weight="bold" font-size="19.0" fill="#FFFFFF" transform="matrix(1.00, 0.00, -0.00, -1.00, 33.1, 46.0)">Y</text><text xml:space="preserve" font-family="DINCondensed-Bold" font-weight="bold" font-size="19.0" fill="#FFFFFF" transform="matrix(1.00, 0.00, -0.00, -1.00, 40.5, 46.0)">L</text><text xml:space="preserve" font-family="DINCondensed-Bold" font-weight="bold" font-size="19.0" fill="#FFFFFF" transform="matrix(1.00, 0.00, -0.00, -1.00, 47.5, 46.0)">E</text><text xml:space="preserve" font-family="DINCondensed-Bold" font-weight="bold" font-size="19.0" fill="#FFFFFF" transform="matrix(1.00, 0.00, -0.00, -1.00, 54.5, 46.0)"> </text><text xml:space="preserve" font-family="DINCondensed-Bold" font-weight="bold" font-size="19.0" fill="#FFFFFF" transform="matrix(1.00, 0.00, -0.00, -1.00, 20.0, 26.0)">B</text><text xml:space="preserve" font-family="DINCondensed-Bold" font-weight="bold" font-size="19.0" fill="#FFFFFF" transform="matrix(1.00, 0.00, -0.00, -1.00, 28.1, 26.0)">O</text><text xml:space="preserve" font-family="DINCondensed-Bold" font-weight="bold" font-size="19.0" fill="#FFFFFF" transform="matrix(1.00, 0.00, -0.00, -1.00, 36.2, 26.0)">O</text><text xml:space="preserve" font-family="DINCondensed-Bold" font-weight="bold" font-size="19.0" fill="#FFFFFF" transform="matrix(1.00, 0.00, -0.00, -1.00, 44.1, 26.0)">T</text><text xml:space="preserve" font-family="DINCondensed-Bold" font-weight="bold" font-size="19.0" fill="#FFFFFF" transform="matrix(1.00, 0.00, -0.00, -1.00, 50.4, 26.0)">H</text></g></g></g></svg>