<?xml version="1.0" encoding="UTF-8" standalone="no"?><svg xmlns="http://www.w3.org/2000/svg" xmlns:xlink="http://www.w3.org/1999/xlink" clip-rule="evenodd" stroke-miterlimit="4.00" viewBox="0 0 80 80"><desc>SVG generated by Keynote</desc><defs></defs><g transform="matrix(1.00, 0.00, -0.00, -1.00, 0.0, 80.0)"><path d="M 1.5 78.4 L 78.2 78.4 L 78.2 1.6 L 1.5 1.6 Z M 1.5 78.4 " fill="#C41F60"></path><g><clipPath id="clip-456"><path d="M 0.7 1.6 L 78.9 1.6 L 78.9 78.4 L 0.7 78.4 Z M 0.7 1.6 "></path></clipPath><g clip-path="url(#clip-456)"><text xml:space="preserve" font-family="DINCondensed-Bold" font-weight="bold" font-size="19.0" fill="#FFFFFF" transform="matrix(1.00, 0.00, -0.00, -1.00, 6.0, 46.0)">A</text><text xml:space="preserve" font-family="DINCondensed-Bold" font-weight="bold" font-size="19.0" fill="#FFFFFF" transform="matrix(1.00, 0.00, -0.00, -1.00, 13.7, 46.0)">L</text><text xml:space="preserve" font-family="DINCondensed-Bold" font-weight="bold" font-size="19.0" fill="#FFFFFF" transform="matrix(1.00, 0.00, -0.00, -1.00, 20.8, 46.0)">E</text><text xml:space="preserve" font-family="DINCondensed-Bold" font-weight="bold" font-size="19.0" fill="#FFFFFF" transform="matrix(1.00, 0.00, -0.00, -1.00, 27.8, 46.0)">X</text><text xml:space="preserve" font-family="DINCondensed-Bold" font-weight="bold" font-size="19.0" fill="#FFFFFF" transform="matrix(1.00, 0.00, -0.00, -1.00, 35.2, 46.0)">A</text><text xml:space="preserve" font-family="DINCondensed-Bold" font-weight="bold" font-size="19.0" fill="#FFFFFF" transform="matrix(1.00, 0.00, -0.00, -1.00, 42.9, 46.0)">N</text><text xml:space="preserve" font-family="DINCondensed-Bold" font-weight="bold" font-size="19.0" fill="#FFFFFF" transform="matrix(1.00, 0.00, -0.00, -1.00, 51.4, 46.0)">D</text><text xml:space="preserve" font-family="DINCondensed-Bold" font-weight="bold" font-size="19.0" fill="#FFFFFF" transform="matrix(1.00, 0.00, -0.00, -1.00, 59.4, 46.0)">E</text><text xml:space="preserve" font-family="DINCondensed-Bold" font-weight="bold" font-size="19.0" fill="#FFFFFF" transform="matrix(1.00, 0.00, -0.00, -1.00, 66.5, 46.0)">R</text><text xml:space="preserve" font-family="DINCondensed-Bold" font-weight="bold" font-size="19.0" fill="#FFFFFF" transform="matrix(1.00, 0.00, -0.00, -1.00, 74.6, 46.0)"> </text><text xml:space="preserve" font-family="DINCondensed-Bold" font-weight="bold" font-size="19.0" fill="#FFFFFF" transform="matrix(1.00, 0.00, -0.00, -1.00, 23.0, 26.0)">H</text><text xml:space="preserve" font-family="DINCondensed-Bold" font-weight="bold" font-size="19.0" fill="#FFFFFF" transform="matrix(1.00, 0.00, -0.00, -1.00, 31.1, 26.0)">O</text><text xml:space="preserve" font-family="DINCondensed-Bold" font-weight="bold" font-size="19.0" fill="#FFFFFF" transform="matrix(1.00, 0.00, -0.00, -1.00, 39.2, 26.0)">N</text><text xml:space="preserve" font-family="DINCondensed-Bold" font-weight="bold" font-size="19.0" fill="#FFFFFF" transform="matrix(1.00, 0.00, -0.00, -1.00, 47.6, 26.0)">G</text></g></g></g></svg>