<?xml version="1.0" encoding="UTF-8" standalone="no"?><svg xmlns="http://www.w3.org/2000/svg" xmlns:xlink="http://www.w3.org/1999/xlink" clip-rule="evenodd" stroke-miterlimit="4.00" viewBox="0 0 1024 768"><desc>SVG generated by Keynote</desc><defs></defs><g transform="matrix(1.00, 0.00, -0.00, -1.00, 0.0, 768.0)"><path d="M 0.0 768.0 L 1024.0 768.0 L 1024.0 0.0 L 0.0 0.0 Z M 0.0 768.0 " fill="#212121"></path><path d="M 0.0 0.0 L 960.0 0.0 " fill="none" stroke="#A6AAA9" stroke-width="2.00" transform="matrix(1.00, 0.00, 0.00, -1.00, 32.0, 689.8)"></path><text xml:space="preserve" font-family="LucidaGrande" font-size="33.9" fill="#34A4DA" transform="matrix(1.00, 0.00, -0.00, -1.00, 36.0, 513.2)">▸</text><text xml:space="preserve" font-family="AvenirNext-Medium" font-size="32.3" fill="#FEFFFE" transform="matrix(1.00, 0.00, -0.00, -1.00, 69.0, 516.0)">P</text><text xml:space="preserve" font-family="AvenirNext-Medium" font-size="32.3" fill="#FEFFFE" transform="matrix(1.00, 0.00, -0.00, -1.00, 86.7, 516.0)">r</text><text xml:space="preserve" font-family="AvenirNext-Medium" font-size="32.3" fill="#FEFFFE" transform="matrix(1.00, 0.00, -0.00, -1.00, 98.4, 516.0)">i</text><text xml:space="preserve" font-family="AvenirNext-Medium" font-size="32.3" fill="#FEFFFE" transform="matrix(1.00, 0.00, -0.00, -1.00, 106.8, 516.0)">m</text><text xml:space="preserve" font-family="AvenirNext-Medium" font-size="32.3" fill="#FEFFFE" transform="matrix(1.00, 0.00, -0.00, -1.00, 135.4, 516.0)">a</text><text xml:space="preserve" font-family="AvenirNext-Medium" font-size="32.3" fill="#FEFFFE" transform="matrix(1.00, 0.00, -0.00, -1.00, 152.9, 516.0)">r</text><text xml:space="preserve" font-family="AvenirNext-Medium" font-size="32.3" fill="#FEFFFE" transform="matrix(1.00, 0.00, -0.00, -1.00, 164.6, 516.0)">y</text><text xml:space="preserve" font-family="AvenirNext-Medium" font-size="32.3" fill="#FEFFFE" transform="matrix(1.00, 0.00, -0.00, -1.00, 180.9, 516.0)"> </text><text xml:space="preserve" font-family="AvenirNext-Medium" font-size="32.3" fill="#FEFFFE" transform="matrix(1.00, 0.00, -0.00, -1.00, 189.0, 516.0)">U</text><text xml:space="preserve" font-family="AvenirNext-Medium" font-size="32.3" fill="#FEFFFE" transform="matrix(1.00, 0.00, -0.00, -1.00, 212.0, 516.0)">s</text><text xml:space="preserve" font-family="AvenirNext-Medium" font-size="32.3" fill="#FEFFFE" transform="matrix(1.00, 0.00, -0.00, -1.00, 226.3, 516.0)">e</text><text xml:space="preserve" font-family="AvenirNext-Medium" font-size="32.3" fill="#FEFFFE" transform="matrix(1.00, 0.00, -0.00, -1.00, 244.8, 516.0)">r</text><text xml:space="preserve" font-family="AvenirNext-Medium" font-size="32.3" fill="#FEFFFE" transform="matrix(1.00, 0.00, -0.00, -1.00, 256.5, 516.0)">s</text><text xml:space="preserve" font-family="AvenirNext-Medium" font-size="32.3" fill="#FEFFFE" transform="matrix(1.00, 0.00, -0.00, -1.00, 270.9, 516.0)">:</text><text xml:space="preserve" font-family="AvenirNext-Medium" font-size="32.3" fill="#FEFFFE" transform="matrix(1.00, 0.00, -0.00, -1.00, 280.6, 516.0)"> </text><text xml:space="preserve" font-family="AvenirNext-MediumItalic" font-style="italic" font-size="32.3" fill="#FEFFFE" transform="matrix(1.00, 0.00, -0.00, -1.00, 288.6, 516.0)">H</text><text xml:space="preserve" font-family="AvenirNext-MediumItalic" font-style="italic" font-size="32.3" fill="#FEFFFE" transform="matrix(1.00, 0.00, -0.00, -1.00, 311.9, 516.0)">o</text><text xml:space="preserve" font-family="AvenirNext-MediumItalic" font-style="italic" font-size="32.3" fill="#FEFFFE" transform="matrix(1.00, 0.00, -0.00, -1.00, 331.2, 516.0)">m</text><text xml:space="preserve" font-family="AvenirNext-MediumItalic" font-style="italic" font-size="32.3" fill="#FEFFFE" transform="matrix(1.00, 0.00, -0.00, -1.00, 359.8, 516.0)">e</text><text xml:space="preserve" font-family="AvenirNext-MediumItalic" font-style="italic" font-size="32.3" fill="#FEFFFE" transform="matrix(1.00, 0.00, -0.00, -1.00, 378.0, 516.0)">o</text><text xml:space="preserve" font-family="AvenirNext-MediumItalic" font-style="italic" font-size="32.3" fill="#FEFFFE" transform="matrix(1.00, 0.00, -0.00, -1.00, 397.4, 516.0)">w</text><text xml:space="preserve" font-family="AvenirNext-MediumItalic" font-style="italic" font-size="32.3" fill="#FEFFFE" transform="matrix(1.00, 0.00, -0.00, -1.00, 421.9, 516.0)">n</text><text xml:space="preserve" font-family="AvenirNext-MediumItalic" font-style="italic" font-size="32.3" fill="#FEFFFE" transform="matrix(1.00, 0.00, -0.00, -1.00, 440.7, 516.0)">e</text><text xml:space="preserve" font-family="AvenirNext-MediumItalic" font-style="italic" font-size="32.3" fill="#FEFFFE" transform="matrix(1.00, 0.00, -0.00, -1.00, 459.0, 516.0)">r</text><text xml:space="preserve" font-family="AvenirNext-MediumItalic" font-style="italic" font-size="32.3" fill="#FEFFFE" transform="matrix(1.00, 0.00, -0.00, -1.00, 470.0, 516.0)">s</text><text xml:space="preserve" font-family="AvenirNext-MediumItalic" font-style="italic" font-size="32.3" fill="#FEFFFE" transform="matrix(1.00, 0.00, -0.00, -1.00, 484.4, 516.0)">,</text><text xml:space="preserve" font-family="AvenirNext-MediumItalic" font-style="italic" font-size="32.3" fill="#FEFFFE" transform="matrix(1.00, 0.00, -0.00, -1.00, 491.8, 516.0)"> </text><text xml:space="preserve" font-family="AvenirNext-MediumItalic" font-style="italic" font-size="32.3" fill="#FEFFFE" transform="matrix(1.00, 0.00, -0.00, -1.00, 499.9, 516.0)">P</text><text xml:space="preserve" font-family="AvenirNext-MediumItalic" font-style="italic" font-size="32.3" fill="#FEFFFE" transform="matrix(1.00, 0.00, -0.00, -1.00, 517.6, 516.0)">r</text><text xml:space="preserve" font-family="AvenirNext-MediumItalic" font-style="italic" font-size="32.3" fill="#FEFFFE" transform="matrix(1.00, 0.00, -0.00, -1.00, 528.2, 516.0)">o</text><text xml:space="preserve" font-family="AvenirNext-MediumItalic" font-style="italic" font-size="32.3" fill="#FEFFFE" transform="matrix(1.00, 0.00, -0.00, -1.00, 547.6, 516.0)">p</text><text xml:space="preserve" font-family="AvenirNext-MediumItalic" font-style="italic" font-size="32.3" fill="#FEFFFE" transform="matrix(1.00, 0.00, -0.00, -1.00, 568.0, 516.0)">e</text><text xml:space="preserve" font-family="AvenirNext-MediumItalic" font-style="italic" font-size="32.3" fill="#FEFFFE" transform="matrix(1.00, 0.00, -0.00, -1.00, 586.3, 516.0)">r</text><text xml:space="preserve" font-family="AvenirNext-MediumItalic" font-style="italic" font-size="32.3" fill="#FEFFFE" transform="matrix(1.00, 0.00, -0.00, -1.00, 597.0, 516.0)">t</text><text xml:space="preserve" font-family="AvenirNext-MediumItalic" font-style="italic" font-size="32.3" fill="#FEFFFE" transform="matrix(1.00, 0.00, -0.00, -1.00, 607.4, 516.0)">y</text><text xml:space="preserve" font-family="AvenirNext-MediumItalic" font-style="italic" font-size="32.3" fill="#FEFFFE" transform="matrix(1.00, 0.00, -0.00, -1.00, 623.4, 516.0)"> </text><text xml:space="preserve" font-family="AvenirNext-MediumItalic" font-style="italic" font-size="32.3" fill="#FEFFFE" transform="matrix(1.00, 0.00, -0.00, -1.00, 631.5, 516.0)">o</text><text xml:space="preserve" font-family="AvenirNext-MediumItalic" font-style="italic" font-size="32.3" fill="#FEFFFE" transform="matrix(1.00, 0.00, -0.00, -1.00, 650.9, 516.0)">w</text><text xml:space="preserve" font-family="AvenirNext-MediumItalic" font-style="italic" font-size="32.3" fill="#FEFFFE" transform="matrix(1.00, 0.00, -0.00, -1.00, 675.4, 516.0)">n</text><text xml:space="preserve" font-family="AvenirNext-MediumItalic" font-style="italic" font-size="32.3" fill="#FEFFFE" transform="matrix(1.00, 0.00, -0.00, -1.00, 694.2, 516.0)">e</text><text xml:space="preserve" font-family="AvenirNext-MediumItalic" font-style="italic" font-size="32.3" fill="#FEFFFE" transform="matrix(1.00, 0.00, -0.00, -1.00, 712.4, 516.0)">r</text><text xml:space="preserve" font-family="AvenirNext-MediumItalic" font-style="italic" font-size="32.3" fill="#FEFFFE" transform="matrix(1.00, 0.00, -0.00, -1.00, 723.5, 516.0)">s</text><text xml:space="preserve" font-family="AvenirNext-MediumItalic" font-style="italic" font-size="32.3" fill="#FEFFFE" transform="matrix(1.00, 0.00, -0.00, -1.00, 737.8, 516.0)"> </text><text xml:space="preserve" font-family="LucidaGrande" font-size="33.9" fill="#34A4DA" transform="matrix(1.00, 0.00, -0.00, -1.00, 36.0, 442.6)">▸</text><text xml:space="preserve" font-family="AvenirNext-Medium" font-size="32.3" fill="#FEFFFE" transform="matrix(1.00, 0.00, -0.00, -1.00, 69.0, 445.0)">S</text><text xml:space="preserve" font-family="AvenirNext-Medium" font-size="32.3" fill="#FEFFFE" transform="matrix(1.00, 0.00, -0.00, -1.00, 87.4, 445.0)">e</text><text xml:space="preserve" font-family="AvenirNext-Medium" font-size="32.3" fill="#FEFFFE" transform="matrix(1.00, 0.00, -0.00, -1.00, 105.9, 445.0)">c</text><text xml:space="preserve" font-family="AvenirNext-Medium" font-size="32.3" fill="#FEFFFE" transform="matrix(1.00, 0.00, -0.00, -1.00, 121.8, 445.0)">o</text><text xml:space="preserve" font-family="AvenirNext-Medium" font-size="32.3" fill="#FEFFFE" transform="matrix(1.00, 0.00, -0.00, -1.00, 141.5, 445.0)">n</text><text xml:space="preserve" font-family="AvenirNext-Medium" font-size="32.3" fill="#FEFFFE" transform="matrix(1.00, 0.00, -0.00, -1.00, 160.3, 445.0)">d</text><text xml:space="preserve" font-family="AvenirNext-Medium" font-size="32.3" fill="#FEFFFE" transform="matrix(1.00, 0.00, -0.00, -1.00, 180.9, 445.0)">a</text><text xml:space="preserve" font-family="AvenirNext-Medium" font-size="32.3" fill="#FEFFFE" transform="matrix(1.00, 0.00, -0.00, -1.00, 198.4, 445.0)">r</text><text xml:space="preserve" font-family="AvenirNext-Medium" font-size="32.3" fill="#FEFFFE" transform="matrix(1.00, 0.00, -0.00, -1.00, 210.1, 445.0)">y</text><text xml:space="preserve" font-family="AvenirNext-Medium" font-size="32.3" fill="#FEFFFE" transform="matrix(1.00, 0.00, -0.00, -1.00, 226.3, 445.0)"> </text><text xml:space="preserve" font-family="AvenirNext-Medium" font-size="32.3" fill="#FEFFFE" transform="matrix(1.00, 0.00, -0.00, -1.00, 234.4, 445.0)">U</text><text xml:space="preserve" font-family="AvenirNext-Medium" font-size="32.3" fill="#FEFFFE" transform="matrix(1.00, 0.00, -0.00, -1.00, 257.4, 445.0)">s</text><text xml:space="preserve" font-family="AvenirNext-Medium" font-size="32.3" fill="#FEFFFE" transform="matrix(1.00, 0.00, -0.00, -1.00, 271.7, 445.0)">e</text><text xml:space="preserve" font-family="AvenirNext-Medium" font-size="32.3" fill="#FEFFFE" transform="matrix(1.00, 0.00, -0.00, -1.00, 290.3, 445.0)">r</text><text xml:space="preserve" font-family="AvenirNext-Medium" font-size="32.3" fill="#FEFFFE" transform="matrix(1.00, 0.00, -0.00, -1.00, 301.9, 445.0)">s</text><text xml:space="preserve" font-family="AvenirNext-Medium" font-size="32.3" fill="#FEFFFE" transform="matrix(1.00, 0.00, -0.00, -1.00, 316.3, 445.0)">:</text><text xml:space="preserve" font-family="AvenirNext-Medium" font-size="32.3" fill="#FEFFFE" transform="matrix(1.00, 0.00, -0.00, -1.00, 326.0, 445.0)"> </text><text xml:space="preserve" font-family="AvenirNext-MediumItalic" font-style="italic" font-size="32.3" fill="#FEFFFE" transform="matrix(1.00, 0.00, -0.00, -1.00, 334.1, 445.0)">H</text><text xml:space="preserve" font-family="AvenirNext-MediumItalic" font-style="italic" font-size="32.3" fill="#FEFFFE" transform="matrix(1.00, 0.00, -0.00, -1.00, 357.3, 445.0)">o</text><text xml:space="preserve" font-family="AvenirNext-MediumItalic" font-style="italic" font-size="32.3" fill="#FEFFFE" transform="matrix(1.00, 0.00, -0.00, -1.00, 376.7, 445.0)">u</text><text xml:space="preserve" font-family="AvenirNext-MediumItalic" font-style="italic" font-size="32.3" fill="#FEFFFE" transform="matrix(1.00, 0.00, -0.00, -1.00, 395.4, 445.0)">s</text><text xml:space="preserve" font-family="AvenirNext-MediumItalic" font-style="italic" font-size="32.3" fill="#FEFFFE" transform="matrix(1.00, 0.00, -0.00, -1.00, 409.8, 445.0)">e</text><text xml:space="preserve" font-family="AvenirNext-MediumItalic" font-style="italic" font-size="32.3" fill="#FEFFFE" transform="matrix(1.00, 0.00, -0.00, -1.00, 428.0, 445.0)">h</text><text xml:space="preserve" font-family="AvenirNext-MediumItalic" font-style="italic" font-size="32.3" fill="#FEFFFE" transform="matrix(1.00, 0.00, -0.00, -1.00, 446.8, 445.0)">o</text><text xml:space="preserve" font-family="AvenirNext-MediumItalic" font-style="italic" font-size="32.3" fill="#FEFFFE" transform="matrix(1.00, 0.00, -0.00, -1.00, 466.2, 445.0)">l</text><text xml:space="preserve" font-family="AvenirNext-MediumItalic" font-style="italic" font-size="32.3" fill="#FEFFFE" transform="matrix(1.00, 0.00, -0.00, -1.00, 474.6, 445.0)">d</text><text xml:space="preserve" font-family="AvenirNext-MediumItalic" font-style="italic" font-size="32.3" fill="#FEFFFE" transform="matrix(1.00, 0.00, -0.00, -1.00, 494.8, 445.0)"> </text><text xml:space="preserve" font-family="AvenirNext-MediumItalic" font-style="italic" font-size="32.3" fill="#FEFFFE" transform="matrix(1.00, 0.00, -0.00, -1.00, 502.9, 445.0)">m</text><text xml:space="preserve" font-family="AvenirNext-MediumItalic" font-style="italic" font-size="32.3" fill="#FEFFFE" transform="matrix(1.00, 0.00, -0.00, -1.00, 531.5, 445.0)">e</text><text xml:space="preserve" font-family="AvenirNext-MediumItalic" font-style="italic" font-size="32.3" fill="#FEFFFE" transform="matrix(1.00, 0.00, -0.00, -1.00, 549.7, 445.0)">m</text><text xml:space="preserve" font-family="AvenirNext-MediumItalic" font-style="italic" font-size="32.3" fill="#FEFFFE" transform="matrix(1.00, 0.00, -0.00, -1.00, 578.3, 445.0)">b</text><text xml:space="preserve" font-family="AvenirNext-MediumItalic" font-style="italic" font-size="32.3" fill="#FEFFFE" transform="matrix(1.00, 0.00, -0.00, -1.00, 598.7, 445.0)">e</text><text xml:space="preserve" font-family="AvenirNext-MediumItalic" font-style="italic" font-size="32.3" fill="#FEFFFE" transform="matrix(1.00, 0.00, -0.00, -1.00, 617.0, 445.0)">r</text><text xml:space="preserve" font-family="AvenirNext-MediumItalic" font-style="italic" font-size="32.3" fill="#FEFFFE" transform="matrix(1.00, 0.00, -0.00, -1.00, 628.0, 445.0)">s</text><text xml:space="preserve" font-family="AvenirNext-Medium" font-size="32.3" fill="#FEFFFE" transform="matrix(1.00, 0.00, -0.00, -1.00, 642.4, 445.0)"> </text><text xml:space="preserve" font-family="LucidaGrande" font-size="33.9" fill="#34A4DA" transform="matrix(1.00, 0.00, -0.00, -1.00, 36.0, 230.8)">▸</text><text xml:space="preserve" font-family="AvenirNext-Medium" font-size="32.3" fill="#FEFFFE" transform="matrix(1.00, 0.00, -0.00, -1.00, 69.0, 233.0)">H</text><text xml:space="preserve" font-family="AvenirNext-Medium" font-size="32.3" fill="#FEFFFE" transform="matrix(1.00, 0.00, -0.00, -1.00, 92.5, 233.0)">u</text><text xml:space="preserve" font-family="AvenirNext-Medium" font-size="32.3" fill="#FEFFFE" transform="matrix(1.00, 0.00, -0.00, -1.00, 111.3, 233.0)">m</text><text xml:space="preserve" font-family="AvenirNext-Medium" font-size="32.3" fill="#FEFFFE" transform="matrix(1.00, 0.00, -0.00, -1.00, 140.0, 233.0)">a</text><text xml:space="preserve" font-family="AvenirNext-Medium" font-size="32.3" fill="#FEFFFE" transform="matrix(1.00, 0.00, -0.00, -1.00, 157.5, 233.0)">n</text><text xml:space="preserve" font-family="AvenirNext-Medium" font-size="32.3" fill="#FEFFFE" transform="matrix(1.00, 0.00, -0.00, -1.00, 176.3, 233.0)"> </text><text xml:space="preserve" font-family="AvenirNext-Medium" font-size="32.3" fill="#FEFFFE" transform="matrix(1.00, 0.00, -0.00, -1.00, 184.4, 233.0)">s</text><text xml:space="preserve" font-family="AvenirNext-Medium" font-size="32.3" fill="#FEFFFE" transform="matrix(1.00, 0.00, -0.00, -1.00, 198.7, 233.0)">u</text><text xml:space="preserve" font-family="AvenirNext-Medium" font-size="32.3" fill="#FEFFFE" transform="matrix(1.00, 0.00, -0.00, -1.00, 217.5, 233.0)">p</text><text xml:space="preserve" font-family="AvenirNext-Medium" font-size="32.3" fill="#FEFFFE" transform="matrix(1.00, 0.00, -0.00, -1.00, 238.0, 233.0)">e</text><text xml:space="preserve" font-family="AvenirNext-Medium" font-size="32.3" fill="#FEFFFE" transform="matrix(1.00, 0.00, -0.00, -1.00, 256.5, 233.0)">r</text><text xml:space="preserve" font-family="AvenirNext-Medium" font-size="32.3" fill="#FEFFFE" transform="matrix(1.00, 0.00, -0.00, -1.00, 268.2, 233.0)">v</text><text xml:space="preserve" font-family="AvenirNext-Medium" font-size="32.3" fill="#FEFFFE" transform="matrix(1.00, 0.00, -0.00, -1.00, 284.5, 233.0)">i</text><text xml:space="preserve" font-family="AvenirNext-Medium" font-size="32.3" fill="#FEFFFE" transform="matrix(1.00, 0.00, -0.00, -1.00, 292.8, 233.0)">s</text><text xml:space="preserve" font-family="AvenirNext-Medium" font-size="32.3" fill="#FEFFFE" transform="matrix(1.00, 0.00, -0.00, -1.00, 307.2, 233.0)">o</text><text xml:space="preserve" font-family="AvenirNext-Medium" font-size="32.3" fill="#FEFFFE" transform="matrix(1.00, 0.00, -0.00, -1.00, 326.9, 233.0)">r</text><text xml:space="preserve" font-family="AvenirNext-Medium" font-size="32.3" fill="#FEFFFE" transform="matrix(1.00, 0.00, -0.00, -1.00, 338.6, 233.0)"> </text><text xml:space="preserve" font-family="AvenirNext-Medium" font-size="32.3" fill="#FEFFFE" transform="matrix(1.00, 0.00, -0.00, -1.00, 346.7, 233.0)">w</text><text xml:space="preserve" font-family="AvenirNext-Medium" font-size="32.3" fill="#FEFFFE" transform="matrix(1.00, 0.00, -0.00, -1.00, 371.6, 233.0)">i</text><text xml:space="preserve" font-family="AvenirNext-Medium" font-size="32.3" fill="#FEFFFE" transform="matrix(1.00, 0.00, -0.00, -1.00, 380.0, 233.0)">t</text><text xml:space="preserve" font-family="AvenirNext-Medium" font-size="32.3" fill="#FEFFFE" transform="matrix(1.00, 0.00, -0.00, -1.00, 390.6, 233.0)">h</text><text xml:space="preserve" font-family="AvenirNext-Medium" font-size="32.3" fill="#FEFFFE" transform="matrix(1.00, 0.00, -0.00, -1.00, 409.5, 233.0)"> </text><text xml:space="preserve" font-family="AvenirNext-Medium" font-size="32.3" fill="#FEFFFE" transform="matrix(1.00, 0.00, -0.00, -1.00, 417.5, 233.0)">s</text><text xml:space="preserve" font-family="AvenirNext-Medium" font-size="32.3" fill="#FEFFFE" transform="matrix(1.00, 0.00, -0.00, -1.00, 431.9, 233.0)">i</text><text xml:space="preserve" font-family="AvenirNext-Medium" font-size="32.3" fill="#FEFFFE" transform="matrix(1.00, 0.00, -0.00, -1.00, 440.3, 233.0)">n</text><text xml:space="preserve" font-family="AvenirNext-Medium" font-size="32.3" fill="#FEFFFE" transform="matrix(1.00, 0.00, -0.00, -1.00, 459.1, 233.0)">g</text><text xml:space="preserve" font-family="AvenirNext-Medium" font-size="32.3" fill="#FEFFFE" transform="matrix(1.00, 0.00, -0.00, -1.00, 479.5, 233.0)">l</text><text xml:space="preserve" font-family="AvenirNext-Medium" font-size="32.3" fill="#FEFFFE" transform="matrix(1.00, 0.00, -0.00, -1.00, 487.9, 233.0)">e</text><text xml:space="preserve" font-family="AvenirNext-Medium" font-size="32.3" fill="#FEFFFE" transform="matrix(1.00, 0.00, -0.00, -1.00, 506.4, 233.0)">-</text><text xml:space="preserve" font-family="AvenirNext-Medium" font-size="32.3" fill="#FEFFFE" transform="matrix(1.00, 0.00, -0.00, -1.00, 516.7, 233.0)">a</text><text xml:space="preserve" font-family="AvenirNext-Medium" font-size="32.3" fill="#FEFFFE" transform="matrix(1.00, 0.00, -0.00, -1.00, 534.2, 233.0)">g</text><text xml:space="preserve" font-family="AvenirNext-Medium" font-size="32.3" fill="#FEFFFE" transform="matrix(1.00, 0.00, -0.00, -1.00, 554.6, 233.0)">e</text><text xml:space="preserve" font-family="AvenirNext-Medium" font-size="32.3" fill="#FEFFFE" transform="matrix(1.00, 0.00, -0.00, -1.00, 573.1, 233.0)">n</text><text xml:space="preserve" font-family="AvenirNext-Medium" font-size="32.3" fill="#FEFFFE" transform="matrix(1.00, 0.00, -0.00, -1.00, 591.9, 233.0)">t</text><text xml:space="preserve" font-family="AvenirNext-Medium" font-size="32.3" fill="#FEFFFE" transform="matrix(1.00, 0.00, -0.00, -1.00, 602.6, 233.0)"> </text><text xml:space="preserve" font-family="AvenirNext-Medium" font-size="32.3" fill="#FEFFFE" transform="matrix(1.00, 0.00, -0.00, -1.00, 610.6, 233.0)">r</text><text xml:space="preserve" font-family="AvenirNext-Medium" font-size="32.3" fill="#FEFFFE" transform="matrix(1.00, 0.00, -0.00, -1.00, 621.7, 233.0)">o</text><text xml:space="preserve" font-family="AvenirNext-Medium" font-size="32.3" fill="#FEFFFE" transform="matrix(1.00, 0.00, -0.00, -1.00, 641.5, 233.0)">b</text><text xml:space="preserve" font-family="AvenirNext-Medium" font-size="32.3" fill="#FEFFFE" transform="matrix(1.00, 0.00, -0.00, -1.00, 662.0, 233.0)">o</text><text xml:space="preserve" font-family="AvenirNext-Medium" font-size="32.3" fill="#FEFFFE" transform="matrix(1.00, 0.00, -0.00, -1.00, 681.7, 233.0)">t</text><text xml:space="preserve" font-family="AvenirNext-Medium" font-size="32.3" fill="#FEFFFE" transform="matrix(1.00, 0.00, -0.00, -1.00, 692.3, 233.0)"> </text><text xml:space="preserve" font-family="LucidaGrande" font-size="33.9" fill="#34A4DA" transform="matrix(1.00, 0.00, -0.00, -1.00, 36.0, 160.2)">▸</text><text xml:space="preserve" font-family="AvenirNext-Medium" font-size="32.3" fill="#FEFFFE" transform="matrix(1.00, 0.00, -0.00, -1.00, 69.0, 163.0)">C</text><text xml:space="preserve" font-family="AvenirNext-Medium" font-size="32.3" fill="#FEFFFE" transform="matrix(1.00, 0.00, -0.00, -1.00, 91.5, 163.0)">o</text><text xml:space="preserve" font-family="AvenirNext-Medium" font-size="32.3" fill="#FEFFFE" transform="matrix(1.00, 0.00, -0.00, -1.00, 111.2, 163.0)">m</text><text xml:space="preserve" font-family="AvenirNext-Medium" font-size="32.3" fill="#FEFFFE" transform="matrix(1.00, 0.00, -0.00, -1.00, 139.8, 163.0)">m</text><text xml:space="preserve" font-family="AvenirNext-Medium" font-size="32.3" fill="#FEFFFE" transform="matrix(1.00, 0.00, -0.00, -1.00, 168.5, 163.0)">u</text><text xml:space="preserve" font-family="AvenirNext-Medium" font-size="32.3" fill="#FEFFFE" transform="matrix(1.00, 0.00, -0.00, -1.00, 187.3, 163.0)">n</text><text xml:space="preserve" font-family="AvenirNext-Medium" font-size="32.3" fill="#FEFFFE" transform="matrix(1.00, 0.00, -0.00, -1.00, 206.1, 163.0)">i</text><text xml:space="preserve" font-family="AvenirNext-Medium" font-size="32.3" fill="#FEFFFE" transform="matrix(1.00, 0.00, -0.00, -1.00, 214.4, 163.0)">c</text><text xml:space="preserve" font-family="AvenirNext-Medium" font-size="32.3" fill="#FEFFFE" transform="matrix(1.00, 0.00, -0.00, -1.00, 230.4, 163.0)">a</text><text xml:space="preserve" font-family="AvenirNext-Medium" font-size="32.3" fill="#FEFFFE" transform="matrix(1.00, 0.00, -0.00, -1.00, 247.6, 163.0)">t</text><text xml:space="preserve" font-family="AvenirNext-Medium" font-size="32.3" fill="#FEFFFE" transform="matrix(1.00, 0.00, -0.00, -1.00, 258.2, 163.0)">i</text><text xml:space="preserve" font-family="AvenirNext-Medium" font-size="32.3" fill="#FEFFFE" transform="matrix(1.00, 0.00, -0.00, -1.00, 266.6, 163.0)">o</text><text xml:space="preserve" font-family="AvenirNext-Medium" font-size="32.3" fill="#FEFFFE" transform="matrix(1.00, 0.00, -0.00, -1.00, 286.3, 163.0)">n</text><text xml:space="preserve" font-family="AvenirNext-Medium" font-size="32.3" fill="#FEFFFE" transform="matrix(1.00, 0.00, -0.00, -1.00, 305.1, 163.0)"> </text><text xml:space="preserve" font-family="AvenirNext-Medium" font-size="32.3" fill="#FEFFFE" transform="matrix(1.00, 0.00, -0.00, -1.00, 313.2, 163.0)">u</text><text xml:space="preserve" font-family="AvenirNext-Medium" font-size="32.3" fill="#FEFFFE" transform="matrix(1.00, 0.00, -0.00, -1.00, 332.0, 163.0)">s</text><text xml:space="preserve" font-family="AvenirNext-Medium" font-size="32.3" fill="#FEFFFE" transform="matrix(1.00, 0.00, -0.00, -1.00, 346.3, 163.0)">i</text><text xml:space="preserve" font-family="AvenirNext-Medium" font-size="32.3" fill="#FEFFFE" transform="matrix(1.00, 0.00, -0.00, -1.00, 354.7, 163.0)">n</text><text xml:space="preserve" font-family="AvenirNext-Medium" font-size="32.3" fill="#FEFFFE" transform="matrix(1.00, 0.00, -0.00, -1.00, 373.5, 163.0)">g</text><text xml:space="preserve" font-family="AvenirNext-Medium" font-size="32.3" fill="#FEFFFE" transform="matrix(1.00, 0.00, -0.00, -1.00, 393.9, 163.0)"> </text><text xml:space="preserve" font-family="AvenirNext-Medium" font-size="32.3" fill="#FEFFFE" transform="matrix(1.00, 0.00, -0.00, -1.00, 401.9, 163.0)">a</text><text xml:space="preserve" font-family="AvenirNext-Medium" font-size="32.3" fill="#FEFFFE" transform="matrix(1.00, 0.00, -0.00, -1.00, 419.5, 163.0)"> </text><text xml:space="preserve" font-family="AvenirNext-Medium" font-size="32.3" fill="#FEFFFE" transform="matrix(1.00, 0.00, -0.00, -1.00, 427.5, 163.0)">m</text><text xml:space="preserve" font-family="AvenirNext-Medium" font-size="32.3" fill="#FEFFFE" transform="matrix(1.00, 0.00, -0.00, -1.00, 456.2, 163.0)">o</text><text xml:space="preserve" font-family="AvenirNext-Medium" font-size="32.3" fill="#FEFFFE" transform="matrix(1.00, 0.00, -0.00, -1.00, 475.9, 163.0)">b</text><text xml:space="preserve" font-family="AvenirNext-Medium" font-size="32.3" fill="#FEFFFE" transform="matrix(1.00, 0.00, -0.00, -1.00, 496.4, 163.0)">i</text><text xml:space="preserve" font-family="AvenirNext-Medium" font-size="32.3" fill="#FEFFFE" transform="matrix(1.00, 0.00, -0.00, -1.00, 504.8, 163.0)">l</text><text xml:space="preserve" font-family="AvenirNext-Medium" font-size="32.3" fill="#FEFFFE" transform="matrix(1.00, 0.00, -0.00, -1.00, 513.2, 163.0)">e</text><text xml:space="preserve" font-family="AvenirNext-Medium" font-size="32.3" fill="#FEFFFE" transform="matrix(1.00, 0.00, -0.00, -1.00, 531.7, 163.0)"> </text><text xml:space="preserve" font-family="AvenirNext-Medium" font-size="32.3" fill="#FEFFFE" transform="matrix(1.00, 0.00, -0.00, -1.00, 539.8, 163.0)">/</text><text xml:space="preserve" font-family="AvenirNext-Medium" font-size="32.3" fill="#FEFFFE" transform="matrix(1.00, 0.00, -0.00, -1.00, 552.0, 163.0)"> </text><text xml:space="preserve" font-family="AvenirNext-Medium" font-size="32.3" fill="#FEFFFE" transform="matrix(1.00, 0.00, -0.00, -1.00, 560.1, 163.0)">d</text><text xml:space="preserve" font-family="AvenirNext-Medium" font-size="32.3" fill="#FEFFFE" transform="matrix(1.00, 0.00, -0.00, -1.00, 580.6, 163.0)">e</text><text xml:space="preserve" font-family="AvenirNext-Medium" font-size="32.3" fill="#FEFFFE" transform="matrix(1.00, 0.00, -0.00, -1.00, 599.1, 163.0)">s</text><text xml:space="preserve" font-family="AvenirNext-Medium" font-size="32.3" fill="#FEFFFE" transform="matrix(1.00, 0.00, -0.00, -1.00, 613.5, 163.0)">k</text><text xml:space="preserve" font-family="AvenirNext-Medium" font-size="32.3" fill="#FEFFFE" transform="matrix(1.00, 0.00, -0.00, -1.00, 630.5, 163.0)">t</text><text xml:space="preserve" font-family="AvenirNext-Medium" font-size="32.3" fill="#FEFFFE" transform="matrix(1.00, 0.00, -0.00, -1.00, 641.1, 163.0)">o</text><text xml:space="preserve" font-family="AvenirNext-Medium" font-size="32.3" fill="#FEFFFE" transform="matrix(1.00, 0.00, -0.00, -1.00, 660.8, 163.0)">p</text><text xml:space="preserve" font-family="AvenirNext-Medium" font-size="32.3" fill="#FEFFFE" transform="matrix(1.00, 0.00, -0.00, -1.00, 681.3, 163.0)"> </text><text xml:space="preserve" font-family="AvenirNext-Medium" font-size="32.3" fill="#FEFFFE" transform="matrix(1.00, 0.00, -0.00, -1.00, 689.4, 163.0)">a</text><text xml:space="preserve" font-family="AvenirNext-Medium" font-size="32.3" fill="#FEFFFE" transform="matrix(1.00, 0.00, -0.00, -1.00, 706.9, 163.0)">p</text><text xml:space="preserve" font-family="AvenirNext-Medium" font-size="32.3" fill="#FEFFFE" transform="matrix(1.00, 0.00, -0.00, -1.00, 727.4, 163.0)">p</text><text xml:space="preserve" font-family="AvenirNext-Medium" font-size="32.3" fill="#FEFFFE" transform="matrix(1.00, 0.00, -0.00, -1.00, 747.8, 163.0)"> </text><text xml:space="preserve" font-family="AvenirNext-Medium" font-size="32.3" fill="#FEFFFE" transform="matrix(1.00, 0.00, -0.00, -1.00, 755.9, 163.0)">v</text><text xml:space="preserve" font-family="AvenirNext-Medium" font-size="32.3" fill="#FEFFFE" transform="matrix(1.00, 0.00, -0.00, -1.00, 772.2, 163.0)">i</text><text xml:space="preserve" font-family="AvenirNext-Medium" font-size="32.3" fill="#FEFFFE" transform="matrix(1.00, 0.00, -0.00, -1.00, 780.6, 163.0)">a</text><text xml:space="preserve" font-family="AvenirNext-Medium" font-size="32.3" fill="#FEFFFE" transform="matrix(1.00, 0.00, -0.00, -1.00, 798.1, 163.0)"> </text><text xml:space="preserve" font-family="AvenirNext-Medium" font-size="32.3" fill="#FEFFFE" transform="matrix(1.00, 0.00, -0.00, -1.00, 805.8, 163.0)">W</text><text xml:space="preserve" font-family="AvenirNext-Medium" font-size="32.3" fill="#FEFFFE" transform="matrix(1.00, 0.00, -0.00, -1.00, 837.7, 163.0)">i</text><text xml:space="preserve" font-family="AvenirNext-Medium" font-size="32.3" fill="#FEFFFE" transform="matrix(1.00, 0.00, -0.00, -1.00, 846.0, 163.0)">F</text><text xml:space="preserve" font-family="AvenirNext-Medium" font-size="32.3" fill="#FEFFFE" transform="matrix(1.00, 0.00, -0.00, -1.00, 863.8, 163.0)">i</text><text xml:space="preserve" font-family="AvenirNext-Medium" font-size="32.3" fill="#FEFFFE" transform="matrix(1.00, 0.00, -0.00, -1.00, 872.2, 163.0)"> </text><text xml:space="preserve" font-family="LucidaGrande" font-size="33.9" fill="#34A4DA" transform="matrix(1.00, 0.00, -0.00, -1.00, 36.0, 89.6)">▸</text><text xml:space="preserve" font-family="AvenirNext-Medium" font-size="32.3" fill="#FEFFFE" transform="matrix(1.00, 0.00, -0.00, -1.00, 69.0, 92.0)">U</text><text xml:space="preserve" font-family="AvenirNext-Medium" font-size="32.3" fill="#FEFFFE" transform="matrix(1.00, 0.00, -0.00, -1.00, 92.0, 92.0)">I</text><text xml:space="preserve" font-family="AvenirNext-Medium" font-size="32.3" fill="#FEFFFE" transform="matrix(1.00, 0.00, -0.00, -1.00, 100.8, 92.0)"> </text><text xml:space="preserve" font-family="AvenirNext-Medium" font-size="32.3" fill="#FEFFFE" transform="matrix(1.00, 0.00, -0.00, -1.00, 108.8, 92.0)">h</text><text xml:space="preserve" font-family="AvenirNext-Medium" font-size="32.3" fill="#FEFFFE" transform="matrix(1.00, 0.00, -0.00, -1.00, 127.7, 92.0)">a</text><text xml:space="preserve" font-family="AvenirNext-Medium" font-size="32.3" fill="#FEFFFE" transform="matrix(1.00, 0.00, -0.00, -1.00, 145.2, 92.0)">s</text><text xml:space="preserve" font-family="AvenirNext-Medium" font-size="32.3" fill="#FEFFFE" transform="matrix(1.00, 0.00, -0.00, -1.00, 159.5, 92.0)"> </text><text xml:space="preserve" font-family="AvenirNext-Medium" font-size="32.3" fill="#FEFFFE" transform="matrix(1.00, 0.00, -0.00, -1.00, 167.6, 92.0)">e</text><text xml:space="preserve" font-family="AvenirNext-Medium" font-size="32.3" fill="#FEFFFE" transform="matrix(1.00, 0.00, -0.00, -1.00, 186.1, 92.0)">m</text><text xml:space="preserve" font-family="AvenirNext-Medium" font-size="32.3" fill="#FEFFFE" transform="matrix(1.00, 0.00, -0.00, -1.00, 214.8, 92.0)">e</text><text xml:space="preserve" font-family="AvenirNext-Medium" font-size="32.3" fill="#FEFFFE" transform="matrix(1.00, 0.00, -0.00, -1.00, 233.3, 92.0)">r</text><text xml:space="preserve" font-family="AvenirNext-Medium" font-size="32.3" fill="#FEFFFE" transform="matrix(1.00, 0.00, -0.00, -1.00, 244.4, 92.0)">g</text><text xml:space="preserve" font-family="AvenirNext-Medium" font-size="32.3" fill="#FEFFFE" transform="matrix(1.00, 0.00, -0.00, -1.00, 264.8, 92.0)">e</text><text xml:space="preserve" font-family="AvenirNext-Medium" font-size="32.3" fill="#FEFFFE" transform="matrix(1.00, 0.00, -0.00, -1.00, 283.3, 92.0)">n</text><text xml:space="preserve" font-family="AvenirNext-Medium" font-size="32.3" fill="#FEFFFE" transform="matrix(1.00, 0.00, -0.00, -1.00, 302.1, 92.0)">c</text><text xml:space="preserve" font-family="AvenirNext-Medium" font-size="32.3" fill="#FEFFFE" transform="matrix(1.00, 0.00, -0.00, -1.00, 318.1, 92.0)">y</text><text xml:space="preserve" font-family="AvenirNext-Medium" font-size="32.3" fill="#FEFFFE" transform="matrix(1.00, 0.00, -0.00, -1.00, 334.3, 92.0)"> </text><text xml:space="preserve" font-family="AvenirNext-Medium" font-size="32.3" fill="#FEFFFE" transform="matrix(1.00, 0.00, -0.00, -1.00, 342.4, 92.0)">s</text><text xml:space="preserve" font-family="AvenirNext-Medium" font-size="32.3" fill="#FEFFFE" transform="matrix(1.00, 0.00, -0.00, -1.00, 356.8, 92.0)">t</text><text xml:space="preserve" font-family="AvenirNext-Medium" font-size="32.3" fill="#FEFFFE" transform="matrix(1.00, 0.00, -0.00, -1.00, 367.4, 92.0)">o</text><text xml:space="preserve" font-family="AvenirNext-Medium" font-size="32.3" fill="#FEFFFE" transform="matrix(1.00, 0.00, -0.00, -1.00, 387.1, 92.0)">p</text><text xml:space="preserve" font-family="AvenirNext-Medium" font-size="32.3" fill="#FEFFFE" transform="matrix(1.00, 0.00, -0.00, -1.00, 407.2, 92.0)">,</text><text xml:space="preserve" font-family="AvenirNext-Medium" font-size="32.3" fill="#FEFFFE" transform="matrix(1.00, 0.00, -0.00, -1.00, 414.6, 92.0)"> </text><text xml:space="preserve" font-family="AvenirNext-Medium" font-size="32.3" fill="#FEFFFE" transform="matrix(1.00, 0.00, -0.00, -1.00, 422.7, 92.0)">a</text><text xml:space="preserve" font-family="AvenirNext-Medium" font-size="32.3" fill="#FEFFFE" transform="matrix(1.00, 0.00, -0.00, -1.00, 440.2, 92.0)">n</text><text xml:space="preserve" font-family="AvenirNext-Medium" font-size="32.3" fill="#FEFFFE" transform="matrix(1.00, 0.00, -0.00, -1.00, 459.0, 92.0)">d</text><text xml:space="preserve" font-family="AvenirNext-Medium" font-size="32.3" fill="#FEFFFE" transform="matrix(1.00, 0.00, -0.00, -1.00, 479.5, 92.0)"> </text><text xml:space="preserve" font-family="AvenirNext-Medium" font-size="32.3" fill="#FEFFFE" transform="matrix(1.00, 0.00, -0.00, -1.00, 487.6, 92.0)">c</text><text xml:space="preserve" font-family="AvenirNext-Medium" font-size="32.3" fill="#FEFFFE" transform="matrix(1.00, 0.00, -0.00, -1.00, 503.5, 92.0)">o</text><text xml:space="preserve" font-family="AvenirNext-Medium" font-size="32.3" fill="#FEFFFE" transform="matrix(1.00, 0.00, -0.00, -1.00, 523.2, 92.0)">n</text><text xml:space="preserve" font-family="AvenirNext-Medium" font-size="32.3" fill="#FEFFFE" transform="matrix(1.00, 0.00, -0.00, -1.00, 542.0, 92.0)">t</text><text xml:space="preserve" font-family="AvenirNext-Medium" font-size="32.3" fill="#FEFFFE" transform="matrix(1.00, 0.00, -0.00, -1.00, 552.7, 92.0)">a</text><text xml:space="preserve" font-family="AvenirNext-Medium" font-size="32.3" fill="#FEFFFE" transform="matrix(1.00, 0.00, -0.00, -1.00, 570.2, 92.0)">c</text><text xml:space="preserve" font-family="AvenirNext-Medium" font-size="32.3" fill="#FEFFFE" transform="matrix(1.00, 0.00, -0.00, -1.00, 586.1, 92.0)">t</text><text xml:space="preserve" font-family="AvenirNext-Medium" font-size="32.3" fill="#FEFFFE" transform="matrix(1.00, 0.00, -0.00, -1.00, 596.7, 92.0)"> </text><text xml:space="preserve" font-family="AvenirNext-Medium" font-size="32.3" fill="#FEFFFE" transform="matrix(1.00, 0.00, -0.00, -1.00, 604.8, 92.0)">f</text><text xml:space="preserve" font-family="AvenirNext-Medium" font-size="32.3" fill="#FEFFFE" transform="matrix(1.00, 0.00, -0.00, -1.00, 614.8, 92.0)">o</text><text xml:space="preserve" font-family="AvenirNext-Medium" font-size="32.3" fill="#FEFFFE" transform="matrix(1.00, 0.00, -0.00, -1.00, 634.5, 92.0)">r</text><text xml:space="preserve" font-family="AvenirNext-Medium" font-size="32.3" fill="#FEFFFE" transform="matrix(1.00, 0.00, -0.00, -1.00, 646.2, 92.0)"> </text><text xml:space="preserve" font-family="AvenirNext-Medium" font-size="32.3" fill="#FEFFFE" transform="matrix(1.00, 0.00, -0.00, -1.00, 654.3, 92.0)">s</text><text xml:space="preserve" font-family="AvenirNext-Medium" font-size="32.3" fill="#FEFFFE" transform="matrix(1.00, 0.00, -0.00, -1.00, 668.6, 92.0)">u</text><text xml:space="preserve" font-family="AvenirNext-Medium" font-size="32.3" fill="#FEFFFE" transform="matrix(1.00, 0.00, -0.00, -1.00, 687.4, 92.0)">p</text><text xml:space="preserve" font-family="AvenirNext-Medium" font-size="32.3" fill="#FEFFFE" transform="matrix(1.00, 0.00, -0.00, -1.00, 707.9, 92.0)">p</text><text xml:space="preserve" font-family="AvenirNext-Medium" font-size="32.3" fill="#FEFFFE" transform="matrix(1.00, 0.00, -0.00, -1.00, 728.4, 92.0)">o</text><text xml:space="preserve" font-family="AvenirNext-Medium" font-size="32.3" fill="#FEFFFE" transform="matrix(1.00, 0.00, -0.00, -1.00, 748.1, 92.0)">r</text><text xml:space="preserve" font-family="AvenirNext-Medium" font-size="32.3" fill="#FEFFFE" transform="matrix(1.00, 0.00, -0.00, -1.00, 759.4, 92.0)">t</text><text xml:space="preserve" font-family="DINAlternate-Bold" font-weight="bold" font-size="24.0" fill="#838686" transform="matrix(1.00, 0.00, -0.00, -1.00, 36.0, 705.0)">A</text><text xml:space="preserve" font-family="DINAlternate-Bold" font-weight="bold" font-size="24.0" fill="#838686" transform="matrix(1.00, 0.00, -0.00, -1.00, 51.4, 705.0)">U</text><text xml:space="preserve" font-family="DINAlternate-Bold" font-weight="bold" font-size="24.0" fill="#838686" transform="matrix(1.00, 0.00, -0.00, -1.00, 67.7, 705.0)">S</text><text xml:space="preserve" font-family="DINAlternate-Bold" font-weight="bold" font-size="24.0" fill="#838686" transform="matrix(1.00, 0.00, -0.00, -1.00, 82.7, 705.0)">O</text><text xml:space="preserve" font-family="DINAlternate-Bold" font-weight="bold" font-size="24.0" fill="#838686" transform="matrix(1.00, 0.00, -0.00, -1.00, 98.5, 705.0)">M</text><text xml:space="preserve" font-family="DINCondensed-Bold" font-weight="bold" font-size="48.0" fill="#34A4DA" transform="matrix(1.00, 0.00, -0.00, -1.00, 36.0, 608.0)">U</text><text xml:space="preserve" font-family="DINCondensed-Bold" font-weight="bold" font-size="48.0" fill="#34A4DA" transform="matrix(1.00, 0.00, -0.00, -1.00, 56.4, 608.0)">S</text><text xml:space="preserve" font-family="DINCondensed-Bold" font-weight="bold" font-size="48.0" fill="#34A4DA" transform="matrix(1.00, 0.00, -0.00, -1.00, 75.9, 608.0)">E</text><text xml:space="preserve" font-family="DINCondensed-Bold" font-weight="bold" font-size="48.0" fill="#34A4DA" transform="matrix(1.00, 0.00, -0.00, -1.00, 93.7, 608.0)">R</text><text xml:space="preserve" font-family="DINCondensed-Bold" font-weight="bold" font-size="48.0" fill="#34A4DA" transform="matrix(1.00, 0.00, -0.00, -1.00, 114.1, 608.0)"> </text><text xml:space="preserve" font-family="DINCondensed-Bold" font-weight="bold" font-size="48.0" fill="#34A4DA" transform="matrix(1.00, 0.00, -0.00, -1.00, 123.1, 608.0)">I</text><text xml:space="preserve" font-family="DINCondensed-Bold" font-weight="bold" font-size="48.0" fill="#34A4DA" transform="matrix(1.00, 0.00, -0.00, -1.00, 132.9, 608.0)">N</text><text xml:space="preserve" font-family="DINCondensed-Bold" font-weight="bold" font-size="48.0" fill="#34A4DA" transform="matrix(1.00, 0.00, -0.00, -1.00, 154.2, 608.0)">T</text><text xml:space="preserve" font-family="DINCondensed-Bold" font-weight="bold" font-size="48.0" fill="#34A4DA" transform="matrix(1.00, 0.00, -0.00, -1.00, 170.1, 608.0)">E</text><text xml:space="preserve" font-family="DINCondensed-Bold" font-weight="bold" font-size="48.0" fill="#34A4DA" transform="matrix(1.00, 0.00, -0.00, -1.00, 187.9, 608.0)">R</text><text xml:space="preserve" font-family="DINCondensed-Bold" font-weight="bold" font-size="48.0" fill="#34A4DA" transform="matrix(1.00, 0.00, -0.00, -1.00, 208.3, 608.0)">A</text><text xml:space="preserve" font-family="DINCondensed-Bold" font-weight="bold" font-size="48.0" fill="#34A4DA" transform="matrix(1.00, 0.00, -0.00, -1.00, 227.9, 608.0)">C</text><text xml:space="preserve" font-family="DINCondensed-Bold" font-weight="bold" font-size="48.0" fill="#34A4DA" transform="matrix(1.00, 0.00, -0.00, -1.00, 247.4, 608.0)">T</text><text xml:space="preserve" font-family="DINCondensed-Bold" font-weight="bold" font-size="48.0" fill="#34A4DA" transform="matrix(1.00, 0.00, -0.00, -1.00, 263.3, 608.0)">I</text><text xml:space="preserve" font-family="DINCondensed-Bold" font-weight="bold" font-size="48.0" fill="#34A4DA" transform="matrix(1.00, 0.00, -0.00, -1.00, 273.1, 608.0)">O</text><text xml:space="preserve" font-family="DINCondensed-Bold" font-weight="bold" font-size="48.0" fill="#34A4DA" transform="matrix(1.00, 0.00, -0.00, -1.00, 293.6, 608.0)">N</text><image xlink:href="../../530E9AF0-43D7-4833-AF5F-F344C0C97C42/assets/545E40E0C163CE7F6FF15AD7D02EE66B.png" width="443.00" height="332.00" transform="matrix(0.54, 0.00, -0.00, -0.54, 790.0, 168.0)"></image><path d="M 405.7 384.3 C 429.4 360.7 429.4 322.4 405.7 298.7 C 382.1 275.1 343.8 275.1 320.1 298.7 C 296.5 322.4 296.5 360.7 320.1 384.3 C 343.8 408.0 382.1 408.0 405.7 384.3 Z M 405.7 384.3 " fill="#34A4DA"></path><g><clipPath id="clip-173"><path d="M 302.4 281.0 L 423.5 281.0 L 423.5 402.1 L 302.4 402.1 Z M 302.4 281.0 "></path></clipPath><g clip-path="url(#clip-173)"><text xml:space="preserve" font-family="DINCondensed-Bold" font-weight="bold" font-size="28.0" fill="#FFFFFF" transform="matrix(1.00, 0.00, -0.00, -1.00, 331.0, 347.0)">H</text><text xml:space="preserve" font-family="DINCondensed-Bold" font-weight="bold" font-size="28.0" fill="#FFFFFF" transform="matrix(1.00, 0.00, -0.00, -1.00, 342.9, 347.0)">U</text><text xml:space="preserve" font-family="DINCondensed-Bold" font-weight="bold" font-size="28.0" fill="#FFFFFF" transform="matrix(1.00, 0.00, -0.00, -1.00, 354.9, 347.0)">M</text><text xml:space="preserve" font-family="DINCondensed-Bold" font-weight="bold" font-size="28.0" fill="#FFFFFF" transform="matrix(1.00, 0.00, -0.00, -1.00, 370.4, 347.0)">A</text><text xml:space="preserve" font-family="DINCondensed-Bold" font-weight="bold" font-size="28.0" fill="#FFFFFF" transform="matrix(1.00, 0.00, -0.00, -1.00, 381.8, 347.0)">N</text><text xml:space="preserve" font-family="DINCondensed-Bold" font-weight="bold" font-size="28.0" fill="#FFFFFF" transform="matrix(1.00, 0.00, -0.00, -1.00, 394.3, 347.0)"> </text><text xml:space="preserve" font-family="DINCondensed-Bold" font-weight="bold" font-size="19.0" fill="#FFFFFF" transform="matrix(1.00, 0.00, -0.00, -1.00, 322.0, 325.0)">(</text><text xml:space="preserve" font-family="DINCondensed-Bold" font-weight="bold" font-size="19.0" fill="#FFFFFF" transform="matrix(1.00, 0.00, -0.00, -1.00, 326.2, 325.0)">S</text><text xml:space="preserve" font-family="DINCondensed-Bold" font-weight="bold" font-size="19.0" fill="#FFFFFF" transform="matrix(1.00, 0.00, -0.00, -1.00, 333.9, 325.0)">U</text><text xml:space="preserve" font-family="DINCondensed-Bold" font-weight="bold" font-size="19.0" fill="#FFFFFF" transform="matrix(1.00, 0.00, -0.00, -1.00, 342.0, 325.0)">P</text><text xml:space="preserve" font-family="DINCondensed-Bold" font-weight="bold" font-size="19.0" fill="#FFFFFF" transform="matrix(1.00, 0.00, -0.00, -1.00, 349.8, 325.0)">E</text><text xml:space="preserve" font-family="DINCondensed-Bold" font-weight="bold" font-size="19.0" fill="#FFFFFF" transform="matrix(1.00, 0.00, -0.00, -1.00, 356.8, 325.0)">R</text><text xml:space="preserve" font-family="DINCondensed-Bold" font-weight="bold" font-size="19.0" fill="#FFFFFF" transform="matrix(1.00, 0.00, -0.00, -1.00, 364.9, 325.0)">V</text><text xml:space="preserve" font-family="DINCondensed-Bold" font-weight="bold" font-size="19.0" fill="#FFFFFF" transform="matrix(1.00, 0.00, -0.00, -1.00, 372.6, 325.0)">I</text><text xml:space="preserve" font-family="DINCondensed-Bold" font-weight="bold" font-size="19.0" fill="#FFFFFF" transform="matrix(1.00, 0.00, -0.00, -1.00, 376.5, 325.0)">S</text><text xml:space="preserve" font-family="DINCondensed-Bold" font-weight="bold" font-size="19.0" fill="#FFFFFF" transform="matrix(1.00, 0.00, -0.00, -1.00, 384.2, 325.0)">O</text><text xml:space="preserve" font-family="DINCondensed-Bold" font-weight="bold" font-size="19.0" fill="#FFFFFF" transform="matrix(1.00, 0.00, -0.00, -1.00, 392.3, 325.0)">R</text><text xml:space="preserve" font-family="DINCondensed-Bold" font-weight="bold" font-size="19.0" fill="#FFFFFF" transform="matrix(1.00, 0.00, -0.00, -1.00, 400.4, 325.0)">)</text></g></g><path d="M 676.2 384.3 C 699.8 360.7 699.8 322.4 676.2 298.7 C 652.5 275.1 614.2 275.1 590.5 298.7 C 566.9 322.4 566.9 360.7 590.5 384.3 C 614.2 408.0 652.5 408.0 676.2 384.3 Z M 676.2 384.3 " fill="#FDCA55"></path><g><clipPath id="clip-174"><path d="M 572.8 281.0 L 693.9 281.0 L 693.9 402.1 L 572.8 402.1 Z M 572.8 281.0 "></path></clipPath><g clip-path="url(#clip-174)"><text xml:space="preserve" font-family="DINCondensed-Bold" font-weight="bold" font-size="28.0" fill="#222222" transform="matrix(1.00, 0.00, -0.00, -1.00, 602.0, 352.0)">A</text><text xml:space="preserve" font-family="DINCondensed-Bold" font-weight="bold" font-size="28.0" fill="#222222" transform="matrix(1.00, 0.00, -0.00, -1.00, 613.4, 352.0)">U</text><text xml:space="preserve" font-family="DINCondensed-Bold" font-weight="bold" font-size="28.0" fill="#222222" transform="matrix(1.00, 0.00, -0.00, -1.00, 625.3, 352.0)">S</text><text xml:space="preserve" font-family="DINCondensed-Bold" font-weight="bold" font-size="28.0" fill="#222222" transform="matrix(1.00, 0.00, -0.00, -1.00, 636.7, 352.0)">O</text><text xml:space="preserve" font-family="DINCondensed-Bold" font-weight="bold" font-size="28.0" fill="#222222" transform="matrix(1.00, 0.00, -0.00, -1.00, 648.6, 352.0)">M</text><text xml:space="preserve" font-family="DINCondensed-Bold" font-weight="bold" font-size="28.0" fill="#222222" transform="matrix(1.00, 0.00, -0.00, -1.00, 664.2, 352.0)"> </text><text xml:space="preserve" font-family="DINCondensed-Bold" font-weight="bold" font-size="28.0" fill="#222222" transform="matrix(1.00, 0.00, -0.00, -1.00, 605.0, 324.0)">R</text><text xml:space="preserve" font-family="DINCondensed-Bold" font-weight="bold" font-size="28.0" fill="#222222" transform="matrix(1.00, 0.00, -0.00, -1.00, 616.9, 324.0)">O</text><text xml:space="preserve" font-family="DINCondensed-Bold" font-weight="bold" font-size="28.0" fill="#222222" transform="matrix(1.00, 0.00, -0.00, -1.00, 628.9, 324.0)">B</text><text xml:space="preserve" font-family="DINCondensed-Bold" font-weight="bold" font-size="28.0" fill="#222222" transform="matrix(1.00, 0.00, -0.00, -1.00, 640.8, 324.0)">O</text><text xml:space="preserve" font-family="DINCondensed-Bold" font-weight="bold" font-size="28.0" fill="#222222" transform="matrix(1.00, 0.00, -0.00, -1.00, 652.4, 324.0)">T</text></g></g><path d="M 17.9 0.0 L 20.4 0.0 L 130.6 0.0 L 133.1 0.0 " fill="none" stroke="#FE5691" stroke-width="5.00" transform="matrix(1.00, 0.00, 0.00, -1.00, 423.1, 341.5)"></path><path d="M 553.7 331.3 L 574.1 341.5 L 553.7 351.7 Z M 553.7 331.3 " fill="#FE5691"></path><path d="M 443.5 351.7 L 423.1 341.5 L 443.5 331.3 Z M 443.5 351.7 " fill="#FE5691"></path></g></svg>