<?xml version="1.0" encoding="UTF-8" standalone="no"?><svg xmlns="http://www.w3.org/2000/svg" xmlns:xlink="http://www.w3.org/1999/xlink" clip-rule="evenodd" stroke-miterlimit="4.00" viewBox="0 0 440 77"><desc>SVG generated by Keynote</desc><defs></defs><g transform="matrix(1.00, 0.00, -0.00, -1.00, 0.0, 77.0)"><g><clipPath id="clip-17"><path d="M 0.2 0.1 L 77.2 0.1 L 77.2 76.7 L 0.2 76.7 Z M 0.2 0.1 "></path></clipPath><g clip-path="url(#clip-17)"><path d="M 1.2 75.7 L 76.2 75.7 L 76.2 1.1 L 1.2 1.1 Z M 1.2 75.7 " fill="#34A4DA"></path></g></g><g><clipPath id="clip-18"><path d="M 0.0 4.7 L 89.9 4.7 L 89.9 71.7 L 0.0 71.7 Z M 0.0 4.7 "></path></clipPath><g clip-path="url(#clip-18)"><text xml:space="preserve" font-family="DINCondensed-Bold" font-weight="bold" font-size="71.0" fill="#FFFFFF" transform="matrix(1.00, 0.00, -0.00, -1.00, 26.0, 21.0)">a</text></g></g><g><clipPath id="clip-19"><path d="M 90.9 0.1 L 167.8 0.1 L 167.8 76.7 L 90.9 76.7 Z M 90.9 0.1 "></path></clipPath><g clip-path="url(#clip-19)"><path d="M 91.9 75.7 L 166.8 75.7 L 166.8 1.1 L 91.9 1.1 Z M 91.9 75.7 " fill="#34A4DA"></path></g></g><g><clipPath id="clip-20"><path d="M 78.1 4.7 L 180.6 4.7 L 180.6 71.7 L 78.1 71.7 Z M 78.1 4.7 "></path></clipPath><g clip-path="url(#clip-20)"><text xml:space="preserve" font-family="DINCondensed-Bold" font-weight="bold" font-size="71.0" fill="#FFFFFF" transform="matrix(1.00, 0.00, -0.00, -1.00, 116.0, 21.0)">u</text></g></g><g><clipPath id="clip-21"><path d="M 181.5 0.1 L 258.5 0.1 L 258.5 76.7 L 181.5 76.7 Z M 181.5 0.1 "></path></clipPath><g clip-path="url(#clip-21)"><path d="M 182.5 75.7 L 257.5 75.7 L 257.5 1.1 L 182.5 1.1 Z M 182.5 75.7 " fill="#34A4DA"></path></g></g><g><clipPath id="clip-22"><path d="M 168.8 4.7 L 271.2 4.7 L 271.2 71.7 L 168.8 71.7 Z M 168.8 4.7 "></path></clipPath><g clip-path="url(#clip-22)"><text xml:space="preserve" font-family="DINCondensed-Bold" font-weight="bold" font-size="71.0" fill="#FFFFFF" transform="matrix(1.00, 0.00, -0.00, -1.00, 208.0, 21.0)">s</text></g></g><g><clipPath id="clip-23"><path d="M 272.2 0.1 L 349.1 0.1 L 349.1 76.7 L 272.2 76.7 Z M 272.2 0.1 "></path></clipPath><g clip-path="url(#clip-23)"><path d="M 273.2 75.7 L 348.1 75.7 L 348.1 1.1 L 273.2 1.1 Z M 273.2 75.7 " fill="#34A4DA"></path></g></g><g><clipPath id="clip-24"><path d="M 259.4 4.7 L 361.9 4.7 L 361.9 71.7 L 259.4 71.7 Z M 259.4 4.7 "></path></clipPath><g clip-path="url(#clip-24)"><text xml:space="preserve" font-family="DINCondensed-Bold" font-weight="bold" font-size="71.0" fill="#FFFFFF" transform="matrix(1.00, 0.00, -0.00, -1.00, 298.0, 21.0)">o</text></g></g><g><clipPath id="clip-25"><path d="M 362.8 0.1 L 439.8 0.1 L 439.8 76.7 L 362.8 76.7 Z M 362.8 0.1 "></path></clipPath><g clip-path="url(#clip-25)"><path d="M 363.8 75.7 L 438.8 75.7 L 438.8 1.1 L 363.8 1.1 Z M 363.8 75.7 " fill="#34A4DA"></path></g></g><g><clipPath id="clip-26"><path d="M 350.1 4.7 L 440.0 4.7 L 440.0 71.7 L 350.1 71.7 Z M 350.1 4.7 "></path></clipPath><g clip-path="url(#clip-26)"><text xml:space="preserve" font-family="DINCondensed-Bold" font-weight="bold" font-size="71.0" fill="#FFFFFF" transform="matrix(1.00, 0.00, -0.00, -1.00, 380.0, 21.0)">m</text></g></g></g></svg>