<?xml version="1.0" encoding="UTF-8" standalone="no"?><svg xmlns="http://www.w3.org/2000/svg" xmlns:xlink="http://www.w3.org/1999/xlink" clip-rule="evenodd" stroke-miterlimit="4.00" viewBox="0 0 1024 768"><desc>SVG generated by Keynote</desc><defs><pattern id="E40699E7-5DFB-4BDD-B9ED-0AEBD01B0FD0" patternUnits="userSpaceOnUse" width="266" height="266" viewBox="0 0 266 266" patternTransform="matrix(0.627819, 0.000000, 0.000000, -0.627819, 424.790100, 96.007690)"><image xlink:href="../../3FB1384B-AF7D-403E-9052-01D9E7CFA740/assets/A5964C14CBB6E4C1993E6E7CF3004B8E.jpeg" width="266.00" height="266.00"></image></pattern></defs><g transform="matrix(1.00, 0.00, -0.00, -1.00, 0.0, 768.0)"><path d="M 0.0 768.0 L 1024.0 768.0 L 1024.0 0.0 L 0.0 0.0 Z M 0.0 768.0 " fill="#212121"></path><path d="M 0.0 0.0 L 960.0 0.0 " fill="none" stroke="#A6AAA9" stroke-width="2.00" transform="matrix(1.00, 0.00, 0.00, -1.00, 32.0, 689.8)"></path><image xlink:href="../../3FB1384B-AF7D-403E-9052-01D9E7CFA740/assets/CAE567D90CA8D19DFF287B73871BCF2C.png" width="514.00" height="342.00" transform="matrix(1.00, 0.00, -0.00, -1.00, 396.0, 659.0)"></image><text xml:space="preserve" font-family="DINAlternate-Bold" font-weight="bold" font-size="24.0" fill="#838686" transform="matrix(1.00, 0.00, -0.00, -1.00, 36.0, 705.0)">A</text><text xml:space="preserve" font-family="DINAlternate-Bold" font-weight="bold" font-size="24.0" fill="#838686" transform="matrix(1.00, 0.00, -0.00, -1.00, 51.4, 705.0)">U</text><text xml:space="preserve" font-family="DINAlternate-Bold" font-weight="bold" font-size="24.0" fill="#838686" transform="matrix(1.00, 0.00, -0.00, -1.00, 67.7, 705.0)">S</text><text xml:space="preserve" font-family="DINAlternate-Bold" font-weight="bold" font-size="24.0" fill="#838686" transform="matrix(1.00, 0.00, -0.00, -1.00, 82.7, 705.0)">O</text><text xml:space="preserve" font-family="DINAlternate-Bold" font-weight="bold" font-size="24.0" fill="#838686" transform="matrix(1.00, 0.00, -0.00, -1.00, 98.5, 705.0)">M</text><text xml:space="preserve" font-family="DINCondensed-Bold" font-weight="bold" font-size="48.0" fill="#34A4DA" transform="matrix(1.00, 0.00, -0.00, -1.00, 36.0, 608.0)">T</text><text xml:space="preserve" font-family="DINCondensed-Bold" font-weight="bold" font-size="48.0" fill="#34A4DA" transform="matrix(1.00, 0.00, -0.00, -1.00, 51.9, 608.0)">H</text><text xml:space="preserve" font-family="DINCondensed-Bold" font-weight="bold" font-size="48.0" fill="#34A4DA" transform="matrix(1.00, 0.00, -0.00, -1.00, 72.4, 608.0)">E</text><text xml:space="preserve" font-family="DINCondensed-Bold" font-weight="bold" font-size="48.0" fill="#34A4DA" transform="matrix(1.00, 0.00, -0.00, -1.00, 90.1, 608.0)"> </text><text xml:space="preserve" font-family="DINCondensed-Bold" font-weight="bold" font-size="48.0" fill="#34A4DA" transform="matrix(1.00, 0.00, -0.00, -1.00, 99.1, 608.0)">R</text><text xml:space="preserve" font-family="DINCondensed-Bold" font-weight="bold" font-size="48.0" fill="#34A4DA" transform="matrix(1.00, 0.00, -0.00, -1.00, 119.5, 608.0)">O</text><text xml:space="preserve" font-family="DINCondensed-Bold" font-weight="bold" font-size="48.0" fill="#34A4DA" transform="matrix(1.00, 0.00, -0.00, -1.00, 140.0, 608.0)">B</text><text xml:space="preserve" font-family="DINCondensed-Bold" font-weight="bold" font-size="48.0" fill="#34A4DA" transform="matrix(1.00, 0.00, -0.00, -1.00, 160.4, 608.0)">O</text><text xml:space="preserve" font-family="DINCondensed-Bold" font-weight="bold" font-size="48.0" fill="#34A4DA" transform="matrix(1.00, 0.00, -0.00, -1.00, 180.3, 608.0)">T</text><text xml:space="preserve" font-family="DINCondensed-Bold" font-weight="bold" font-size="48.0" fill="#34A4DA" transform="matrix(1.00, 0.00, -0.00, -1.00, 196.2, 608.0)"> </text><text xml:space="preserve" font-family="DINCondensed-Bold" font-weight="bold" font-size="48.0" fill="#34A4DA" transform="matrix(1.00, 0.00, -0.00, -1.00, 205.2, 608.0)">S</text><text xml:space="preserve" font-family="DINCondensed-Bold" font-weight="bold" font-size="48.0" fill="#34A4DA" transform="matrix(1.00, 0.00, -0.00, -1.00, 224.6, 608.0)">O</text><text xml:space="preserve" font-family="DINCondensed-Bold" font-weight="bold" font-size="48.0" fill="#34A4DA" transform="matrix(1.00, 0.00, -0.00, -1.00, 245.1, 608.0)">L</text><text xml:space="preserve" font-family="DINCondensed-Bold" font-weight="bold" font-size="48.0" fill="#34A4DA" transform="matrix(1.00, 0.00, -0.00, -1.00, 262.8, 608.0)">U</text><text xml:space="preserve" font-family="DINCondensed-Bold" font-weight="bold" font-size="48.0" fill="#34A4DA" transform="matrix(1.00, 0.00, -0.00, -1.00, 283.3, 608.0)">T</text><text xml:space="preserve" font-family="DINCondensed-Bold" font-weight="bold" font-size="48.0" fill="#34A4DA" transform="matrix(1.00, 0.00, -0.00, -1.00, 299.2, 608.0)">I</text><text xml:space="preserve" font-family="DINCondensed-Bold" font-weight="bold" font-size="48.0" fill="#34A4DA" transform="matrix(1.00, 0.00, -0.00, -1.00, 309.0, 608.0)">O</text><text xml:space="preserve" font-family="DINCondensed-Bold" font-weight="bold" font-size="48.0" fill="#34A4DA" transform="matrix(1.00, 0.00, -0.00, -1.00, 329.5, 608.0)">N</text><g><clipPath id="clip-70"><path d="M 43.2 490.6 L 120.1 490.6 L 120.1 567.2 L 43.2 567.2 Z M 43.2 490.6 "></path></clipPath><g clip-path="url(#clip-70)"><path d="M 44.2 566.2 L 119.1 566.2 L 119.1 491.6 L 44.2 491.6 Z M 44.2 566.2 " fill="#34A4DA"></path></g></g><g><clipPath id="clip-71"><path d="M 30.5 495.2 L 132.9 495.2 L 132.9 562.2 L 30.5 562.2 Z M 30.5 495.2 "></path></clipPath><g clip-path="url(#clip-71)"><text xml:space="preserve" font-family="DINCondensed-Bold" font-weight="bold" font-size="71.0" fill="#FFFFFF" transform="matrix(1.00, 0.00, -0.00, -1.00, 69.0, 512.0)">a</text></g></g><g><clipPath id="clip-72"><path d="M 111.6 472.3 L 343.5 472.3 L 343.5 562.8 L 111.6 562.8 Z M 111.6 472.3 "></path></clipPath><g clip-path="url(#clip-72)"><text xml:space="preserve" font-family="DINCondensed-Bold" font-weight="bold" font-size="53.0" fill="#FEFFFE" transform="matrix(1.00, 0.00, -0.00, -1.00, 125.0, 511.0)">U</text><text xml:space="preserve" font-family="DINCondensed-Bold" font-weight="bold" font-size="53.0" fill="#FEFFFE" transform="matrix(1.00, 0.00, -0.00, -1.00, 147.6, 511.0)">T</text><text xml:space="preserve" font-family="DINCondensed-Bold" font-weight="bold" font-size="53.0" fill="#FEFFFE" transform="matrix(1.00, 0.00, -0.00, -1.00, 164.5, 511.0)">O</text><text xml:space="preserve" font-family="DINCondensed-Bold" font-weight="bold" font-size="53.0" fill="#FEFFFE" transform="matrix(1.00, 0.00, -0.00, -1.00, 187.1, 511.0)">N</text><text xml:space="preserve" font-family="DINCondensed-Bold" font-weight="bold" font-size="53.0" fill="#FEFFFE" transform="matrix(1.00, 0.00, -0.00, -1.00, 210.6, 511.0)">O</text><text xml:space="preserve" font-family="DINCondensed-Bold" font-weight="bold" font-size="53.0" fill="#FEFFFE" transform="matrix(1.00, 0.00, -0.00, -1.00, 233.2, 511.0)">M</text><text xml:space="preserve" font-family="DINCondensed-Bold" font-weight="bold" font-size="53.0" fill="#FEFFFE" transform="matrix(1.00, 0.00, -0.00, -1.00, 262.7, 511.0)">O</text><text xml:space="preserve" font-family="DINCondensed-Bold" font-weight="bold" font-size="53.0" fill="#FEFFFE" transform="matrix(1.00, 0.00, -0.00, -1.00, 285.3, 511.0)">U</text><text xml:space="preserve" font-family="DINCondensed-Bold" font-weight="bold" font-size="53.0" fill="#FEFFFE" transform="matrix(1.00, 0.00, -0.00, -1.00, 307.9, 511.0)">S</text></g></g><g><clipPath id="clip-73"><path d="M 43.2 386.7 L 120.1 386.7 L 120.1 463.3 L 43.2 463.3 Z M 43.2 386.7 "></path></clipPath><g clip-path="url(#clip-73)"><path d="M 44.2 462.3 L 119.1 462.3 L 119.1 387.7 L 44.2 387.7 Z M 44.2 462.3 " fill="#34A4DA"></path></g></g><g><clipPath id="clip-74"><path d="M 30.5 391.3 L 132.9 391.3 L 132.9 458.3 L 30.5 458.3 Z M 30.5 391.3 "></path></clipPath><g clip-path="url(#clip-74)"><text xml:space="preserve" font-family="DINCondensed-Bold" font-weight="bold" font-size="71.0" fill="#FFFFFF" transform="matrix(1.00, 0.00, -0.00, -1.00, 68.0, 408.0)">u</text></g></g><g><clipPath id="clip-75"><path d="M 111.6 368.4 L 302.9 368.4 L 302.9 458.9 L 111.6 458.9 Z M 111.6 368.4 "></path></clipPath><g clip-path="url(#clip-75)"><text xml:space="preserve" font-family="DINCondensed-Bold" font-weight="bold" font-size="53.0" fill="#FEFFFE" transform="matrix(1.00, 0.00, -0.00, -1.00, 125.0, 407.0)">N</text><text xml:space="preserve" font-family="DINCondensed-Bold" font-weight="bold" font-size="53.0" fill="#FEFFFE" transform="matrix(1.00, 0.00, -0.00, -1.00, 148.5, 407.0)">M</text><text xml:space="preserve" font-family="DINCondensed-Bold" font-weight="bold" font-size="53.0" fill="#FEFFFE" transform="matrix(1.00, 0.00, -0.00, -1.00, 178.0, 407.0)">A</text><text xml:space="preserve" font-family="DINCondensed-Bold" font-weight="bold" font-size="53.0" fill="#FEFFFE" transform="matrix(1.00, 0.00, -0.00, -1.00, 199.6, 407.0)">N</text><text xml:space="preserve" font-family="DINCondensed-Bold" font-weight="bold" font-size="53.0" fill="#FEFFFE" transform="matrix(1.00, 0.00, -0.00, -1.00, 223.1, 407.0)">N</text><text xml:space="preserve" font-family="DINCondensed-Bold" font-weight="bold" font-size="53.0" fill="#FEFFFE" transform="matrix(1.00, 0.00, -0.00, -1.00, 246.6, 407.0)">E</text><text xml:space="preserve" font-family="DINCondensed-Bold" font-weight="bold" font-size="53.0" fill="#FEFFFE" transform="matrix(1.00, 0.00, -0.00, -1.00, 266.2, 407.0)">D</text></g></g><g><clipPath id="clip-76"><path d="M 43.2 282.8 L 120.1 282.8 L 120.1 359.4 L 43.2 359.4 Z M 43.2 282.8 "></path></clipPath><g clip-path="url(#clip-76)"><path d="M 44.2 358.4 L 119.1 358.4 L 119.1 283.8 L 44.2 283.8 Z M 44.2 358.4 " fill="#34A4DA"></path></g></g><g><clipPath id="clip-77"><path d="M 30.5 287.4 L 132.9 287.4 L 132.9 354.4 L 30.5 354.4 Z M 30.5 287.4 "></path></clipPath><g clip-path="url(#clip-77)"><text xml:space="preserve" font-family="DINCondensed-Bold" font-weight="bold" font-size="71.0" fill="#FFFFFF" transform="matrix(1.00, 0.00, -0.00, -1.00, 69.0, 304.0)">s</text></g></g><g><clipPath id="clip-78"><path d="M 111.6 264.4 L 278.4 264.4 L 278.4 354.9 L 111.6 354.9 Z M 111.6 264.4 "></path></clipPath><g clip-path="url(#clip-78)"><text xml:space="preserve" font-family="DINCondensed-Bold" font-weight="bold" font-size="53.0" fill="#FEFFFE" transform="matrix(1.00, 0.00, -0.00, -1.00, 125.0, 304.0)">O</text><text xml:space="preserve" font-family="DINCondensed-Bold" font-weight="bold" font-size="53.0" fill="#FEFFFE" transform="matrix(1.00, 0.00, -0.00, -1.00, 147.6, 304.0)">L</text><text xml:space="preserve" font-family="DINCondensed-Bold" font-weight="bold" font-size="53.0" fill="#FEFFFE" transform="matrix(1.00, 0.00, -0.00, -1.00, 167.2, 304.0)">U</text><text xml:space="preserve" font-family="DINCondensed-Bold" font-weight="bold" font-size="53.0" fill="#FEFFFE" transform="matrix(1.00, 0.00, -0.00, -1.00, 189.8, 304.0)">T</text><text xml:space="preserve" font-family="DINCondensed-Bold" font-weight="bold" font-size="53.0" fill="#FEFFFE" transform="matrix(1.00, 0.00, -0.00, -1.00, 207.4, 304.0)">I</text><text xml:space="preserve" font-family="DINCondensed-Bold" font-weight="bold" font-size="53.0" fill="#FEFFFE" transform="matrix(1.00, 0.00, -0.00, -1.00, 218.2, 304.0)">O</text><text xml:space="preserve" font-family="DINCondensed-Bold" font-weight="bold" font-size="53.0" fill="#FEFFFE" transform="matrix(1.00, 0.00, -0.00, -1.00, 240.8, 304.0)">N</text></g></g><g><clipPath id="clip-79"><path d="M 43.2 178.8 L 120.1 178.8 L 120.1 255.5 L 43.2 255.5 Z M 43.2 178.8 "></path></clipPath><g clip-path="url(#clip-79)"><path d="M 44.2 254.5 L 119.1 254.5 L 119.1 179.8 L 44.2 179.8 Z M 44.2 254.5 " fill="#34A4DA"></path></g></g><g><clipPath id="clip-80"><path d="M 30.5 183.5 L 132.9 183.5 L 132.9 250.5 L 30.5 250.5 Z M 30.5 183.5 "></path></clipPath><g clip-path="url(#clip-80)"><text xml:space="preserve" font-family="DINCondensed-Bold" font-weight="bold" font-size="71.0" fill="#FFFFFF" transform="matrix(1.00, 0.00, -0.00, -1.00, 69.0, 200.0)">o</text></g></g><g><clipPath id="clip-81"><path d="M 111.6 162.6 L 269.6 162.6 L 269.6 253.1 L 111.6 253.1 Z M 111.6 162.6 "></path></clipPath><g clip-path="url(#clip-81)"><text xml:space="preserve" font-family="DINCondensed-Bold" font-weight="bold" font-size="53.0" fill="#FEFFFE" transform="matrix(1.00, 0.00, -0.00, -1.00, 125.0, 202.0)">U</text><text xml:space="preserve" font-family="DINCondensed-Bold" font-weight="bold" font-size="53.0" fill="#FEFFFE" transform="matrix(1.00, 0.00, -0.00, -1.00, 147.6, 202.0)">T</text><text xml:space="preserve" font-family="DINCondensed-Bold" font-weight="bold" font-size="53.0" fill="#FEFFFE" transform="matrix(1.00, 0.00, -0.00, -1.00, 165.2, 202.0)">D</text><text xml:space="preserve" font-family="DINCondensed-Bold" font-weight="bold" font-size="53.0" fill="#FEFFFE" transform="matrix(1.00, 0.00, -0.00, -1.00, 187.8, 202.0)">O</text><text xml:space="preserve" font-family="DINCondensed-Bold" font-weight="bold" font-size="53.0" fill="#FEFFFE" transform="matrix(1.00, 0.00, -0.00, -1.00, 210.3, 202.0)">O</text><text xml:space="preserve" font-family="DINCondensed-Bold" font-weight="bold" font-size="53.0" fill="#FEFFFE" transform="matrix(1.00, 0.00, -0.00, -1.00, 232.9, 202.0)">R</text></g></g><g><clipPath id="clip-82"><path d="M 43.2 74.9 L 120.1 74.9 L 120.1 151.5 L 43.2 151.5 Z M 43.2 74.9 "></path></clipPath><g clip-path="url(#clip-82)"><path d="M 44.2 150.5 L 119.1 150.5 L 119.1 75.9 L 44.2 75.9 Z M 44.2 150.5 " fill="#34A4DA"></path></g></g><g><clipPath id="clip-83"><path d="M 30.5 79.5 L 132.9 79.5 L 132.9 146.5 L 30.5 146.5 Z M 30.5 79.5 "></path></clipPath><g clip-path="url(#clip-83)"><text xml:space="preserve" font-family="DINCondensed-Bold" font-weight="bold" font-size="71.0" fill="#FFFFFF" transform="matrix(1.00, 0.00, -0.00, -1.00, 61.0, 96.0)">m</text></g></g><g><clipPath id="clip-84"><path d="M 112.2 56.6 L 339.8 56.6 L 339.8 147.1 L 112.2 147.1 Z M 112.2 56.6 "></path></clipPath><g clip-path="url(#clip-84)"><text xml:space="preserve" font-family="DINCondensed-Bold" font-weight="bold" font-size="53.0" fill="#FEFFFE" transform="matrix(1.00, 0.00, -0.00, -1.00, 125.0, 96.0)">A</text><text xml:space="preserve" font-family="DINCondensed-Bold" font-weight="bold" font-size="53.0" fill="#FEFFFE" transform="matrix(1.00, 0.00, -0.00, -1.00, 146.6, 96.0)">I</text><text xml:space="preserve" font-family="DINCondensed-Bold" font-weight="bold" font-size="53.0" fill="#FEFFFE" transform="matrix(1.00, 0.00, -0.00, -1.00, 157.4, 96.0)">N</text><text xml:space="preserve" font-family="DINCondensed-Bold" font-weight="bold" font-size="53.0" fill="#FEFFFE" transform="matrix(1.00, 0.00, -0.00, -1.00, 180.9, 96.0)">T</text><text xml:space="preserve" font-family="DINCondensed-Bold" font-weight="bold" font-size="53.0" fill="#FEFFFE" transform="matrix(1.00, 0.00, -0.00, -1.00, 195.6, 96.0)">A</text><text xml:space="preserve" font-family="DINCondensed-Bold" font-weight="bold" font-size="53.0" fill="#FEFFFE" transform="matrix(1.00, 0.00, -0.00, -1.00, 217.2, 96.0)">N</text><text xml:space="preserve" font-family="DINCondensed-Bold" font-weight="bold" font-size="53.0" fill="#FEFFFE" transform="matrix(1.00, 0.00, -0.00, -1.00, 240.7, 96.0)">E</text><text xml:space="preserve" font-family="DINCondensed-Bold" font-weight="bold" font-size="53.0" fill="#FEFFFE" transform="matrix(1.00, 0.00, -0.00, -1.00, 260.3, 96.0)">N</text><text xml:space="preserve" font-family="DINCondensed-Bold" font-weight="bold" font-size="53.0" fill="#FEFFFE" transform="matrix(1.00, 0.00, -0.00, -1.00, 283.8, 96.0)">C</text><text xml:space="preserve" font-family="DINCondensed-Bold" font-weight="bold" font-size="53.0" fill="#FEFFFE" transform="matrix(1.00, 0.00, -0.00, -1.00, 305.4, 96.0)">E</text></g></g><image xlink:href="../../530E9AF0-43D7-4833-AF5F-F344C0C97C42/assets/545E40E0C163CE7F6FF15AD7D02EE66B.png" width="443.00" height="332.00" transform="matrix(0.54, 0.00, -0.00, -0.54, 790.0, 168.0)"></image><g><clipPath id="clip-85"><path d="M 430.4 384.1 L 504.7 501.3 L 514.5 495.1 L 440.2 377.9 Z M 430.4 384.1 "></path></clipPath><g clip-path="url(#clip-85)"><path d="M 0.0 0.0 L 127.2 0.0 L 128.2 0.0 " fill="none" stroke="#34A4DA" stroke-width="2.00" transform="matrix(0.54, 0.84, 0.84, -0.54, 435.8, 381.9)"></path><path d="M 508.0 486.7 L 509.1 497.4 L 499.9 491.8 Z M 508.0 486.7 " fill="#34A4DA"></path></g></g><g><clipPath id="clip-86"><path d="M 433.1 388.0 L 575.0 579.1 L 584.3 572.2 L 442.4 381.1 Z M 433.1 388.0 "></path></clipPath><g clip-path="url(#clip-86)"><path d="M 0.0 0.0 L 226.4 0.0 L 227.4 0.0 " fill="none" stroke="#34A4DA" stroke-width="2.00" transform="matrix(0.60, 0.80, 0.80, -0.60, 438.3, 385.4)"></path><path d="M 577.2 564.3 L 579.0 574.8 L 569.5 570.0 Z M 577.2 564.3 " fill="#34A4DA"></path></g></g><g><clipPath id="clip-87"><path d="M 821.9 626.4 L 691.0 469.8 L 682.1 477.3 L 813.0 633.9 Z M 821.9 626.4 "></path></clipPath><g clip-path="url(#clip-87)"><path d="M 0.0 0.0 L 192.5 0.0 L 193.5 0.0 " fill="none" stroke="#34A4DA" stroke-width="2.00" transform="matrix(-0.64, -0.77, -0.77, 0.64, 816.8, 629.4)"></path><path d="M 689.7 484.7 L 687.2 474.3 L 697.0 478.6 Z M 689.7 484.7 " fill="#34A4DA"></path></g></g><g><clipPath id="clip-88"><path d="M 762.6 260.4 L 631.2 408.2 L 639.9 415.9 L 771.3 268.1 Z M 762.6 260.4 "></path></clipPath><g clip-path="url(#clip-88)"><path d="M 0.0 0.0 L 186.2 0.0 L 187.2 0.0 " fill="none" stroke="#34A4DA" stroke-width="2.00" transform="matrix(-0.66, 0.75, 0.75, 0.66, 766.3, 265.0)"></path><path d="M 646.2 407.3 L 636.2 411.3 L 639.0 400.9 Z M 646.2 407.3 " fill="#34A4DA"></path></g></g><g><clipPath id="clip-89"><path d="M 395.7 348.4 L 474.4 348.4 L 474.4 386.8 L 395.7 386.8 Z M 395.7 348.4 "></path></clipPath><g clip-path="url(#clip-89)"><path d="M 396.7 385.8 L 473.4 385.8 L 473.4 349.4 L 396.7 349.4 Z M 396.7 385.8 " fill="#34A4DA"></path></g></g><g><clipPath id="clip-90"><path d="M 393.7 340.8 L 476.4 340.8 L 476.4 388.8 L 393.7 388.8 Z M 393.7 340.8 "></path></clipPath><g clip-path="url(#clip-90)"><text xml:space="preserve" font-family="DINCondensed-Bold" font-weight="bold" font-size="28.0" fill="#FFFFFF" transform="matrix(1.00, 0.00, -0.00, -1.00, 401.0, 361.0)">R</text><text xml:space="preserve" font-family="DINCondensed-Bold" font-weight="bold" font-size="28.0" fill="#FFFFFF" transform="matrix(1.00, 0.00, -0.00, -1.00, 412.9, 361.0)">O</text><text xml:space="preserve" font-family="DINCondensed-Bold" font-weight="bold" font-size="28.0" fill="#FFFFFF" transform="matrix(1.00, 0.00, -0.00, -1.00, 424.5, 361.0)">T</text><text xml:space="preserve" font-family="DINCondensed-Bold" font-weight="bold" font-size="28.0" fill="#FFFFFF" transform="matrix(1.00, 0.00, -0.00, -1.00, 433.5, 361.0)">O</text><text xml:space="preserve" font-family="DINCondensed-Bold" font-weight="bold" font-size="28.0" fill="#FFFFFF" transform="matrix(1.00, 0.00, -0.00, -1.00, 445.4, 361.0)">R</text><text xml:space="preserve" font-family="DINCondensed-Bold" font-weight="bold" font-size="28.0" fill="#FFFFFF" transform="matrix(1.00, 0.00, -0.00, -1.00, 457.3, 361.0)">S</text></g></g><g><clipPath id="clip-91"><path d="M 680.9 244.6 L 857.2 244.6 L 857.2 283.0 L 680.9 283.0 Z M 680.9 244.6 "></path></clipPath><g clip-path="url(#clip-91)"><path d="M 681.9 282.0 L 856.2 282.0 L 856.2 245.6 L 681.9 245.6 Z M 681.9 282.0 " fill="#34A4DA"></path></g></g><g><clipPath id="clip-92"><path d="M 678.9 237.0 L 859.2 237.0 L 859.2 285.0 L 678.9 285.0 Z M 678.9 237.0 "></path></clipPath><g clip-path="url(#clip-92)"><text xml:space="preserve" font-family="DINCondensed-Bold" font-weight="bold" font-size="28.0" fill="#FFFFFF" transform="matrix(1.00, 0.00, -0.00, -1.00, 686.0, 258.0)">C</text><text xml:space="preserve" font-family="DINCondensed-Bold" font-weight="bold" font-size="28.0" fill="#FFFFFF" transform="matrix(1.00, 0.00, -0.00, -1.00, 697.4, 258.0)">O</text><text xml:space="preserve" font-family="DINCondensed-Bold" font-weight="bold" font-size="28.0" fill="#FFFFFF" transform="matrix(1.00, 0.00, -0.00, -1.00, 709.3, 258.0)">N</text><text xml:space="preserve" font-family="DINCondensed-Bold" font-weight="bold" font-size="28.0" fill="#FFFFFF" transform="matrix(1.00, 0.00, -0.00, -1.00, 721.8, 258.0)">N</text><text xml:space="preserve" font-family="DINCondensed-Bold" font-weight="bold" font-size="28.0" fill="#FFFFFF" transform="matrix(1.00, 0.00, -0.00, -1.00, 734.2, 258.0)">E</text><text xml:space="preserve" font-family="DINCondensed-Bold" font-weight="bold" font-size="28.0" fill="#FFFFFF" transform="matrix(1.00, 0.00, -0.00, -1.00, 744.5, 258.0)">C</text><text xml:space="preserve" font-family="DINCondensed-Bold" font-weight="bold" font-size="28.0" fill="#FFFFFF" transform="matrix(1.00, 0.00, -0.00, -1.00, 755.9, 258.0)">T</text><text xml:space="preserve" font-family="DINCondensed-Bold" font-weight="bold" font-size="28.0" fill="#FFFFFF" transform="matrix(1.00, 0.00, -0.00, -1.00, 765.2, 258.0)">I</text><text xml:space="preserve" font-family="DINCondensed-Bold" font-weight="bold" font-size="28.0" fill="#FFFFFF" transform="matrix(1.00, 0.00, -0.00, -1.00, 771.0, 258.0)">O</text><text xml:space="preserve" font-family="DINCondensed-Bold" font-weight="bold" font-size="28.0" fill="#FFFFFF" transform="matrix(1.00, 0.00, -0.00, -1.00, 782.9, 258.0)">N</text><text xml:space="preserve" font-family="DINCondensed-Bold" font-weight="bold" font-size="28.0" fill="#FFFFFF" transform="matrix(1.00, 0.00, -0.00, -1.00, 795.3, 258.0)"> </text><text xml:space="preserve" font-family="DINCondensed-Bold" font-weight="bold" font-size="28.0" fill="#FFFFFF" transform="matrix(1.00, 0.00, -0.00, -1.00, 800.5, 258.0)">P</text><text xml:space="preserve" font-family="DINCondensed-Bold" font-weight="bold" font-size="28.0" fill="#FFFFFF" transform="matrix(1.00, 0.00, -0.00, -1.00, 811.9, 258.0)">O</text><text xml:space="preserve" font-family="DINCondensed-Bold" font-weight="bold" font-size="28.0" fill="#FFFFFF" transform="matrix(1.00, 0.00, -0.00, -1.00, 823.8, 258.0)">I</text><text xml:space="preserve" font-family="DINCondensed-Bold" font-weight="bold" font-size="28.0" fill="#FFFFFF" transform="matrix(1.00, 0.00, -0.00, -1.00, 829.6, 258.0)">N</text><text xml:space="preserve" font-family="DINCondensed-Bold" font-weight="bold" font-size="28.0" fill="#FFFFFF" transform="matrix(1.00, 0.00, -0.00, -1.00, 842.0, 258.0)">T</text></g></g><g><clipPath id="clip-93"><path d="M 761.2 321.4 L 881.5 321.4 L 881.5 359.8 L 761.2 359.8 Z M 761.2 321.4 "></path></clipPath><g clip-path="url(#clip-93)"><path d="M 762.2 358.8 L 880.5 358.8 L 880.5 322.4 L 762.2 322.4 Z M 762.2 358.8 " fill="#34A4DA"></path></g></g><g><clipPath id="clip-94"><path d="M 759.2 313.8 L 883.5 313.8 L 883.5 361.8 L 759.2 361.8 Z M 759.2 313.8 "></path></clipPath><g clip-path="url(#clip-94)"><text xml:space="preserve" font-family="DINCondensed-Bold" font-weight="bold" font-size="28.0" fill="#FFFFFF" transform="matrix(1.00, 0.00, -0.00, -1.00, 767.0, 334.0)">A</text><text xml:space="preserve" font-family="DINCondensed-Bold" font-weight="bold" font-size="28.0" fill="#FFFFFF" transform="matrix(1.00, 0.00, -0.00, -1.00, 776.9, 334.0)">T</text><text xml:space="preserve" font-family="DINCondensed-Bold" font-weight="bold" font-size="28.0" fill="#FFFFFF" transform="matrix(1.00, 0.00, -0.00, -1.00, 786.2, 334.0)">T</text><text xml:space="preserve" font-family="DINCondensed-Bold" font-weight="bold" font-size="28.0" fill="#FFFFFF" transform="matrix(1.00, 0.00, -0.00, -1.00, 793.9, 334.0)">A</text><text xml:space="preserve" font-family="DINCondensed-Bold" font-weight="bold" font-size="28.0" fill="#FFFFFF" transform="matrix(1.00, 0.00, -0.00, -1.00, 805.3, 334.0)">C</text><text xml:space="preserve" font-family="DINCondensed-Bold" font-weight="bold" font-size="28.0" fill="#FFFFFF" transform="matrix(1.00, 0.00, -0.00, -1.00, 816.7, 334.0)">H</text><text xml:space="preserve" font-family="DINCondensed-Bold" font-weight="bold" font-size="28.0" fill="#FFFFFF" transform="matrix(1.00, 0.00, -0.00, -1.00, 828.6, 334.0)">M</text><text xml:space="preserve" font-family="DINCondensed-Bold" font-weight="bold" font-size="28.0" fill="#FFFFFF" transform="matrix(1.00, 0.00, -0.00, -1.00, 844.2, 334.0)">E</text><text xml:space="preserve" font-family="DINCondensed-Bold" font-weight="bold" font-size="28.0" fill="#FFFFFF" transform="matrix(1.00, 0.00, -0.00, -1.00, 854.6, 334.0)">N</text><text xml:space="preserve" font-family="DINCondensed-Bold" font-weight="bold" font-size="28.0" fill="#FFFFFF" transform="matrix(1.00, 0.00, -0.00, -1.00, 867.0, 334.0)">T</text></g></g><g><clipPath id="clip-95"><path d="M 405.3 125.9 L 713.9 125.9 L 713.9 220.9 L 405.3 220.9 Z M 405.3 125.9 "></path></clipPath><g clip-path="url(#clip-95)"><path d="M 406.3 219.9 L 712.9 219.9 L 712.9 126.9 L 406.3 126.9 Z M 406.3 219.9 " fill="#34A4DA"></path></g></g><g><clipPath id="clip-96"><path d="M 403.3 118.3 L 1013.5 118.3 L 1013.5 222.9 L 403.3 222.9 Z M 403.3 118.3 "></path></clipPath><g clip-path="url(#clip-96)"><text xml:space="preserve" font-family="DINCondensed-Bold" font-weight="bold" font-size="28.0" fill="#FFFFFF" transform="matrix(1.00, 0.00, -0.00, -1.00, 509.0, 196.0)">I</text><text xml:space="preserve" font-family="DINCondensed-Bold" font-weight="bold" font-size="28.0" fill="#FFFFFF" transform="matrix(1.00, 0.00, -0.00, -1.00, 514.7, 196.0)">N</text><text xml:space="preserve" font-family="DINCondensed-Bold" font-weight="bold" font-size="28.0" fill="#FFFFFF" transform="matrix(1.00, 0.00, -0.00, -1.00, 527.1, 196.0)">T</text><text xml:space="preserve" font-family="DINCondensed-Bold" font-weight="bold" font-size="28.0" fill="#FFFFFF" transform="matrix(1.00, 0.00, -0.00, -1.00, 536.4, 196.0)">E</text><text xml:space="preserve" font-family="DINCondensed-Bold" font-weight="bold" font-size="28.0" fill="#FFFFFF" transform="matrix(1.00, 0.00, -0.00, -1.00, 546.8, 196.0)">R</text><text xml:space="preserve" font-family="DINCondensed-Bold" font-weight="bold" font-size="28.0" fill="#FFFFFF" transform="matrix(1.00, 0.00, -0.00, -1.00, 558.7, 196.0)">N</text><text xml:space="preserve" font-family="DINCondensed-Bold" font-weight="bold" font-size="28.0" fill="#FFFFFF" transform="matrix(1.00, 0.00, -0.00, -1.00, 571.2, 196.0)">A</text><text xml:space="preserve" font-family="DINCondensed-Bold" font-weight="bold" font-size="28.0" fill="#FFFFFF" transform="matrix(1.00, 0.00, -0.00, -1.00, 582.6, 196.0)">L</text><text xml:space="preserve" font-family="DINCondensed-Bold" font-weight="bold" font-size="28.0" fill="#FFFFFF" transform="matrix(1.00, 0.00, -0.00, -1.00, 592.9, 196.0)">S</text><text xml:space="preserve" font-family="DINCondensed-Bold" font-weight="bold" font-size="28.0" fill="#FFFFFF" transform="matrix(1.00, 0.00, -0.00, -1.00, 604.3, 196.0)">:</text><text xml:space="preserve" font-family="DINCondensed-Bold" font-weight="bold" font-size="28.0" fill="#FFFFFF" transform="matrix(1.00, 0.00, -0.00, -1.00, 609.5, 196.0)"> </text><text xml:space="preserve" font-family="DINCondensed-Bold" font-weight="bold" font-size="28.0" fill="#FFFFFF" transform="matrix(1.00, 0.00, -0.00, -1.00, 614.7, 196.0)"> </text><text xml:space="preserve" font-family="DINCondensed-Bold" font-weight="bold" font-size="28.0" fill="#FFFFFF" transform="matrix(1.00, 0.00, -0.00, -1.00, 416.0, 167.0)">G</text><text xml:space="preserve" font-family="DINCondensed-Bold" font-weight="bold" font-size="28.0" fill="#FFFFFF" transform="matrix(1.00, 0.00, -0.00, -1.00, 427.9, 167.0)">Y</text><text xml:space="preserve" font-family="DINCondensed-Bold" font-weight="bold" font-size="28.0" fill="#FFFFFF" transform="matrix(1.00, 0.00, -0.00, -1.00, 438.8, 167.0)">R</text><text xml:space="preserve" font-family="DINCondensed-Bold" font-weight="bold" font-size="28.0" fill="#FFFFFF" transform="matrix(1.00, 0.00, -0.00, -1.00, 450.7, 167.0)">O</text><text xml:space="preserve" font-family="DINCondensed-Bold" font-weight="bold" font-size="28.0" fill="#FFFFFF" transform="matrix(1.00, 0.00, -0.00, -1.00, 462.6, 167.0)">,</text><text xml:space="preserve" font-family="DINCondensed-Bold" font-weight="bold" font-size="28.0" fill="#FFFFFF" transform="matrix(1.00, 0.00, -0.00, -1.00, 467.9, 167.0)"> </text><text xml:space="preserve" font-family="DINCondensed-Bold" font-weight="bold" font-size="28.0" fill="#FFFFFF" transform="matrix(1.00, 0.00, -0.00, -1.00, 473.1, 167.0)">C</text><text xml:space="preserve" font-family="DINCondensed-Bold" font-weight="bold" font-size="28.0" fill="#FFFFFF" transform="matrix(1.00, 0.00, -0.00, -1.00, 484.5, 167.0)">O</text><text xml:space="preserve" font-family="DINCondensed-Bold" font-weight="bold" font-size="28.0" fill="#FFFFFF" transform="matrix(1.00, 0.00, -0.00, -1.00, 496.4, 167.0)">M</text><text xml:space="preserve" font-family="DINCondensed-Bold" font-weight="bold" font-size="28.0" fill="#FFFFFF" transform="matrix(1.00, 0.00, -0.00, -1.00, 512.0, 167.0)">P</text><text xml:space="preserve" font-family="DINCondensed-Bold" font-weight="bold" font-size="28.0" fill="#FFFFFF" transform="matrix(1.00, 0.00, -0.00, -1.00, 522.3, 167.0)">A</text><text xml:space="preserve" font-family="DINCondensed-Bold" font-weight="bold" font-size="28.0" fill="#FFFFFF" transform="matrix(1.00, 0.00, -0.00, -1.00, 533.7, 167.0)">S</text><text xml:space="preserve" font-family="DINCondensed-Bold" font-weight="bold" font-size="28.0" fill="#FFFFFF" transform="matrix(1.00, 0.00, -0.00, -1.00, 545.1, 167.0)">S</text><text xml:space="preserve" font-family="DINCondensed-Bold" font-weight="bold" font-size="28.0" fill="#FFFFFF" transform="matrix(1.00, 0.00, -0.00, -1.00, 556.4, 167.0)">,</text><text xml:space="preserve" font-family="DINCondensed-Bold" font-weight="bold" font-size="28.0" fill="#FFFFFF" transform="matrix(1.00, 0.00, -0.00, -1.00, 561.7, 167.0)"> </text><text xml:space="preserve" font-family="DINCondensed-Bold" font-weight="bold" font-size="28.0" fill="#FFFFFF" transform="matrix(1.00, 0.00, -0.00, -1.00, 566.9, 167.0)">P</text><text xml:space="preserve" font-family="DINCondensed-Bold" font-weight="bold" font-size="28.0" fill="#FFFFFF" transform="matrix(1.00, 0.00, -0.00, -1.00, 578.3, 167.0)">R</text><text xml:space="preserve" font-family="DINCondensed-Bold" font-weight="bold" font-size="28.0" fill="#FFFFFF" transform="matrix(1.00, 0.00, -0.00, -1.00, 590.2, 167.0)">E</text><text xml:space="preserve" font-family="DINCondensed-Bold" font-weight="bold" font-size="28.0" fill="#FFFFFF" transform="matrix(1.00, 0.00, -0.00, -1.00, 600.5, 167.0)">S</text><text xml:space="preserve" font-family="DINCondensed-Bold" font-weight="bold" font-size="28.0" fill="#FFFFFF" transform="matrix(1.00, 0.00, -0.00, -1.00, 611.9, 167.0)">S</text><text xml:space="preserve" font-family="DINCondensed-Bold" font-weight="bold" font-size="28.0" fill="#FFFFFF" transform="matrix(1.00, 0.00, -0.00, -1.00, 623.3, 167.0)">U</text><text xml:space="preserve" font-family="DINCondensed-Bold" font-weight="bold" font-size="28.0" fill="#FFFFFF" transform="matrix(1.00, 0.00, -0.00, -1.00, 635.2, 167.0)">R</text><text xml:space="preserve" font-family="DINCondensed-Bold" font-weight="bold" font-size="28.0" fill="#FFFFFF" transform="matrix(1.00, 0.00, -0.00, -1.00, 647.1, 167.0)">E</text><text xml:space="preserve" font-family="DINCondensed-Bold" font-weight="bold" font-size="28.0" fill="#FFFFFF" transform="matrix(1.00, 0.00, -0.00, -1.00, 657.5, 167.0)"> </text><text xml:space="preserve" font-family="DINCondensed-Bold" font-weight="bold" font-size="28.0" fill="#FFFFFF" transform="matrix(1.00, 0.00, -0.00, -1.00, 662.7, 167.0)">I</text><text xml:space="preserve" font-family="DINCondensed-Bold" font-weight="bold" font-size="28.0" fill="#FFFFFF" transform="matrix(1.00, 0.00, -0.00, -1.00, 668.4, 167.0)">N</text><text xml:space="preserve" font-family="DINCondensed-Bold" font-weight="bold" font-size="28.0" fill="#FFFFFF" transform="matrix(1.00, 0.00, -0.00, -1.00, 680.9, 167.0)">D</text><text xml:space="preserve" font-family="DINCondensed-Bold" font-weight="bold" font-size="28.0" fill="#FFFFFF" transform="matrix(1.00, 0.00, -0.00, -1.00, 692.8, 167.0)">.</text><text xml:space="preserve" font-family="DINCondensed-Bold" font-weight="bold" font-size="28.0" fill="#FFFFFF" transform="matrix(1.00, 0.00, -0.00, -1.00, 698.0, 167.0)">,</text><text xml:space="preserve" font-family="DINCondensed-Bold" font-weight="bold" font-size="28.0" fill="#FFFFFF" transform="matrix(1.00, 0.00, -0.00, -1.00, 703.2, 167.0)"> </text><text xml:space="preserve" font-family="DINCondensed-Bold" font-weight="bold" font-size="28.0" fill="#FFFFFF" transform="matrix(1.00, 0.00, -0.00, -1.00, 708.4, 167.0)"> </text><text xml:space="preserve" font-family="DINCondensed-Bold" font-weight="bold" font-size="28.0" fill="#FFFFFF" transform="matrix(1.00, 0.00, -0.00, -1.00, 464.0, 139.0)">G</text><text xml:space="preserve" font-family="DINCondensed-Bold" font-weight="bold" font-size="28.0" fill="#FFFFFF" transform="matrix(1.00, 0.00, -0.00, -1.00, 475.9, 139.0)">P</text><text xml:space="preserve" font-family="DINCondensed-Bold" font-weight="bold" font-size="28.0" fill="#FFFFFF" transform="matrix(1.00, 0.00, -0.00, -1.00, 487.3, 139.0)">S</text><text xml:space="preserve" font-family="DINCondensed-Bold" font-weight="bold" font-size="28.0" fill="#FFFFFF" transform="matrix(1.00, 0.00, -0.00, -1.00, 498.7, 139.0)">,</text><text xml:space="preserve" font-family="DINCondensed-Bold" font-weight="bold" font-size="28.0" fill="#FFFFFF" transform="matrix(1.00, 0.00, -0.00, -1.00, 503.9, 139.0)"> </text><text xml:space="preserve" font-family="DINCondensed-Bold" font-weight="bold" font-size="28.0" fill="#FFFFFF" transform="matrix(1.00, 0.00, -0.00, -1.00, 509.1, 139.0)">A</text><text xml:space="preserve" font-family="DINCondensed-Bold" font-weight="bold" font-size="28.0" fill="#FFFFFF" transform="matrix(1.00, 0.00, -0.00, -1.00, 520.5, 139.0)">C</text><text xml:space="preserve" font-family="DINCondensed-Bold" font-weight="bold" font-size="28.0" fill="#FFFFFF" transform="matrix(1.00, 0.00, -0.00, -1.00, 531.9, 139.0)">C</text><text xml:space="preserve" font-family="DINCondensed-Bold" font-weight="bold" font-size="28.0" fill="#FFFFFF" transform="matrix(1.00, 0.00, -0.00, -1.00, 543.3, 139.0)">E</text><text xml:space="preserve" font-family="DINCondensed-Bold" font-weight="bold" font-size="28.0" fill="#FFFFFF" transform="matrix(1.00, 0.00, -0.00, -1.00, 553.7, 139.0)">L</text><text xml:space="preserve" font-family="DINCondensed-Bold" font-weight="bold" font-size="28.0" fill="#FFFFFF" transform="matrix(1.00, 0.00, -0.00, -1.00, 564.0, 139.0)">E</text><text xml:space="preserve" font-family="DINCondensed-Bold" font-weight="bold" font-size="28.0" fill="#FFFFFF" transform="matrix(1.00, 0.00, -0.00, -1.00, 574.4, 139.0)">R</text><text xml:space="preserve" font-family="DINCondensed-Bold" font-weight="bold" font-size="28.0" fill="#FFFFFF" transform="matrix(1.00, 0.00, -0.00, -1.00, 586.3, 139.0)">O</text><text xml:space="preserve" font-family="DINCondensed-Bold" font-weight="bold" font-size="28.0" fill="#FFFFFF" transform="matrix(1.00, 0.00, -0.00, -1.00, 598.2, 139.0)">M</text><text xml:space="preserve" font-family="DINCondensed-Bold" font-weight="bold" font-size="28.0" fill="#FFFFFF" transform="matrix(1.00, 0.00, -0.00, -1.00, 613.8, 139.0)">E</text><text xml:space="preserve" font-family="DINCondensed-Bold" font-weight="bold" font-size="28.0" fill="#FFFFFF" transform="matrix(1.00, 0.00, -0.00, -1.00, 624.2, 139.0)">T</text><text xml:space="preserve" font-family="DINCondensed-Bold" font-weight="bold" font-size="28.0" fill="#FFFFFF" transform="matrix(1.00, 0.00, -0.00, -1.00, 633.5, 139.0)">E</text><text xml:space="preserve" font-family="DINCondensed-Bold" font-weight="bold" font-size="28.0" fill="#FFFFFF" transform="matrix(1.00, 0.00, -0.00, -1.00, 643.8, 139.0)">R</text></g></g><g><clipPath id="clip-97"><path d="M 553.1 213.9 L 588.9 446.8 L 600.4 445.0 L 564.6 212.2 Z M 553.1 213.9 "></path></clipPath><g clip-path="url(#clip-97)"><path d="M 0.0 0.0 L 224.0 0.0 L 225.0 0.0 " fill="none" stroke="#34A4DA" stroke-width="2.00" transform="matrix(0.15, 0.99, 0.99, -0.15, 559.0, 214.0)"></path><path d="M 597.8 434.7 L 594.5 444.9 L 588.3 436.1 Z M 597.8 434.7 " fill="#34A4DA"></path></g></g><g><clipPath id="clip-98"><path d="M 750.1 609.4 L 893.7 609.4 L 893.7 647.8 L 750.1 647.8 Z M 750.1 609.4 "></path></clipPath><g clip-path="url(#clip-98)"><path d="M 751.1 646.8 L 892.7 646.8 L 892.7 610.4 L 751.1 610.4 Z M 751.1 646.8 " fill="#34A4DA"></path></g></g><g><clipPath id="clip-99"><path d="M 748.1 601.8 L 895.7 601.8 L 895.7 649.8 L 748.1 649.8 Z M 748.1 601.8 "></path></clipPath><g clip-path="url(#clip-99)"><text xml:space="preserve" font-family="DINCondensed-Bold" font-weight="bold" font-size="28.0" fill="#FFFFFF" transform="matrix(1.00, 0.00, -0.00, -1.00, 756.0, 623.0)">V</text><text xml:space="preserve" font-family="DINCondensed-Bold" font-weight="bold" font-size="28.0" fill="#FFFFFF" transform="matrix(1.00, 0.00, -0.00, -1.00, 767.4, 623.0)">I</text><text xml:space="preserve" font-family="DINCondensed-Bold" font-weight="bold" font-size="28.0" fill="#FFFFFF" transform="matrix(1.00, 0.00, -0.00, -1.00, 773.1, 623.0)">S</text><text xml:space="preserve" font-family="DINCondensed-Bold" font-weight="bold" font-size="28.0" fill="#FFFFFF" transform="matrix(1.00, 0.00, -0.00, -1.00, 784.5, 623.0)">I</text><text xml:space="preserve" font-family="DINCondensed-Bold" font-weight="bold" font-size="28.0" fill="#FFFFFF" transform="matrix(1.00, 0.00, -0.00, -1.00, 790.2, 623.0)">O</text><text xml:space="preserve" font-family="DINCondensed-Bold" font-weight="bold" font-size="28.0" fill="#FFFFFF" transform="matrix(1.00, 0.00, -0.00, -1.00, 802.1, 623.0)">N</text><text xml:space="preserve" font-family="DINCondensed-Bold" font-weight="bold" font-size="28.0" fill="#FFFFFF" transform="matrix(1.00, 0.00, -0.00, -1.00, 814.5, 623.0)"> </text><text xml:space="preserve" font-family="DINCondensed-Bold" font-weight="bold" font-size="28.0" fill="#FFFFFF" transform="matrix(1.00, 0.00, -0.00, -1.00, 819.8, 623.0)">S</text><text xml:space="preserve" font-family="DINCondensed-Bold" font-weight="bold" font-size="28.0" fill="#FFFFFF" transform="matrix(1.00, 0.00, -0.00, -1.00, 831.1, 623.0)">Y</text><text xml:space="preserve" font-family="DINCondensed-Bold" font-weight="bold" font-size="28.0" fill="#FFFFFF" transform="matrix(1.00, 0.00, -0.00, -1.00, 842.0, 623.0)">S</text><text xml:space="preserve" font-family="DINCondensed-Bold" font-weight="bold" font-size="28.0" fill="#FFFFFF" transform="matrix(1.00, 0.00, -0.00, -1.00, 853.4, 623.0)">T</text><text xml:space="preserve" font-family="DINCondensed-Bold" font-weight="bold" font-size="28.0" fill="#FFFFFF" transform="matrix(1.00, 0.00, -0.00, -1.00, 862.7, 623.0)">E</text><text xml:space="preserve" font-family="DINCondensed-Bold" font-weight="bold" font-size="28.0" fill="#FFFFFF" transform="matrix(1.00, 0.00, -0.00, -1.00, 873.0, 623.0)">M</text></g></g><g><clipPath id="clip-100"><path d="M 812.4 349.9 L 775.7 413.6 L 785.7 419.4 L 822.4 355.7 Z M 812.4 349.9 "></path></clipPath><g clip-path="url(#clip-100)"><path d="M 0.0 0.0 L 61.9 0.0 L 62.9 0.0 " fill="none" stroke="#34A4DA" stroke-width="2.00" transform="matrix(-0.50, 0.87, 0.87, 0.50, 816.9, 353.7)"></path><path d="M 790.2 409.7 L 781.2 415.6 L 781.8 404.9 Z M 790.2 409.7 " fill="#34A4DA"></path></g></g><g><clipPath id="clip-101"><path d="M 424.8 96.0 L 689.4 96.0 L 689.4 59.6 L 424.8 59.6 Z M 424.8 96.0 "></path></clipPath><g clip-path="url(#clip-101)"><path d="M 424.8 59.6 L 689.4 59.6 L 689.4 96.0 L 424.8 96.0 Z M 424.8 59.6 " fill="url(#E40699E7-5DFB-4BDD-B9ED-0AEBD01B0FD0)"></path><path d="M 424.8 96.0 L 689.4 96.0 L 689.4 59.6 L 424.8 59.6 Z M 424.8 96.0 " fill="#339B9E" fill-opacity="0.80"></path></g></g><g><clipPath id="clip-102"><path d="M 421.8 51.0 L 692.4 51.0 L 692.4 99.0 L 421.8 99.0 Z M 421.8 51.0 "></path></clipPath><g clip-path="url(#clip-102)"><text xml:space="preserve" font-family="DINCondensed-Bold" font-weight="bold" font-size="28.0" fill="#FFFFFF" transform="matrix(1.00, 0.00, -0.00, -1.00, 429.0, 72.0)">D</text><text xml:space="preserve" font-family="DINCondensed-Bold" font-weight="bold" font-size="28.0" fill="#FFFFFF" transform="matrix(1.00, 0.00, -0.00, -1.00, 440.9, 72.0)">I</text><text xml:space="preserve" font-family="DINCondensed-Bold" font-weight="bold" font-size="28.0" fill="#FFFFFF" transform="matrix(1.00, 0.00, -0.00, -1.00, 446.6, 72.0)">M</text><text xml:space="preserve" font-family="DINCondensed-Bold" font-weight="bold" font-size="28.0" fill="#FFFFFF" transform="matrix(1.00, 0.00, -0.00, -1.00, 462.2, 72.0)">E</text><text xml:space="preserve" font-family="DINCondensed-Bold" font-weight="bold" font-size="28.0" fill="#FFFFFF" transform="matrix(1.00, 0.00, -0.00, -1.00, 472.6, 72.0)">N</text><text xml:space="preserve" font-family="DINCondensed-Bold" font-weight="bold" font-size="28.0" fill="#FFFFFF" transform="matrix(1.00, 0.00, -0.00, -1.00, 485.0, 72.0)">S</text><text xml:space="preserve" font-family="DINCondensed-Bold" font-weight="bold" font-size="28.0" fill="#FFFFFF" transform="matrix(1.00, 0.00, -0.00, -1.00, 496.4, 72.0)">I</text><text xml:space="preserve" font-family="DINCondensed-Bold" font-weight="bold" font-size="28.0" fill="#FFFFFF" transform="matrix(1.00, 0.00, -0.00, -1.00, 502.1, 72.0)">O</text><text xml:space="preserve" font-family="DINCondensed-Bold" font-weight="bold" font-size="28.0" fill="#FFFFFF" transform="matrix(1.00, 0.00, -0.00, -1.00, 514.0, 72.0)">N</text><text xml:space="preserve" font-family="DINCondensed-Bold" font-weight="bold" font-size="28.0" fill="#FFFFFF" transform="matrix(1.00, 0.00, -0.00, -1.00, 526.4, 72.0)">S</text><text xml:space="preserve" font-family="DINCondensed-Bold" font-weight="bold" font-size="28.0" fill="#FFFFFF" transform="matrix(1.00, 0.00, -0.00, -1.00, 537.8, 72.0)">:</text><text xml:space="preserve" font-family="DINCondensed-Bold" font-weight="bold" font-size="28.0" fill="#FFFFFF" transform="matrix(1.00, 0.00, -0.00, -1.00, 543.0, 72.0)"> </text><text xml:space="preserve" font-family="DINCondensed-Bold" font-weight="bold" font-size="28.0" fill="#FFFFFF" transform="matrix(1.00, 0.00, -0.00, -1.00, 548.2, 72.0)">2</text><text xml:space="preserve" font-family="DINCondensed-Bold" font-weight="bold" font-size="28.0" fill="#FFFFFF" transform="matrix(1.00, 0.00, -0.00, -1.00, 558.6, 72.0)">.</text><text xml:space="preserve" font-family="DINCondensed-Bold" font-weight="bold" font-size="28.0" fill="#FFFFFF" transform="matrix(1.00, 0.00, -0.00, -1.00, 563.8, 72.0)">5</text><text xml:space="preserve" font-family="DINCondensed-Bold" font-weight="bold" font-size="28.0" fill="#FFFFFF" transform="matrix(1.00, 0.00, -0.00, -1.00, 574.3, 72.0)">'</text><text xml:space="preserve" font-family="DINCondensed-Bold" font-weight="bold" font-size="28.0" fill="#FFFFFF" transform="matrix(1.00, 0.00, -0.00, -1.00, 579.5, 72.0)"> </text><text xml:space="preserve" font-family="DINCondensed-Bold" font-weight="bold" font-size="28.0" fill="#FFFFFF" transform="matrix(1.00, 0.00, -0.00, -1.00, 584.7, 72.0)">X</text><text xml:space="preserve" font-family="DINCondensed-Bold" font-weight="bold" font-size="28.0" fill="#FFFFFF" transform="matrix(1.00, 0.00, -0.00, -1.00, 595.6, 72.0)"> </text><text xml:space="preserve" font-family="DINCondensed-Bold" font-weight="bold" font-size="28.0" fill="#FFFFFF" transform="matrix(1.00, 0.00, -0.00, -1.00, 600.8, 72.0)">2</text><text xml:space="preserve" font-family="DINCondensed-Bold" font-weight="bold" font-size="28.0" fill="#FFFFFF" transform="matrix(1.00, 0.00, -0.00, -1.00, 611.2, 72.0)">.</text><text xml:space="preserve" font-family="DINCondensed-Bold" font-weight="bold" font-size="28.0" fill="#FFFFFF" transform="matrix(1.00, 0.00, -0.00, -1.00, 616.4, 72.0)">5</text><text xml:space="preserve" font-family="DINCondensed-Bold" font-weight="bold" font-size="28.0" fill="#FFFFFF" transform="matrix(1.00, 0.00, -0.00, -1.00, 626.8, 72.0)">'</text><text xml:space="preserve" font-family="DINCondensed-Bold" font-weight="bold" font-size="28.0" fill="#FFFFFF" transform="matrix(1.00, 0.00, -0.00, -1.00, 632.0, 72.0)"> </text><text xml:space="preserve" font-family="DINCondensed-Bold" font-weight="bold" font-size="28.0" fill="#FFFFFF" transform="matrix(1.00, 0.00, -0.00, -1.00, 637.2, 72.0)">X</text><text xml:space="preserve" font-family="DINCondensed-Bold" font-weight="bold" font-size="28.0" fill="#FFFFFF" transform="matrix(1.00, 0.00, -0.00, -1.00, 648.1, 72.0)"> </text><text xml:space="preserve" font-family="DINCondensed-Bold" font-weight="bold" font-size="28.0" fill="#FFFFFF" transform="matrix(1.00, 0.00, -0.00, -1.00, 653.3, 72.0)">1</text><text xml:space="preserve" font-family="DINCondensed-Bold" font-weight="bold" font-size="28.0" fill="#FFFFFF" transform="matrix(1.00, 0.00, -0.00, -1.00, 663.8, 72.0)">.</text><text xml:space="preserve" font-family="DINCondensed-Bold" font-weight="bold" font-size="28.0" fill="#FFFFFF" transform="matrix(1.00, 0.00, -0.00, -1.00, 669.0, 72.0)">5</text><text xml:space="preserve" font-family="DINCondensed-Bold" font-weight="bold" font-size="28.0" fill="#FFFFFF" transform="matrix(1.00, 0.00, -0.00, -1.00, 679.4, 72.0)">'</text></g></g><g><clipPath id="clip-103"><path d="M 490.4 50.7 L 623.8 50.7 L 623.8 14.3 L 490.4 14.3 Z M 490.4 50.7 "></path></clipPath><g clip-path="url(#clip-103)"><image xlink:href="../../3FB1384B-AF7D-403E-9052-01D9E7CFA740/assets/A5964C14CBB6E4C1993E6E7CF3004B8E.jpeg" width="266.00" height="266.00" transform="matrix(0.63, 0.00, -0.00, -0.63, 490.4, 50.7)"></image><path d="M 490.4 50.7 L 623.8 50.7 L 623.8 14.3 L 490.4 14.3 Z M 490.4 50.7 " fill="#339B9E" fill-opacity="0.80"></path></g></g><g><clipPath id="clip-104"><path d="M 487.4 5.7 L 626.8 5.7 L 626.8 53.7 L 487.4 53.7 Z M 487.4 5.7 "></path></clipPath><g clip-path="url(#clip-104)"><text xml:space="preserve" font-family="DINCondensed-Bold" font-weight="bold" font-size="28.0" fill="#FFFFFF" transform="matrix(1.00, 0.00, -0.00, -1.00, 495.0, 26.0)">W</text><text xml:space="preserve" font-family="DINCondensed-Bold" font-weight="bold" font-size="28.0" fill="#FFFFFF" transform="matrix(1.00, 0.00, -0.00, -1.00, 511.6, 26.0)">E</text><text xml:space="preserve" font-family="DINCondensed-Bold" font-weight="bold" font-size="28.0" fill="#FFFFFF" transform="matrix(1.00, 0.00, -0.00, -1.00, 522.0, 26.0)">I</text><text xml:space="preserve" font-family="DINCondensed-Bold" font-weight="bold" font-size="28.0" fill="#FFFFFF" transform="matrix(1.00, 0.00, -0.00, -1.00, 527.7, 26.0)">G</text><text xml:space="preserve" font-family="DINCondensed-Bold" font-weight="bold" font-size="28.0" fill="#FFFFFF" transform="matrix(1.00, 0.00, -0.00, -1.00, 539.6, 26.0)">H</text><text xml:space="preserve" font-family="DINCondensed-Bold" font-weight="bold" font-size="28.0" fill="#FFFFFF" transform="matrix(1.00, 0.00, -0.00, -1.00, 551.5, 26.0)">T</text><text xml:space="preserve" font-family="DINCondensed-Bold" font-weight="bold" font-size="28.0" fill="#FFFFFF" transform="matrix(1.00, 0.00, -0.00, -1.00, 559.1, 26.0)">:</text><text xml:space="preserve" font-family="DINCondensed-Bold" font-weight="bold" font-size="28.0" fill="#FFFFFF" transform="matrix(1.00, 0.00, -0.00, -1.00, 564.4, 26.0)"> </text><text xml:space="preserve" font-family="DINCondensed-Bold" font-weight="bold" font-size="28.0" fill="#FFFFFF" transform="matrix(1.00, 0.00, -0.00, -1.00, 569.6, 26.0)">4</text><text xml:space="preserve" font-family="DINCondensed-Bold" font-weight="bold" font-size="28.0" fill="#FFFFFF" transform="matrix(1.00, 0.00, -0.00, -1.00, 580.0, 26.0)">.</text><text xml:space="preserve" font-family="DINCondensed-Bold" font-weight="bold" font-size="28.0" fill="#FFFFFF" transform="matrix(1.00, 0.00, -0.00, -1.00, 585.2, 26.0)">5</text><text xml:space="preserve" font-family="DINCondensed-Bold" font-weight="bold" font-size="28.0" fill="#FFFFFF" transform="matrix(1.00, 0.00, -0.00, -1.00, 595.6, 26.0)">K</text><text xml:space="preserve" font-family="DINCondensed-Bold" font-weight="bold" font-size="28.0" fill="#FFFFFF" transform="matrix(1.00, 0.00, -0.00, -1.00, 607.5, 26.0)">G</text></g></g></g></svg>