<?xml version="1.0" encoding="UTF-8" standalone="no"?><svg xmlns="http://www.w3.org/2000/svg" xmlns:xlink="http://www.w3.org/1999/xlink" clip-rule="evenodd" stroke-miterlimit="4.00" viewBox="0 0 228 78"><desc>SVG generated by Keynote</desc><defs></defs><g transform="matrix(1.00, 0.00, -0.00, -1.00, 0.0, 78.0)"><g><clipPath id="clip-44"><path d="M 0.2 0.8 L 77.1 0.8 L 77.1 77.4 L 0.2 77.4 Z M 0.2 0.8 "></path></clipPath><g clip-path="url(#clip-44)"><path d="M 1.2 76.4 L 76.1 76.4 L 76.1 1.8 L 1.2 1.8 Z M 1.2 76.4 " fill="#34A4DA"></path></g></g><g><clipPath id="clip-45"><path d="M 0.0 5.4 L 89.9 5.4 L 89.9 72.4 L 0.0 72.4 Z M 0.0 5.4 "></path></clipPath><g clip-path="url(#clip-45)"><text xml:space="preserve" font-family="DINCondensed-Bold" font-weight="bold" font-size="71.0" fill="#FFFFFF" transform="matrix(1.00, 0.00, -0.00, -1.00, 26.0, 22.0)">s</text></g></g><g><clipPath id="clip-46"><path d="M 68.6 -17.6 L 235.4 -17.6 L 235.4 72.9 L 68.6 72.9 Z M 68.6 -17.6 "></path></clipPath><g clip-path="url(#clip-46)"><text xml:space="preserve" font-family="DINCondensed-Bold" font-weight="bold" font-size="53.0" fill="#FEFFFE" transform="matrix(1.00, 0.00, -0.00, -1.00, 82.0, 22.0)">O</text><text xml:space="preserve" font-family="DINCondensed-Bold" font-weight="bold" font-size="53.0" fill="#FEFFFE" transform="matrix(1.00, 0.00, -0.00, -1.00, 104.6, 22.0)">L</text><text xml:space="preserve" font-family="DINCondensed-Bold" font-weight="bold" font-size="53.0" fill="#FEFFFE" transform="matrix(1.00, 0.00, -0.00, -1.00, 124.2, 22.0)">U</text><text xml:space="preserve" font-family="DINCondensed-Bold" font-weight="bold" font-size="53.0" fill="#FEFFFE" transform="matrix(1.00, 0.00, -0.00, -1.00, 146.8, 22.0)">T</text><text xml:space="preserve" font-family="DINCondensed-Bold" font-weight="bold" font-size="53.0" fill="#FEFFFE" transform="matrix(1.00, 0.00, -0.00, -1.00, 164.4, 22.0)">I</text><text xml:space="preserve" font-family="DINCondensed-Bold" font-weight="bold" font-size="53.0" fill="#FEFFFE" transform="matrix(1.00, 0.00, -0.00, -1.00, 175.2, 22.0)">O</text><text xml:space="preserve" font-family="DINCondensed-Bold" font-weight="bold" font-size="53.0" fill="#FEFFFE" transform="matrix(1.00, 0.00, -0.00, -1.00, 197.8, 22.0)">N</text></g></g></g></svg>