<?xml version="1.0" encoding="UTF-8" standalone="no"?><svg xmlns="http://www.w3.org/2000/svg" xmlns:xlink="http://www.w3.org/1999/xlink" clip-rule="evenodd" stroke-miterlimit="4.00" viewBox="0 0 289 78"><desc>SVG generated by Keynote</desc><defs></defs><g transform="matrix(1.00, 0.00, -0.00, -1.00, 0.0, 78.0)"><g><clipPath id="clip-515"><path d="M 0.2 0.9 L 77.1 0.9 L 77.1 77.5 L 0.2 77.5 Z M 0.2 0.9 "></path></clipPath><g clip-path="url(#clip-515)"><path d="M 1.2 76.5 L 76.1 76.5 L 76.1 1.9 L 1.2 1.9 Z M 1.2 76.5 " fill="#34A4DA"></path></g></g><g><clipPath id="clip-516"><path d="M 0.0 5.5 L 89.9 5.5 L 89.9 72.5 L 0.0 72.5 Z M 0.0 5.5 "></path></clipPath><g clip-path="url(#clip-516)"><text xml:space="preserve" font-family="DINCondensed-Bold" font-weight="bold" font-size="71.0" fill="#FFFFFF" transform="matrix(1.00, 0.00, -0.00, -1.00, 18.0, 22.0)">m</text></g></g><g><clipPath id="clip-517"><path d="M 69.2 -17.4 L 296.8 -17.4 L 296.8 73.1 L 69.2 73.1 Z M 69.2 -17.4 "></path></clipPath><g clip-path="url(#clip-517)"><text xml:space="preserve" font-family="DINCondensed-Bold" font-weight="bold" font-size="53.0" fill="#FEFFFE" transform="matrix(1.00, 0.00, -0.00, -1.00, 82.0, 22.0)">A</text><text xml:space="preserve" font-family="DINCondensed-Bold" font-weight="bold" font-size="53.0" fill="#FEFFFE" transform="matrix(1.00, 0.00, -0.00, -1.00, 103.6, 22.0)">I</text><text xml:space="preserve" font-family="DINCondensed-Bold" font-weight="bold" font-size="53.0" fill="#FEFFFE" transform="matrix(1.00, 0.00, -0.00, -1.00, 114.4, 22.0)">N</text><text xml:space="preserve" font-family="DINCondensed-Bold" font-weight="bold" font-size="53.0" fill="#FEFFFE" transform="matrix(1.00, 0.00, -0.00, -1.00, 137.9, 22.0)">T</text><text xml:space="preserve" font-family="DINCondensed-Bold" font-weight="bold" font-size="53.0" fill="#FEFFFE" transform="matrix(1.00, 0.00, -0.00, -1.00, 152.6, 22.0)">A</text><text xml:space="preserve" font-family="DINCondensed-Bold" font-weight="bold" font-size="53.0" fill="#FEFFFE" transform="matrix(1.00, 0.00, -0.00, -1.00, 174.2, 22.0)">N</text><text xml:space="preserve" font-family="DINCondensed-Bold" font-weight="bold" font-size="53.0" fill="#FEFFFE" transform="matrix(1.00, 0.00, -0.00, -1.00, 197.7, 22.0)">E</text><text xml:space="preserve" font-family="DINCondensed-Bold" font-weight="bold" font-size="53.0" fill="#FEFFFE" transform="matrix(1.00, 0.00, -0.00, -1.00, 217.3, 22.0)">N</text><text xml:space="preserve" font-family="DINCondensed-Bold" font-weight="bold" font-size="53.0" fill="#FEFFFE" transform="matrix(1.00, 0.00, -0.00, -1.00, 240.8, 22.0)">C</text><text xml:space="preserve" font-family="DINCondensed-Bold" font-weight="bold" font-size="53.0" fill="#FEFFFE" transform="matrix(1.00, 0.00, -0.00, -1.00, 262.4, 22.0)">E</text></g></g></g></svg>