<?xml version="1.0" encoding="UTF-8" standalone="no"?><svg xmlns="http://www.w3.org/2000/svg" xmlns:xlink="http://www.w3.org/1999/xlink" clip-rule="evenodd" stroke-miterlimit="4.00" viewBox="0 0 252 78"><desc>SVG generated by Keynote</desc><defs></defs><g transform="matrix(1.00, 0.00, -0.00, -1.00, 0.0, 78.0)"><g><clipPath id="clip-41"><path d="M 0.2 0.7 L 77.1 0.7 L 77.1 77.3 L 0.2 77.3 Z M 0.2 0.7 "></path></clipPath><g clip-path="url(#clip-41)"><path d="M 1.2 76.3 L 76.1 76.3 L 76.1 1.7 L 1.2 1.7 Z M 1.2 76.3 " fill="#34A4DA"></path></g></g><g><clipPath id="clip-42"><path d="M 0.0 5.3 L 89.9 5.3 L 89.9 72.3 L 0.0 72.3 Z M 0.0 5.3 "></path></clipPath><g clip-path="url(#clip-42)"><text xml:space="preserve" font-family="DINCondensed-Bold" font-weight="bold" font-size="71.0" fill="#FFFFFF" transform="matrix(1.00, 0.00, -0.00, -1.00, 25.0, 22.0)">u</text></g></g><g><clipPath id="clip-43"><path d="M 68.6 -17.6 L 259.9 -17.6 L 259.9 72.9 L 68.6 72.9 Z M 68.6 -17.6 "></path></clipPath><g clip-path="url(#clip-43)"><text xml:space="preserve" font-family="DINCondensed-Bold" font-weight="bold" font-size="53.0" fill="#FEFFFE" transform="matrix(1.00, 0.00, -0.00, -1.00, 82.0, 21.0)">N</text><text xml:space="preserve" font-family="DINCondensed-Bold" font-weight="bold" font-size="53.0" fill="#FEFFFE" transform="matrix(1.00, 0.00, -0.00, -1.00, 105.5, 21.0)">M</text><text xml:space="preserve" font-family="DINCondensed-Bold" font-weight="bold" font-size="53.0" fill="#FEFFFE" transform="matrix(1.00, 0.00, -0.00, -1.00, 135.0, 21.0)">A</text><text xml:space="preserve" font-family="DINCondensed-Bold" font-weight="bold" font-size="53.0" fill="#FEFFFE" transform="matrix(1.00, 0.00, -0.00, -1.00, 156.6, 21.0)">N</text><text xml:space="preserve" font-family="DINCondensed-Bold" font-weight="bold" font-size="53.0" fill="#FEFFFE" transform="matrix(1.00, 0.00, -0.00, -1.00, 180.1, 21.0)">N</text><text xml:space="preserve" font-family="DINCondensed-Bold" font-weight="bold" font-size="53.0" fill="#FEFFFE" transform="matrix(1.00, 0.00, -0.00, -1.00, 203.6, 21.0)">E</text><text xml:space="preserve" font-family="DINCondensed-Bold" font-weight="bold" font-size="53.0" fill="#FEFFFE" transform="matrix(1.00, 0.00, -0.00, -1.00, 223.2, 21.0)">D</text></g></g></g></svg>