<?xml version="1.0" encoding="UTF-8" standalone="no"?><svg xmlns="http://www.w3.org/2000/svg" xmlns:xlink="http://www.w3.org/1999/xlink" clip-rule="evenodd" stroke-miterlimit="4.00" viewBox="0 0 261 122"><desc>SVG generated by Keynote</desc><defs></defs><g transform="matrix(1.00, 0.00, -0.00, -1.00, 0.0, 122.0)"><g><clipPath id="clip-112"><path d="M 0.4 0.1 L 122.3 0.1 L 122.3 121.9 L 0.4 121.9 Z M 0.4 0.1 "></path></clipPath><g clip-path="url(#clip-112)"><path d="M 1.4 120.9 L 121.3 120.9 L 121.3 1.1 L 1.4 1.1 Z M 1.4 120.9 " fill="#34A4DA"></path></g></g><g><clipPath id="clip-113"><path d="M -1.6 1.1 L 124.3 1.1 L 124.3 120.9 L -1.6 120.9 Z M -1.6 1.1 "></path></clipPath><g clip-path="url(#clip-113)"><text xml:space="preserve" font-family="DINCondensed-Bold" font-weight="bold" font-size="28.0" fill="#FFFFFF" transform="matrix(1.00, 0.00, -0.00, -1.00, 24.0, 69.0)">W</text><text xml:space="preserve" font-family="DINCondensed-Bold" font-weight="bold" font-size="28.0" fill="#FFFFFF" transform="matrix(1.00, 0.00, -0.00, -1.00, 40.6, 69.0)">I</text><text xml:space="preserve" font-family="DINCondensed-Bold" font-weight="bold" font-size="28.0" fill="#FFFFFF" transform="matrix(1.00, 0.00, -0.00, -1.00, 46.3, 69.0)">N</text><text xml:space="preserve" font-family="DINCondensed-Bold" font-weight="bold" font-size="28.0" fill="#FFFFFF" transform="matrix(1.00, 0.00, -0.00, -1.00, 58.7, 69.0)">D</text><text xml:space="preserve" font-family="DINCondensed-Bold" font-weight="bold" font-size="28.0" fill="#FFFFFF" transform="matrix(1.00, 0.00, -0.00, -1.00, 70.7, 69.0)">O</text><text xml:space="preserve" font-family="DINCondensed-Bold" font-weight="bold" font-size="28.0" fill="#FFFFFF" transform="matrix(1.00, 0.00, -0.00, -1.00, 82.3, 69.0)">W</text><text xml:space="preserve" font-family="DINCondensed-Bold" font-weight="bold" font-size="28.0" fill="#FFFFFF" transform="matrix(1.00, 0.00, -0.00, -1.00, 98.9, 69.0)"> </text><text xml:space="preserve" font-family="DINCondensed-Bold" font-weight="bold" font-size="28.0" fill="#FFFFFF" transform="matrix(1.00, 0.00, -0.00, -1.00, 18.0, 40.0)">C</text><text xml:space="preserve" font-family="DINCondensed-Bold" font-weight="bold" font-size="28.0" fill="#FFFFFF" transform="matrix(1.00, 0.00, -0.00, -1.00, 29.4, 40.0)">L</text><text xml:space="preserve" font-family="DINCondensed-Bold" font-weight="bold" font-size="28.0" fill="#FFFFFF" transform="matrix(1.00, 0.00, -0.00, -1.00, 39.8, 40.0)">E</text><text xml:space="preserve" font-family="DINCondensed-Bold" font-weight="bold" font-size="28.0" fill="#FFFFFF" transform="matrix(1.00, 0.00, -0.00, -1.00, 50.1, 40.0)">A</text><text xml:space="preserve" font-family="DINCondensed-Bold" font-weight="bold" font-size="28.0" fill="#FFFFFF" transform="matrix(1.00, 0.00, -0.00, -1.00, 61.5, 40.0)">N</text><text xml:space="preserve" font-family="DINCondensed-Bold" font-weight="bold" font-size="28.0" fill="#FFFFFF" transform="matrix(1.00, 0.00, -0.00, -1.00, 73.9, 40.0)">I</text><text xml:space="preserve" font-family="DINCondensed-Bold" font-weight="bold" font-size="28.0" fill="#FFFFFF" transform="matrix(1.00, 0.00, -0.00, -1.00, 79.7, 40.0)">N</text><text xml:space="preserve" font-family="DINCondensed-Bold" font-weight="bold" font-size="28.0" fill="#FFFFFF" transform="matrix(1.00, 0.00, -0.00, -1.00, 92.1, 40.0)">G</text></g></g><g><clipPath id="clip-114"><path d="M 242.1 103.4 C 265.5 80.0 265.5 42.0 242.1 18.6 C 218.7 -4.8 180.7 -4.8 157.3 18.6 C 133.9 42.0 133.9 80.0 157.3 103.4 C 180.7 126.8 218.7 126.8 242.1 103.4 Z M 242.1 103.4 "></path></clipPath><g clip-path="url(#clip-114)"><g><clipPath id="clip-115"><path d="M 138.8 0.1 L 260.7 0.1 L 260.7 121.9 L 138.8 121.9 Z M 138.8 0.1 "></path></clipPath><g clip-path="url(#clip-115)"><image xlink:href="../../3FB1384B-AF7D-403E-9052-01D9E7CFA740/assets/A5964C14CBB6E4C1993E6E7CF3004B8E.jpeg" width="266.00" height="266.00" transform="matrix(0.63, 0.00, -0.00, -0.63, 139.8, 120.9)"></image><path d="M 139.8 120.9 L 259.7 120.9 L 259.7 1.1 L 139.8 1.1 Z M 139.8 120.9 " fill="#34A4DA" fill-opacity="0.80"></path></g></g></g></g><g><clipPath id="clip-116"><path d="M 170.2 62.9 L 197.8 62.9 L 197.8 90.5 L 170.2 90.5 Z M 170.2 62.9 "></path></clipPath><g clip-path="url(#clip-116)"><path d="M 171.2 89.5 L 196.8 89.5 L 196.8 63.9 L 171.2 63.9 Z M 171.2 89.5 " fill="#FEFFFE"></path></g></g><g><clipPath id="clip-117"><path d="M 202.7 62.9 L 230.3 62.9 L 230.3 90.5 L 202.7 90.5 Z M 202.7 62.9 "></path></clipPath><g clip-path="url(#clip-117)"><path d="M 203.7 89.5 L 229.3 89.5 L 229.3 63.9 L 203.7 63.9 Z M 203.7 89.5 " fill="#FEFFFE"></path></g></g><g><clipPath id="clip-118"><path d="M 170.2 20.2 L 197.8 20.2 L 197.8 59.0 L 170.2 59.0 Z M 170.2 20.2 "></path></clipPath><g clip-path="url(#clip-118)"><path d="M 171.2 58.0 L 196.8 58.0 L 196.8 32.4 L 171.2 32.4 Z M 171.2 58.0 " fill="#FEFFFE"></path><image xlink:href="49567CE60124C953FAEEC9D4FDD4BC50.png" width="107.00" height="47.00" transform="matrix(0.24, 0.00, -0.00, -0.24, 171.2, 32.4)"></image></g></g><g><clipPath id="clip-119"><path d="M 202.7 20.2 L 230.3 20.2 L 230.3 59.0 L 202.7 59.0 Z M 202.7 20.2 "></path></clipPath><g clip-path="url(#clip-119)"><path d="M 203.7 58.0 L 229.3 58.0 L 229.3 32.4 L 203.7 32.4 Z M 203.7 58.0 " fill="#FEFFFE"></path><image xlink:href="../../516FCB26-46EA-49F9-939D-9F5997279282/assets/49567CE60124C953FAEEC9D4FDD4BC50.png" width="107.00" height="47.00" transform="matrix(0.24, 0.00, -0.00, -0.24, 203.7, 32.4)"></image></g></g></g></svg>