<?xml version="1.0" encoding="UTF-8" standalone="no"?><svg xmlns="http://www.w3.org/2000/svg" xmlns:xlink="http://www.w3.org/1999/xlink" clip-rule="evenodd" stroke-miterlimit="4.00" viewBox="0 0 855 33"><desc>SVG generated by Keynote</desc><defs></defs><g transform="matrix(1.00, 0.00, -0.00, -1.00, 0.0, 33.0)"><text xml:space="preserve" font-family="AvenirNext-DemiBold" font-weight="bold" font-size="32.0" fill="#FEFFFE" transform="matrix(1.00, 0.00, -0.00, -1.00, 2.0, 8.0)">3</text><text xml:space="preserve" font-family="AvenirNext-Medium" font-size="24.0" fill="#FEFFFE" transform="matrix(1.00, 0.00, -0.00, -1.00, 21.5, 8.0)"> </text><text xml:space="preserve" font-family="AvenirNext-Medium" font-size="24.0" fill="#FEFFFE" transform="matrix(1.00, 0.00, -0.00, -1.00, 27.5, 8.0)">c</text><text xml:space="preserve" font-family="AvenirNext-Medium" font-size="24.0" fill="#FEFFFE" transform="matrix(1.00, 0.00, -0.00, -1.00, 39.4, 8.0)">o</text><text xml:space="preserve" font-family="AvenirNext-Medium" font-size="24.0" fill="#FEFFFE" transform="matrix(1.00, 0.00, -0.00, -1.00, 54.0, 8.0)">r</text><text xml:space="preserve" font-family="AvenirNext-Medium" font-size="24.0" fill="#FEFFFE" transform="matrix(1.00, 0.00, -0.00, -1.00, 62.3, 8.0)">e</text><text xml:space="preserve" font-family="AvenirNext-Medium" font-size="24.0" fill="#FEFFFE" transform="matrix(1.00, 0.00, -0.00, -1.00, 76.0, 8.0)"> </text><text xml:space="preserve" font-family="AvenirNext-Medium" font-size="24.0" fill="#FEFFFE" transform="matrix(1.00, 0.00, -0.00, -1.00, 82.0, 8.0)">f</text><text xml:space="preserve" font-family="AvenirNext-Medium" font-size="24.0" fill="#FEFFFE" transform="matrix(1.00, 0.00, -0.00, -1.00, 89.5, 8.0)">u</text><text xml:space="preserve" font-family="AvenirNext-Medium" font-size="24.0" fill="#FEFFFE" transform="matrix(1.00, 0.00, -0.00, -1.00, 103.4, 8.0)">n</text><text xml:space="preserve" font-family="AvenirNext-Medium" font-size="24.0" fill="#FEFFFE" transform="matrix(1.00, 0.00, -0.00, -1.00, 117.4, 8.0)">c</text><text xml:space="preserve" font-family="AvenirNext-Medium" font-size="24.0" fill="#FEFFFE" transform="matrix(1.00, 0.00, -0.00, -1.00, 129.3, 8.0)">t</text><text xml:space="preserve" font-family="AvenirNext-Medium" font-size="24.0" fill="#FEFFFE" transform="matrix(1.00, 0.00, -0.00, -1.00, 137.2, 8.0)">i</text><text xml:space="preserve" font-family="AvenirNext-Medium" font-size="24.0" fill="#FEFFFE" transform="matrix(1.00, 0.00, -0.00, -1.00, 143.4, 8.0)">o</text><text xml:space="preserve" font-family="AvenirNext-Medium" font-size="24.0" fill="#FEFFFE" transform="matrix(1.00, 0.00, -0.00, -1.00, 158.0, 8.0)">n</text><text xml:space="preserve" font-family="AvenirNext-Medium" font-size="24.0" fill="#FEFFFE" transform="matrix(1.00, 0.00, -0.00, -1.00, 172.0, 8.0)">a</text><text xml:space="preserve" font-family="AvenirNext-Medium" font-size="24.0" fill="#FEFFFE" transform="matrix(1.00, 0.00, -0.00, -1.00, 185.0, 8.0)">l</text><text xml:space="preserve" font-family="AvenirNext-Medium" font-size="24.0" fill="#FEFFFE" transform="matrix(1.00, 0.00, -0.00, -1.00, 191.2, 8.0)">i</text><text xml:space="preserve" font-family="AvenirNext-Medium" font-size="24.0" fill="#FEFFFE" transform="matrix(1.00, 0.00, -0.00, -1.00, 197.4, 8.0)">t</text><text xml:space="preserve" font-family="AvenirNext-Medium" font-size="24.0" fill="#FEFFFE" transform="matrix(1.00, 0.00, -0.00, -1.00, 205.3, 8.0)">i</text><text xml:space="preserve" font-family="AvenirNext-Medium" font-size="24.0" fill="#FEFFFE" transform="matrix(1.00, 0.00, -0.00, -1.00, 211.6, 8.0)">e</text><text xml:space="preserve" font-family="AvenirNext-Medium" font-size="24.0" fill="#FEFFFE" transform="matrix(1.00, 0.00, -0.00, -1.00, 225.3, 8.0)">s</text><text xml:space="preserve" font-family="AvenirNext-Medium" font-size="24.0" fill="#FEFFFE" transform="matrix(1.00, 0.00, -0.00, -1.00, 236.0, 8.0)">,</text><text xml:space="preserve" font-family="AvenirNext-Medium" font-size="24.0" fill="#FEFFFE" transform="matrix(1.00, 0.00, -0.00, -1.00, 241.5, 8.0)"> </text><text xml:space="preserve" font-family="AvenirNext-Medium" font-size="24.0" fill="#FEFFFE" transform="matrix(1.00, 0.00, -0.00, -1.00, 247.5, 8.0)">l</text><text xml:space="preserve" font-family="AvenirNext-Medium" font-size="24.0" fill="#FEFFFE" transform="matrix(1.00, 0.00, -0.00, -1.00, 253.7, 8.0)">i</text><text xml:space="preserve" font-family="AvenirNext-Medium" font-size="24.0" fill="#FEFFFE" transform="matrix(1.00, 0.00, -0.00, -1.00, 259.9, 8.0)">n</text><text xml:space="preserve" font-family="AvenirNext-Medium" font-size="24.0" fill="#FEFFFE" transform="matrix(1.00, 0.00, -0.00, -1.00, 273.9, 8.0)">k</text><text xml:space="preserve" font-family="AvenirNext-Medium" font-size="24.0" fill="#FEFFFE" transform="matrix(1.00, 0.00, -0.00, -1.00, 286.1, 8.0)">e</text><text xml:space="preserve" font-family="AvenirNext-Medium" font-size="24.0" fill="#FEFFFE" transform="matrix(1.00, 0.00, -0.00, -1.00, 299.9, 8.0)">d</text><text xml:space="preserve" font-family="AvenirNext-Medium" font-size="24.0" fill="#FEFFFE" transform="matrix(1.00, 0.00, -0.00, -1.00, 315.1, 8.0)"> </text><text xml:space="preserve" font-family="AvenirNext-Medium" font-size="24.0" fill="#FEFFFE" transform="matrix(1.00, 0.00, -0.00, -1.00, 321.1, 8.0)">t</text><text xml:space="preserve" font-family="AvenirNext-Medium" font-size="24.0" fill="#FEFFFE" transform="matrix(1.00, 0.00, -0.00, -1.00, 329.0, 8.0)">h</text><text xml:space="preserve" font-family="AvenirNext-Medium" font-size="24.0" fill="#FEFFFE" transform="matrix(1.00, 0.00, -0.00, -1.00, 343.0, 8.0)">r</text><text xml:space="preserve" font-family="AvenirNext-Medium" font-size="24.0" fill="#FEFFFE" transform="matrix(1.00, 0.00, -0.00, -1.00, 351.3, 8.0)">o</text><text xml:space="preserve" font-family="AvenirNext-Medium" font-size="24.0" fill="#FEFFFE" transform="matrix(1.00, 0.00, -0.00, -1.00, 365.9, 8.0)">u</text><text xml:space="preserve" font-family="AvenirNext-Medium" font-size="24.0" fill="#FEFFFE" transform="matrix(1.00, 0.00, -0.00, -1.00, 379.9, 8.0)">g</text><text xml:space="preserve" font-family="AvenirNext-Medium" font-size="24.0" fill="#FEFFFE" transform="matrix(1.00, 0.00, -0.00, -1.00, 395.1, 8.0)">h</text><text xml:space="preserve" font-family="AvenirNext-Medium" font-size="24.0" fill="#FEFFFE" transform="matrix(1.00, 0.00, -0.00, -1.00, 409.1, 8.0)"> </text><text xml:space="preserve" font-family="AvenirNext-Medium" font-size="24.0" fill="#FEFFFE" transform="matrix(1.00, 0.00, -0.00, -1.00, 415.1, 8.0)">a</text><text xml:space="preserve" font-family="AvenirNext-Medium" font-size="24.0" fill="#FEFFFE" transform="matrix(1.00, 0.00, -0.00, -1.00, 428.1, 8.0)">n</text><text xml:space="preserve" font-family="AvenirNext-Medium" font-size="24.0" fill="#FEFFFE" transform="matrix(1.00, 0.00, -0.00, -1.00, 442.0, 8.0)"> </text><text xml:space="preserve" font-family="AvenirNext-Medium" font-size="24.0" fill="#FEFFFE" transform="matrix(1.00, 0.00, -0.00, -1.00, 448.0, 8.0)">a</text><text xml:space="preserve" font-family="AvenirNext-Medium" font-size="24.0" fill="#FEFFFE" transform="matrix(1.00, 0.00, -0.00, -1.00, 460.8, 8.0)">t</text><text xml:space="preserve" font-family="AvenirNext-Medium" font-size="24.0" fill="#FEFFFE" transform="matrix(1.00, 0.00, -0.00, -1.00, 468.4, 8.0)">t</text><text xml:space="preserve" font-family="AvenirNext-Medium" font-size="24.0" fill="#FEFFFE" transform="matrix(1.00, 0.00, -0.00, -1.00, 476.2, 8.0)">a</text><text xml:space="preserve" font-family="AvenirNext-Medium" font-size="24.0" fill="#FEFFFE" transform="matrix(1.00, 0.00, -0.00, -1.00, 489.3, 8.0)">c</text><text xml:space="preserve" font-family="AvenirNext-Medium" font-size="24.0" fill="#FEFFFE" transform="matrix(1.00, 0.00, -0.00, -1.00, 501.1, 8.0)">h</text><text xml:space="preserve" font-family="AvenirNext-Medium" font-size="24.0" fill="#FEFFFE" transform="matrix(1.00, 0.00, -0.00, -1.00, 515.1, 8.0)">m</text><text xml:space="preserve" font-family="AvenirNext-Medium" font-size="24.0" fill="#FEFFFE" transform="matrix(1.00, 0.00, -0.00, -1.00, 536.4, 8.0)">e</text><text xml:space="preserve" font-family="AvenirNext-Medium" font-size="24.0" fill="#FEFFFE" transform="matrix(1.00, 0.00, -0.00, -1.00, 550.2, 8.0)">n</text><text xml:space="preserve" font-family="AvenirNext-Medium" font-size="24.0" fill="#FEFFFE" transform="matrix(1.00, 0.00, -0.00, -1.00, 564.1, 8.0)">t</text><text xml:space="preserve" font-family="AvenirNext-Medium" font-size="24.0" fill="#FEFFFE" transform="matrix(1.00, 0.00, -0.00, -1.00, 572.0, 8.0)">-</text><text xml:space="preserve" font-family="AvenirNext-Medium" font-size="24.0" fill="#FEFFFE" transform="matrix(1.00, 0.00, -0.00, -1.00, 579.7, 8.0)">h</text><text xml:space="preserve" font-family="AvenirNext-Medium" font-size="24.0" fill="#FEFFFE" transform="matrix(1.00, 0.00, -0.00, -1.00, 593.7, 8.0)">o</text><text xml:space="preserve" font-family="AvenirNext-Medium" font-size="24.0" fill="#FEFFFE" transform="matrix(1.00, 0.00, -0.00, -1.00, 608.4, 8.0)">u</text><text xml:space="preserve" font-family="AvenirNext-Medium" font-size="24.0" fill="#FEFFFE" transform="matrix(1.00, 0.00, -0.00, -1.00, 622.3, 8.0)">s</text><text xml:space="preserve" font-family="AvenirNext-Medium" font-size="24.0" fill="#FEFFFE" transform="matrix(1.00, 0.00, -0.00, -1.00, 633.0, 8.0)">i</text><text xml:space="preserve" font-family="AvenirNext-Medium" font-size="24.0" fill="#FEFFFE" transform="matrix(1.00, 0.00, -0.00, -1.00, 639.2, 8.0)">n</text><text xml:space="preserve" font-family="AvenirNext-Medium" font-size="24.0" fill="#FEFFFE" transform="matrix(1.00, 0.00, -0.00, -1.00, 653.2, 8.0)">g</text><text xml:space="preserve" font-family="AvenirNext-Medium" font-size="24.0" fill="#FEFFFE" transform="matrix(1.00, 0.00, -0.00, -1.00, 668.3, 8.0)"> </text><text xml:space="preserve" font-family="AvenirNext-Medium" font-size="24.0" fill="#FEFFFE" transform="matrix(1.00, 0.00, -0.00, -1.00, 674.3, 8.0)">c</text><text xml:space="preserve" font-family="AvenirNext-Medium" font-size="24.0" fill="#FEFFFE" transform="matrix(1.00, 0.00, -0.00, -1.00, 686.2, 8.0)">h</text><text xml:space="preserve" font-family="AvenirNext-Medium" font-size="24.0" fill="#FEFFFE" transform="matrix(1.00, 0.00, -0.00, -1.00, 700.2, 8.0)">a</text><text xml:space="preserve" font-family="AvenirNext-Medium" font-size="24.0" fill="#FEFFFE" transform="matrix(1.00, 0.00, -0.00, -1.00, 713.2, 8.0)">r</text><text xml:space="preserve" font-family="AvenirNext-Medium" font-size="24.0" fill="#FEFFFE" transform="matrix(1.00, 0.00, -0.00, -1.00, 721.5, 8.0)">g</text><text xml:space="preserve" font-family="AvenirNext-Medium" font-size="24.0" fill="#FEFFFE" transform="matrix(1.00, 0.00, -0.00, -1.00, 736.6, 8.0)">i</text><text xml:space="preserve" font-family="AvenirNext-Medium" font-size="24.0" fill="#FEFFFE" transform="matrix(1.00, 0.00, -0.00, -1.00, 742.9, 8.0)">n</text><text xml:space="preserve" font-family="AvenirNext-Medium" font-size="24.0" fill="#FEFFFE" transform="matrix(1.00, 0.00, -0.00, -1.00, 756.8, 8.0)">g</text><text xml:space="preserve" font-family="AvenirNext-Medium" font-size="24.0" fill="#FEFFFE" transform="matrix(1.00, 0.00, -0.00, -1.00, 772.0, 8.0)"> </text><text xml:space="preserve" font-family="AvenirNext-Medium" font-size="24.0" fill="#FEFFFE" transform="matrix(1.00, 0.00, -0.00, -1.00, 778.0, 8.0)">s</text><text xml:space="preserve" font-family="AvenirNext-Medium" font-size="24.0" fill="#FEFFFE" transform="matrix(1.00, 0.00, -0.00, -1.00, 788.7, 8.0)">y</text><text xml:space="preserve" font-family="AvenirNext-Medium" font-size="24.0" fill="#FEFFFE" transform="matrix(1.00, 0.00, -0.00, -1.00, 800.8, 8.0)">s</text><text xml:space="preserve" font-family="AvenirNext-Medium" font-size="24.0" fill="#FEFFFE" transform="matrix(1.00, 0.00, -0.00, -1.00, 811.4, 8.0)">t</text><text xml:space="preserve" font-family="AvenirNext-Medium" font-size="24.0" fill="#FEFFFE" transform="matrix(1.00, 0.00, -0.00, -1.00, 819.3, 8.0)">e</text><text xml:space="preserve" font-family="AvenirNext-Medium" font-size="24.0" fill="#FEFFFE" transform="matrix(1.00, 0.00, -0.00, -1.00, 833.1, 8.0)">m</text></g></svg>